<?xml version="1.0" standalone="no"?>
<!DOCTYPE svg PUBLIC "-//W3C//DTD SVG 20010904//EN"
 "http://www.w3.org/TR/2001/REC-SVG-20010904/DTD/svg10.dtd">
<svg version="1.0" xmlns="http://www.w3.org/2000/svg"
 width="1024.000000pt" height="1024.000000pt" viewBox="0 0 1024.000000 1024.000000"
 preserveAspectRatio="xMidYMid meet">

<g transform="translate(0.000000,1024.000000) scale(0.100000,-0.100000)"
fill="#000000" stroke="none">
<path d="M4875 8393 c-458 -38 -891 -200 -1250 -468 -186 -139 -406 -377 -559
-605 -100 -149 -225 -427 -286 -639 -28 -95 -66 -362 -75 -521 -27 -475 124
-983 409 -1375 146 -202 290 -356 452 -485 505 -403 1128 -581 1752 -500 180
23 270 43 453 103 352 116 602 269 898 552 219 209 447 557 554 845 136 366
171 805 97 1200 -99 519 -385 1001 -812 1366 -248 212 -615 392 -953 467 -243
54 -489 76 -680 60z m394 -193 c127 -14 342 -64 476 -111 149 -53 391 -175
497 -252 312 -224 574 -534 738 -872 186 -385 243 -860 156 -1295 -65 -322
-201 -614 -412 -887 -58 -75 -227 -246 -329 -333 -290 -246 -723 -437 -1090
-479 -322 -37 -631 -11 -899 76 -120 38 -328 126 -404 170 -328 189 -639 489
-822 793 -146 243 -247 522 -285 790 -17 123 -19 374 -4 521 12 126 65 349
113 480 75 208 198 422 349 608 84 105 306 321 402 393 92 69 274 180 355 216
181 81 460 161 632 181 104 12 416 12 527 1z"/>
<path d="M4860 8060 c-531 -58 -997 -290 -1307 -651 -265 -308 -432 -638 -495
-979 -18 -97 -22 -153 -22 -355 0 -223 2 -249 27 -366 75 -356 228 -654 485
-946 134 -153 400 -357 584 -447 354 -174 708 -235 1133 -196 320 30 703 185
970 394 275 214 508 520 652 856 106 246 128 369 128 715 0 232 -2 272 -23
375 -33 162 -85 312 -163 471 -259 522 -696 894 -1236 1049 -227 65 -546 100
-733 80z m267 -321 c168 -156 279 -319 319 -469 10 -36 18 -66 19 -67 1 -1 35
15 76 36 90 48 220 94 314 112 76 14 353 19 398 6 49 -13 61 -60 53 -209 -12
-214 -53 -357 -144 -503 -36 -57 -39 -54 73 -85 117 -33 234 -92 343 -175 109
-82 242 -214 242 -240 0 -23 -235 -251 -340 -331 -84 -63 -194 -117 -295 -144
-27 -7 -54 -17 -59 -21 -6 -5 3 -26 21 -51 103 -144 157 -331 169 -587 9 -169
13 -164 -173 -163 -237 2 -426 40 -577 117 -49 24 -92 42 -97 39 -5 -3 -9 -14
-9 -25 0 -31 -56 -166 -100 -239 -21 -36 -81 -113 -132 -171 -51 -58 -115
-131 -141 -162 -32 -38 -56 -57 -70 -57 -35 0 -227 202 -315 331 -52 78 -111
201 -126 268 -8 34 -17 65 -19 67 -2 2 -46 -18 -98 -44 -115 -58 -278 -101
-434 -113 -132 -11 -260 -2 -281 18 -10 10 -14 38 -14 94 0 93 34 331 57 404
24 74 80 194 108 231 14 18 25 37 25 41 0 5 -33 18 -72 28 -91 23 -200 79
-292 149 -87 67 -256 231 -291 285 -26 38 -26 40 -10 71 23 44 114 133 215
209 103 78 236 143 350 173 47 12 87 23 89 25 3 2 -18 49 -46 106 -89 179
-111 272 -115 490 -4 181 -8 177 171 177 69 0 169 -7 221 -15 129 -19 305 -81
385 -134 l29 -20 32 88 c40 110 65 159 121 241 98 140 262 300 309 300 14 0
55 -30 111 -81z"/>
<path d="M4943 7573 c-138 -157 -203 -273 -230 -411 l-16 -81 43 -129 44 -128
60 14 c60 14 281 12 332 -3 18 -6 23 1 39 42 29 79 65 145 103 191 l35 44 -33
98 c-17 55 -52 131 -76 171 -56 91 -201 259 -224 259 -9 0 -44 -30 -77 -67z
m111 -259 c24 -24 28 -54 25 -181 -3 -97 -8 -124 -25 -153 -58 -99 -138 21
-118 178 17 136 69 206 118 156z"/>
<path d="M5943 7209 c-165 -21 -385 -103 -445 -166 -42 -44 -133 -214 -140
-262 -3 -21 8 -31 74 -70 68 -41 87 -58 153 -148 41 -56 79 -104 84 -107 5 -3
26 6 47 21 22 15 83 50 137 78 95 50 100 55 156 136 81 120 122 257 144 482
l5 47 -77 -1 c-42 -1 -104 -5 -138 -10z m-79 -259 c-2 -52 -63 -147 -144 -223
l-70 -67 -65 0 c-97 0 -93 14 49 173 76 85 178 160 210 155 17 -2 21 -10 20
-38z"/>
<path d="M3896 7154 c16 -187 48 -317 104 -422 57 -106 94 -149 137 -157 57
-10 170 -51 210 -77 l36 -22 16 22 c81 113 161 194 251 253 l24 16 -37 63
c-21 34 -45 90 -54 124 -18 67 -30 82 -114 131 -123 72 -266 109 -462 121
l-116 7 5 -59z m343 -186 c46 -22 208 -178 242 -233 30 -48 25 -63 -25 -70
-50 -8 -79 4 -143 59 -58 50 -141 163 -154 209 -17 63 4 72 80 35z"/>
<path d="M4903 6700 c-142 -29 -294 -146 -375 -291 -106 -191 -113 -351 -23
-534 97 -196 280 -306 510 -307 114 0 160 10 263 59 110 52 190 132 246 246
25 51 50 120 57 155 15 82 6 220 -20 295 -26 74 -101 187 -162 241 -128 115
-326 169 -496 136z m240 -177 c3 -5 6 -64 8 -133 l4 -125 130 -5 130 -5 0
-130 0 -130 -134 -3 -134 -3 6 -128 c6 -112 5 -130 -9 -135 -9 -3 -62 -6 -118
-6 -143 0 -141 -2 -141 147 l0 118 -130 5 -130 5 -3 133 -3 132 137 0 137 0
-5 118 c-4 67 -2 125 4 135 8 14 27 17 128 17 65 0 121 -3 123 -7z"/>
<path d="M5913 6401 c-51 -32 -115 -67 -143 -77 -43 -15 -50 -22 -45 -39 3
-11 11 -50 17 -88 11 -63 4 -145 -25 -279 -1 -6 32 -23 73 -38 41 -15 104 -42
140 -59 36 -17 79 -31 95 -31 42 0 156 34 229 68 77 36 243 161 320 242 l59
61 -39 34 c-153 136 -361 235 -545 259 -41 6 -50 2 -136 -53z m350 -220 c27
-21 20 -54 -19 -92 l-35 -34 -164 -3 c-183 -4 -239 5 -249 41 -12 46 -7 95 12
101 9 2 112 4 228 3 162 -2 215 -5 227 -16z"/>
<path d="M3920 6434 c-151 -32 -318 -120 -454 -238 l-40 -34 26 -34 c116 -151
269 -260 449 -318 113 -37 124 -39 143 -25 100 74 149 100 265 141 14 4 13 20
-7 119 -8 43 -9 43 -82 24 -66 -17 -285 -17 -343 0 -74 21 -108 78 -70 116 14
15 40 17 217 13 165 -3 207 -7 233 -21 l31 -17 22 95 c22 98 21 115 -9 115 -9
0 -63 18 -120 40 -113 44 -152 48 -261 24z"/>
<path d="M4270 5753 c-116 -58 -204 -151 -274 -291 -61 -122 -88 -222 -101
-381 l-7 -83 38 5 c22 4 75 9 119 13 122 9 251 46 367 104 56 29 110 56 118
60 10 4 19 35 27 84 14 94 37 164 67 209 l23 34 -50 34 c-59 40 -128 116 -177
193 -24 38 -42 55 -56 56 -12 0 -54 -16 -94 -37z m176 -197 l28 -23 -28 -48
c-37 -62 -165 -196 -211 -221 l-37 -19 -19 24 c-26 32 -24 63 7 119 42 76 63
101 123 148 64 50 97 55 137 20z"/>
<path d="M5604 5719 c-27 -41 -74 -93 -104 -117 -30 -24 -72 -58 -94 -75 l-38
-32 36 -53 c39 -58 63 -127 72 -208 6 -48 10 -53 56 -83 136 -90 303 -139 501
-148 l127 -6 0 59 c0 137 -42 290 -118 439 -64 123 -126 184 -244 240 -145 68
-137 69 -194 -16z m77 -167 c45 -30 141 -127 191 -196 54 -75 26 -131 -55
-106 -43 13 -174 138 -227 219 -28 42 -39 89 -23 104 15 16 72 5 114 -21z"/>
<path d="M4739 5443 c-42 -109 -47 -363 -10 -483 33 -103 107 -223 197 -319
l82 -86 58 64 c127 140 184 230 229 362 51 146 58 225 31 320 -8 30 -20 73
-26 97 -13 49 -15 50 -133 26 -121 -25 -274 -16 -351 19 -32 15 -60 27 -62 27
-3 0 -9 -12 -15 -27z m326 -173 c17 -29 20 -52 20 -140 -1 -114 -20 -194 -55
-225 -17 -15 -22 -16 -36 -4 -39 32 -58 100 -62 225 -4 99 -1 126 12 153 16
29 21 32 59 29 35 -3 44 -8 62 -38z"/>
<path d="M7982 3418 c-44 -48 -37 -120 17 -172 24 -23 35 -27 59 -21 46 10 74
47 80 104 4 46 2 53 -26 81 -39 38 -97 42 -130 8z m103 -123 c-29 -38 -45 -45
-45 -18 0 23 64 83 68 65 2 -7 -8 -28 -23 -47z"/>
<path d="M2238 3406 c-27 -13 -57 -71 -139 -266 -33 -80 -87 -199 -120 -264
-55 -112 -58 -121 -42 -138 12 -13 30 -18 69 -18 62 0 82 19 109 101 14 42 20
48 38 44 12 -3 71 -7 131 -8 120 -2 112 2 141 -79 15 -43 21 -49 58 -59 48
-13 83 -4 103 26 11 18 5 37 -52 165 -36 80 -95 215 -131 300 -36 85 -72 165
-80 176 -17 26 -54 35 -85 20z m79 -345 c18 -41 33 -75 33 -77 0 -2 -38 -4
-85 -4 -47 0 -85 1 -85 3 0 1 15 38 33 82 19 44 37 89 41 100 8 19 9 19 19 -5
6 -14 25 -58 44 -99z"/>
<path d="M3663 3410 c-109 -22 -230 -117 -276 -217 -16 -37 -22 -67 -22 -128
0 -71 4 -88 33 -147 61 -125 179 -201 312 -202 53 -1 77 5 132 31 119 56 196
143 224 255 44 172 -74 354 -262 402 -67 17 -79 18 -141 6z m172 -180 c88 -64
112 -162 62 -259 -85 -167 -323 -135 -379 51 -23 78 25 177 108 226 32 18 51
22 100 20 50 -3 69 -10 109 -38z"/>
<path d="M5304 3413 c-12 -2 -29 -12 -39 -23 -15 -16 -15 -21 -2 -42 20 -30
33 -444 17 -533 -10 -58 -9 -61 15 -82 36 -32 78 -29 117 6 32 29 33 29 20 75
-6 26 -12 59 -12 74 0 29 46 105 60 100 12 -4 107 -116 171 -200 l51 -68 57 0
c55 0 101 19 101 41 0 5 -58 74 -129 153 -71 79 -134 153 -140 164 -9 17 5 36
110 151 67 72 125 131 130 131 5 0 9 7 9 16 0 25 -61 44 -120 37 -49 -6 -54
-9 -106 -72 -145 -178 -177 -216 -184 -219 -4 -1 -10 37 -13 85 -5 75 -4 93
13 125 15 28 16 39 7 52 -23 29 -75 41 -133 29z"/>
<path d="M6432 3406 c-96 -24 -163 -95 -170 -180 -6 -74 2 -99 45 -147 45 -50
70 -63 170 -90 96 -26 123 -42 123 -74 0 -35 -41 -59 -100 -57 -51 1 -93 18
-148 59 l-32 24 -25 -28 c-13 -15 -32 -42 -42 -60 -16 -31 -16 -33 2 -53 10
-11 50 -36 88 -55 59 -29 80 -35 136 -35 85 0 131 13 183 53 64 49 90 100 84
163 -9 104 -59 153 -199 198 -98 31 -137 57 -137 91 0 32 44 55 106 55 36 0
59 -8 96 -31 27 -17 50 -30 51 -28 2 2 17 28 35 58 31 51 32 55 16 72 -28 31
-115 67 -174 73 -31 3 -78 -1 -108 -8z"/>
<path d="M4186 3391 c-26 -29 -26 -95 -1 -120 18 -17 28 -18 95 -10 41 5 81 7
88 4 17 -6 17 -447 0 -475 -10 -16 -9 -23 12 -45 19 -20 33 -25 75 -25 42 0
56 5 75 25 21 23 23 29 13 58 -14 38 -28 370 -19 421 l7 36 88 0 c84 0 88 1
99 25 16 35 15 77 -2 101 -13 18 -30 19 -263 22 -239 3 -250 2 -267 -17z"/>
<path d="M4880 3389 c-8 -15 -8 -24 0 -34 13 -15 10 -550 -3 -576 -14 -28 22
-59 79 -65 44 -6 54 -3 79 19 29 24 29 26 17 71 -8 31 -12 127 -12 283 0 206
2 239 17 255 15 17 15 20 -7 43 -21 22 -32 25 -91 25 -59 0 -70 -3 -79 -21z"/>
<path d="M6951 3396 c-9 -11 -11 -25 -5 -43 13 -47 16 -530 3 -554 -9 -18 -7
-26 9 -48 31 -42 67 -50 110 -24 41 23 42 30 27 144 l-7 56 38 6 c22 4 46 7
55 7 8 0 51 -49 95 -110 l79 -109 56 -1 c44 0 60 4 75 21 19 22 20 20 -27 80
-15 19 -43 59 -63 91 l-36 56 35 21 c38 22 81 97 91 158 13 83 -43 186 -126
233 -42 23 -56 25 -220 28 -152 4 -178 2 -189 -12z m334 -140 c47 -20 70 -66
55 -112 -19 -56 -58 -74 -162 -74 l-88 0 0 95 0 94 63 4 c34 2 70 4 80 5 10 1
33 -4 52 -12z"/>
<path d="M7690 3390 c-24 -24 -25 -33 -5 -50 13 -10 15 -53 15 -271 0 -161 -4
-260 -10 -264 -34 -21 28 -95 80 -95 16 0 42 11 60 27 27 22 31 31 26 57 -3
17 -8 143 -12 279 -4 189 -3 252 7 263 10 12 8 20 -8 42 -17 23 -29 27 -76 30
-46 2 -60 -1 -77 -18z"/>
<path d="M2737 3393 c-12 -11 -7 -47 8 -67 20 -26 22 -495 3 -526 -9 -13 -9
-27 -2 -47 12 -36 55 -49 113 -33 55 15 68 41 48 101 -8 24 -13 58 -10 75 l5
31 83 6 c165 12 264 100 265 235 0 64 -16 106 -61 157 -58 66 -91 75 -280 75
-91 0 -169 -3 -172 -7z m262 -129 c46 -5 67 -13 86 -32 37 -37 34 -85 -9 -128
-33 -33 -37 -34 -107 -34 l-74 0 0 100 c-1 114 -10 105 104 94z"/>
<path d="M3541 2401 l-24 -6 2 -145 c1 -80 5 -148 9 -152 4 -4 19 -10 35 -13
27 -7 27 -7 27 44 l0 51 38 0 c70 0 139 66 125 121 -21 85 -113 128 -212 100z
m104 -71 c23 -9 26 -15 23 -47 -3 -36 -5 -38 -38 -38 -31 0 -35 3 -41 33 -5
23 -2 37 8 47 17 18 15 18 48 5z"/>
<path d="M3864 2398 c-6 -7 -10 -80 -10 -163 l1 -150 30 0 c30 0 30 0 33 63
l3 62 59 0 59 0 3 -62 c3 -63 3 -63 33 -63 l30 0 8 149 c4 83 5 156 2 164 -3
8 -16 12 -32 10 -26 -3 -28 -6 -33 -63 l-5 -60 -60 0 -60 0 -5 60 c-4 51 -8
60 -26 63 -11 2 -25 -3 -30 -10z"/>
<path d="M4332 2358 c-102 -184 -122 -247 -83 -268 35 -18 50 -12 57 25 l6 35
68 0 c68 0 68 0 75 -31 9 -38 30 -47 63 -26 36 21 37 30 8 64 -14 16 -32 47
-40 69 -67 179 -69 184 -101 184 -18 0 -30 -12 -53 -52z m76 -95 c9 -29 9 -39
-1 -45 -16 -10 -49 -10 -66 1 -12 8 -10 16 13 45 15 20 31 36 35 36 4 0 13
-17 19 -37z"/>
<path d="M4666 2401 c-21 -8 -26 -36 -29 -194 -2 -115 2 -127 51 -127 16 0 22
6 22 24 0 31 20 86 31 86 5 0 25 -25 44 -55 35 -54 47 -61 79 -49 23 9 20 25
-14 66 l-31 37 36 47 c27 36 35 53 30 72 -10 39 -34 69 -70 86 -34 16 -115 20
-149 7z m139 -105 c0 -16 -7 -33 -16 -39 -24 -15 -68 0 -81 29 -15 33 2 45 57
42 37 -3 40 -5 40 -32z"/>
<path d="M5017 2396 c-9 -10 -16 -50 -21 -124 -8 -131 -1 -170 30 -184 42 -19
53 -5 56 74 l3 73 30 -45 c43 -64 65 -63 106 2 l34 53 3 -70 c3 -78 12 -94 46
-88 21 4 24 12 30 71 10 110 7 227 -6 240 -31 31 -58 12 -119 -80 -17 -27 -35
-48 -40 -48 -4 0 -27 27 -49 60 -35 51 -65 80 -84 80 -2 0 -11 -6 -19 -14z"/>
<path d="M5567 2403 c-19 -33 -117 -277 -117 -293 0 -12 9 -22 24 -26 32 -8
43 0 51 36 7 30 7 30 74 30 l67 0 13 -35 c7 -19 18 -35 26 -35 26 0 45 12 45
29 0 14 -92 233 -119 281 -9 16 -56 26 -64 13z m42 -125 c25 -68 25 -68 -13
-68 -20 0 -36 4 -36 10 0 11 32 80 37 80 2 0 7 -10 12 -22z"/>
<path d="M5923 2385 c-101 -61 -112 -175 -26 -258 56 -52 135 -55 197 -6 33
26 33 35 -3 53 -26 14 -30 14 -41 1 -17 -21 -59 -19 -97 5 -55 33 -57 107 -3
135 37 19 55 19 91 -2 27 -16 29 -16 49 2 31 28 25 49 -24 73 -56 28 -91 28
-143 -3z"/>
<path d="M6207 2404 c-14 -15 -6 -41 38 -114 40 -67 45 -82 45 -136 0 -46 4
-63 15 -68 31 -12 44 5 51 66 5 40 14 69 29 86 60 71 103 162 78 162 -5 0 -17
3 -29 6 -18 5 -27 -4 -52 -49 -17 -31 -35 -58 -40 -61 -5 -3 -27 20 -49 52
-36 53 -68 74 -86 56z"/>
<path d="M2901 2323 c-257 -3 -297 -5 -313 -20 -24 -21 -23 -46 3 -69 19 -17
40 -19 218 -21 108 -1 256 -3 330 -4 129 -2 135 -1 153 21 22 27 23 49 2 78
-12 18 -23 22 -57 20 -23 -2 -174 -4 -336 -5z"/>
<path d="M6678 2308 c-26 -26 -22 -55 9 -84 26 -24 32 -25 88 -18 33 5 182 8
331 9 253 0 273 1 293 19 26 23 27 48 4 69 -16 13 -66 16 -363 19 -318 3 -346
2 -362 -14z"/>
</g>
</svg>
