<?xml version="1.0" encoding="UTF-8"?>
<svg version="1.1" xmlns="http://www.w3.org/2000/svg" width="640" height="640" class="scale-[0.5] mx-auto">
<path d="M0 0 C1.13891693 -0.0033284 2.27783386 -0.0066568 3.45126343 -0.01008606 C5.84624838 -0.01511466 8.24124024 -0.01749566 10.63623047 -0.01733398 C14.2432855 -0.01951303 17.8500304 -0.03769267 21.45703125 -0.05664062 C34.33878577 -0.08854126 46.89622555 0.31392375 59.6484375 2.16796875 C60.73946777 2.31935303 61.83049805 2.4707373 62.95458984 2.62670898  C123.48613657 11.4240393 179.66517499 38.02482648 225.6484375 78.16796875 C226.42703125 78.83441406 227.205625 79.50085938 228.0078125 80.1875 C240.85123667 91.41442423 253.27820371 103.60843675 263.6484375 117.16796875 C264.4958991 118.21711072 265.34634483 119.26384683 266.19921875 120.30859375 C282.00059003 139.78903968 294.96671633 161.50067995 305.6484375 184.16796875 C305.9794043 184.86712402 306.31037109 185.5662793 306.65136719 186.28662109 C312.13947577 197.97970603 316.59118051 209.91155781 320.6484375 222.16796875 C321.02742187 223.28300781 321.40640625 224.39804688 321.796875 225.546875 C326.49134051 239.94949518 329.38857258 254.9397334 331.8984375 269.85546875 C332.14303711 271.30530151 332.14303711 271.30530151 332.39257812 272.78442383 C334.11170102 283.39452113 334.80965952 293.86874275 334.8515625 304.61328125 C334.85726257 305.7814035 334.86296265 306.94952576 334.86883545 308.15304565 C334.87823312 310.61878572 334.88479845 313.08453804 334.88867188 315.55029297 C334.89828439 319.23428751 334.92932061 322.91770062 334.9609375 326.6015625 C335.27718963 397.17553523 309.56693744 466.87444686 265.01367188 521.49414062 C264.13233671 522.57469032 263.25567354 523.65907546 262.38476562 524.74804688 C255.34540591 533.52253737 247.51108256 541.5135236 239.5859375 549.48046875 C238.82574814 550.24855865 238.82574814 550.24855865 238.05020142 551.03216553 C231.25665603 557.88022185 224.2453924 564.20149411 216.6484375 570.16796875 C215.92873779 570.74168213 215.20903809 571.31539551 214.4675293 571.90649414 C170.73317042 606.58761281 119.81086814 628.1758089 64.9609375 637.41796875 C63.99406006 637.58111572 63.02718262 637.7442627 62.03100586 637.91235352 C51.4211833 639.63111001 40.94734957 640.329192 30.203125 640.37109375 C29.03500275 640.37679382 27.86688049 640.3824939 26.6633606 640.3883667 C24.19762053 640.39776437 21.73186821 640.4043297 19.26611328 640.40820312 C15.58211874 640.41781564 11.89870563 640.44885186 8.21484375 640.48046875 C-67.03539259 640.81799729 -139.90779379 611.44307699 -196.3515625 562.16796875 C-197.13015625 561.50152344 -197.90875 560.83507812 -198.7109375 560.1484375 C-211.55537889 548.92062408 -223.97310508 536.72259202 -234.3515625 523.16796875 C-234.9496875 522.44867187 -235.5478125 521.729375 -236.1640625 520.98828125 C-252.4477 501.38006777 -265.62029511 479.24422795 -276.3515625 456.16796875 C-276.87049072 455.05760254 -276.87049072 455.05760254 -277.39990234 453.92480469 C-294.48224388 416.90923284 -305.47670387 375.71790871 -305.51953125 334.81640625 C-305.52285965 333.67748932 -305.52618805 332.53857239 -305.52961731 331.36514282 C-305.53464591 328.97015787 -305.53702691 326.57516601 -305.53686523 324.18017578 C-305.53904428 320.57312075 -305.55722392 316.96637585 -305.57617188 313.359375 C-305.62003985 295.8597482 -304.36777397 279.18992403 -301.1015625 261.98046875 C-300.88395264 260.83247803 -300.66634277 259.6844873 -300.44213867 258.50170898 C-291.32205699 211.63309485 -272.11318885 168.93976243 -244.7265625 129.98046875 C-244.31277344 129.38588867 -243.89898437 128.79130859 -243.47265625 128.17871094 C-242.4848059 126.80253894 -241.42486088 125.47859008 -240.3515625 124.16796875 C-239.6915625 124.16796875 -239.0315625 124.16796875 -238.3515625 124.16796875 C-238.11824219 123.45253906 -237.88492188 122.73710938 -237.64453125 122 C-236.11433545 118.64836268 -234.19212271 116.53064426 -231.6640625 113.85546875 C-230.83519531 112.97246094 -230.00632812 112.08945313 -229.15234375 111.1796875 C-228.70487793 110.7045874 -228.25741211 110.2294873 -227.79638672 109.73999023 C-226.20055014 108.00366179 -224.66615552 106.22196447 -223.12890625 104.43359375 C-218.82559567 99.49457348 -214.23418468 94.85914603 -209.6015625 90.23046875 C-208.27692993 88.90595703 -208.27692993 88.90595703 -206.92553711 87.5546875 C-201.00238621 81.68326004 -195.00966354 76.20011642 -188.3515625 71.16796875 C-187.47371094 70.43578125 -186.59585938 69.70359375 -185.69140625 68.94921875 C-183.3515625 67.16796875 -183.3515625 67.16796875 -181.3515625 67.16796875 C-181.3515625 66.50796875 -181.3515625 65.84796875 -181.3515625 65.16796875 C-179.86132812 63.90625 -179.86132812 63.90625 -177.7578125 62.48046875 C-176.59536011 61.68721191 -176.59536011 61.68721191 -175.40942383 60.87792969 C-174.56532959 60.31364258 -173.72123535 59.74935547 -172.8515625 59.16796875 C-171.55738403 58.29446777 -171.55738403 58.29446777 -170.23706055 57.40332031 C-162.38866294 52.13497066 -154.45021095 47.04211684 -146.3515625 42.16796875 C-145.7544043 41.8028418 -145.15724609 41.43771484 -144.54199219 41.06152344 C-113.47950598 22.18704272 -77.94092735 10.64976177 -42.3515625 4.16796875 C-40.98813721 3.91345947 -40.98813721 3.91345947 -39.59716797 3.65380859 C-26.39806339 1.211207 -13.43120105 0.01406362 0 0 Z " fill="#3853A3" transform="translate(305.3515625,-0.16796875)"/>
<path d="M0 0 C1.13891693 -0.0033284 2.27783386 -0.0066568 3.45126343 -0.01008606 C5.84624838 -0.01511466 8.24124024 -0.01749566 10.63623047 -0.01733398 C14.2432855 -0.01951303 17.8500304 -0.03769267 21.45703125 -0.05664062 C34.33878577 -0.08854126 46.89622555 0.31392375 59.6484375 2.16796875 C60.73946777 2.31935303 61.83049805 2.4707373 62.95458984 2.62670898 C123.48613657 11.4240393 179.66517499 38.02482648 225.6484375 78.16796875 C226.42703125 78.83441406 227.205625 79.50085938 228.0078125 80.1875 C240.85123667 91.41442423 253.27820371 103.60843675 263.6484375 117.16796875 C264.4958991 118.21711072 265.34634483 119.26384683 266.19921875 120.30859375 C282.00059003 139.78903968 294.96671633 161.50067995 305.6484375 184.16796875 C305.9794043 184.86712402 306.31037109 185.5662793 306.65136719 186.28662109 C312.13947577 197.97970603 316.59118051 209.91155781 320.6484375 222.16796875 C321.02742187 223.28300781 321.40640625 224.39804688 321.796875 225.546875 C326.49134051 239.94949518 329.38857258 254.9397334 331.8984375 269.85546875 C332.14303711 271.30530151 332.14303711 271.30530151 332.39257812 272.78442383 C334.11170102 283.39452113 334.80965952 293.86874275 334.8515625 304.61328125 C334.85726257 305.7814035 334.86296265 306.94952576 334.86883545 308.15304565 C334.87823312 310.61878572 334.88479845 313.08453804 334.88867188 315.55029297 C334.89828439 319.23428751 334.92932061 322.91770062 334.9609375 326.6015625 C335.27718963 397.17553523 309.56693744 466.87444686 265.01367188 521.49414062 C264.13233671 522.57469032 263.25567354 523.65907546 262.38476562 524.74804688 C255.34540591 533.52253737 247.51108256 541.5135236 239.5859375 549.48046875 C238.82574814 550.24855865 238.82574814 550.24855865 238.05020142 551.03216553 C231.25665603 557.88022185 224.2453924 564.20149411 216.6484375 570.16796875 C215.92873779 570.74168213 215.20903809 571.31539551 214.4675293 571.90649414 C170.73317042 606.58761281 119.81086814 628.1758089 64.9609375 637.41796875 C63.99406006 637.58111572 63.02718262 637.7442627 62.03100586 637.91235352 C51.4211833 639.63111001 40.94734957 640.329192 30.203125 640.37109375 C29.03500275 640.37679382 27.86688049 640.3824939 26.6633606 640.3883667 C24.19762053 640.39776437 21.73186821 640.4043297 19.26611328 640.40820312 C15.58211874 640.41781564 11.89870563 640.44885186 8.21484375 640.48046875 C-67.03539259 640.81799729 -139.90779379 611.44307699 -196.3515625 562.16796875 C-197.13015625 561.50152344 -197.90875 560.83507812 -198.7109375 560.1484375 C-211.55537889 548.92062408 -223.97310508 536.72259202 -234.3515625 523.16796875 C-234.9496875 522.44867187 -235.5478125 521.729375 -236.1640625 520.98828125 C-252.4477 501.38006777 -265.62029511 479.24422795 -276.3515625 456.16796875 C-276.87049072 455.05760254 -276.87049072 455.05760254 -277.39990234 453.92480469 C-294.48224388 416.90923284 -305.47670387 375.71790871 -305.51953125 334.81640625 C-305.52285965 333.67748932 -305.52618805 332.53857239 -305.52961731 331.36514282 C-305.53464591 328.97015787 -305.53702691 326.57516601 -305.53686523 324.18017578 C-305.53904428 320.57312075 -305.55722392 316.96637585 -305.57617188 313.359375 C-305.62003985 295.8597482 -304.36777397 279.18992403 -301.1015625 261.98046875 C-300.88395264 260.83247803 -300.66634277 259.6844873 -300.44213867 258.50170898 C-291.32205699 211.63309485 -272.11318885 168.93976243 -244.7265625 129.98046875 C-244.31277344 129.38588867 -243.89898437 128.79130859 -243.47265625 128.17871094 C-242.4848059 126.80253894 -241.42486088 125.47859008 -240.3515625 124.16796875 C-239.6915625 124.16796875 -239.0315625 124.16796875 -238.3515625 124.16796875 C-238.11824219 123.45253906 -237.88492188 122.73710938 -237.64453125 122 C-236.11433545 118.64836268 -234.19212271 116.53064426 -231.6640625 113.85546875 C-230.83519531 112.97246094 -230.00632812 112.08945313 -229.15234375 111.1796875 C-228.70487793 110.7045874 -228.25741211 110.2294873 -227.79638672 109.73999023 C-226.20055014 108.00366179 -224.66615552 106.22196447 -223.12890625 104.43359375 C-218.82559567 99.49457348 -214.23418468 94.85914603 -209.6015625 90.23046875 C-208.27692993 88.90595703 -208.27692993 88.90595703 -206.92553711 87.5546875 C-201.00238621 81.68326004 -195.00966354 76.20011642 -188.3515625 71.16796875 C-187.47371094 70.43578125 -186.59585938 69.70359375 -185.69140625 68.94921875 C-183.3515625 67.16796875 -183.3515625 67.16796875 -181.3515625 67.16796875 C-181.3515625 66.50796875 -181.3515625 65.84796875 -181.3515625 65.16796875 C-179.86132812 63.90625 -179.86132812 63.90625 -177.7578125 62.48046875 C-176.59536011 61.68721191 -176.59536011 61.68721191 -175.40942383 60.87792969 C-174.56532959 60.31364258 -173.72123535 59.74935547 -172.8515625 59.16796875 C-171.55738403 58.29446777 -171.55738403 58.29446777 -170.23706055 57.40332031 C-162.38866294 52.13497066 -154.45021095 47.04211684 -146.3515625 42.16796875 C-145.7544043 41.8028418 -145.15724609 41.43771484 -144.54199219 41.06152344 C-113.47950598 22.18704272 -77.94092735 10.64976177 -42.3515625 4.16796875 C-40.98813721 3.91345947 -40.98813721 3.91345947 -39.59716797 3.65380859 C-26.39806339 1.211207 -13.43120105 0.01406362 0 0 Z M-36.3515625 26.16796875 C-37.29354492 26.33425781 -38.23552734 26.50054688 -39.20605469 26.671875 C-68.57322649 32.03483502 -97.03710072 42.10920607 -123.3515625 56.16796875 C-124.0729541 56.55065918 -124.7943457 56.93334961 -125.53759766 57.32763672 C-160.26573408 75.85279399 -193.33790252 101.76549031 -217.3515625 133.16796875 C-218.145625 134.16828125 -218.9396875 135.16859375 -219.7578125 136.19921875 C-233.88200179 154.07030631 -245.59475528 173.60597969 -255.3515625 194.16796875 C-255.67334473 194.83280273 -255.99512695 195.49763672 -256.32666016 196.18261719 C-275.24383569 235.48443687 -282.79060092 277.63696128 -282.7890625 320.91796875 C-282.79079468 322.08173035 -282.79252686 323.24549194 -282.79431152 324.44451904 C-282.78277768 342.13287849 -281.76512956 358.88987048 -277.9921875 376.19824219 C-277.41098017 378.89252801 -276.90969403 381.58436431 -276.4453125 384.30078125 C-272.64492792 405.72153452 -264.5012752 426.51059445 -255.3515625 446.16796875 C-254.96919434 446.99312988 -254.58682617 447.81829102 -254.19287109 448.66845703 C-245.04130223 468.19408898 -233.73119352 486.26993639 -220.3515625 503.16796875 C-219.57167969 504.16054688 -218.79179687 505.153125 -217.98828125 506.17578125 C-204.6024638 522.86644528 -189.363198 539.15772601 -172.3515625 552.16796875 C-171.09022799 553.16811439 -169.82988791 554.16951487 -168.5703125 555.171875 C-105.95352596 604.56340515 -26.68130035 625.02710478 52.17578125 616.13671875 C86.48480062 611.88705391 120.32648644 601.36907365 150.86279297 585.109375 C152.63338587 584.17590409 154.4241741 583.28107292 156.21484375 582.38671875 C172.43032295 574.20870622 187.5866165 563.62642785 201.6484375 552.16796875 C202.66808594 551.35199219 203.68773437 550.53601563 204.73828125 549.6953125 C212.75774968 543.13579858 220.12146876 535.90459462 227.4609375 528.60546875 C227.94898865 528.12268463 228.43703979 527.63990051 228.93988037 527.14248657 C235.63724281 520.50107407 241.82126372 513.58915838 247.6484375 506.16796875 C248.18654053 505.48919678 248.72464355 504.8104248 249.27905273 504.11108398 C257.51187292 493.6209893 264.81443828 482.61216918 271.6484375 471.16796875 C272.11636719 470.38470215 272.58429687 469.60143555 273.06640625 468.79443359 C288.35034448 442.87702714 298.72168114 414.38240284 305.6484375 385.16796875 C305.83003418 384.41854004 306.01163086 383.66911133 306.19873047 382.89697266 C318.17753798 332.45589449 314.17728949 278.31697796 298.6484375 229.16796875 C298.39900391 228.36649414 298.14957031 227.56501953 297.89257812 226.73925781 C288.78247637 197.87498938 274.49340449 170.57437226 256.6484375 146.16796875 C256.23916016 145.60706543 255.82988281 145.04616211 255.40820312 144.46826172 C245.6147113 131.16188695 234.66081406 119.0075777 223.0234375 107.29296875 C221.73602661 105.99166016 221.73602661 105.99166016 220.42260742 104.6640625 C214.47469556 98.74504325 208.22773902 93.37165718 201.6484375 88.16796875 C201.03983887 87.67973633 200.43124023 87.19150391 199.80419922 86.68847656 C173.88134451 65.97965989 144.64491214 50.21742951 113.41699219 39.1550293 C110.60018668 38.1507661 107.79903992 37.10863329 104.99609375 36.06640625 C100.30552654 34.36297878 95.61646867 32.92872302 90.7734375 31.73046875 C89.94972656 31.52583008 89.12601562 31.32119141 88.27734375 31.11035156 C80.45723963 29.24069785 72.56775009 27.7980707 64.6484375 26.41796875 C63.44461426 26.2072876 62.24079102 25.99660645 61.00048828 25.77954102 C45.65475432 23.1958097 30.55015346 22.92653678 15.0234375 22.91796875 C13.92751282 22.91729401 12.83158813 22.91661926 11.70245361 22.91592407 C-4.50175141 22.93178178 -20.36343148 23.27036955 -36.3515625 26.16796875 Z " fill="#040707" transform="translate(305.3515625,-0.16796875)"/>
</svg>
