<?xml version="1.0" encoding="UTF-8"?>
<svg version="1.1" xmlns="http://www.w3.org/2000/svg" width="640" height="640" class="scale-[0.5] mx-auto">
<path d="M0 0 C3.8966152 -0.00433922 7.79206317 -0.0406644 11.68847656 -0.07861328 C29.00910954 -0.15653699 45.64567821 1.33810085 62.69628906 4.37060547 C63.86584137 4.57831573 63.86584137 4.57831573 65.059021 4.79022217 C68.98467931 5.50700235 72.87399158 6.33465658 76.75878906 7.24560547 C77.86689941 7.49971191 78.97500977 7.75381836 80.11669922 8.015625 C122.15034472 17.89264927 161.33011195 36.81884238 196.11254883 62.23242188 C197.61620959 63.3130549 199.15558815 64.34347153 200.69628906 65.37060547 C200.69628906 66.03060547 200.69628906 66.69060547 200.69628906 67.37060547 C201.40140625 67.59361328 202.10652344 67.81662109 202.83300781 68.04638672 C206.31582687 69.65713114 208.77990121 71.92883804 211.50878906 74.55810547 C212.49344434 75.49017569 213.4791419 76.42114593 214.46582031 77.35107422 C215.23841187 78.08221436 215.23841187 78.08221436 216.02661133 78.828125 C217.82530926 80.48979681 219.66923075 82.08872113 221.52441406 83.68701172 C226.07764325 87.65027862 230.36848715 91.85121061 234.63378906 96.12060547 C235.42358154 96.91047852 236.21337402 97.70035156 237.02709961 98.51416016 C242.65785799 104.20015055 247.80596469 110.03337319 252.69628906 116.37060547 C253.71181892 117.56264408 254.73179288 118.75093129 255.75878906 119.93310547 C257.69628906 122.37060547 257.69628906 122.37060547 257.69628906 124.37060547 C258.35628906 124.37060547 259.01628906 124.37060547 259.69628906 124.37060547 C261.04980469 125.95263672 261.04980469 125.95263672 262.60253906 128.18310547 C263.17681641 129.00367432 263.75109375 129.82424316 264.34277344 130.66967773 C264.95443359 131.56098389 265.56609375 132.45229004 266.19628906 133.37060547 C266.82341797 134.27673584 267.45054687 135.18286621 268.09667969 136.11645508 C295.50254984 175.98303815 313.62735508 220.60535417 321.69628906 268.37060547 C321.82832733 269.12993378 321.9603656 269.88926208 322.09640503 270.67160034 C324.64008492 285.66829906 325.19429122 300.4507153 325.14233398 315.64477539 C325.13385277 319.40486044 325.16266971 323.16340443 325.19433594 326.92333984 C325.33922655 377.20714385 312.38180179 430.38028888 286.70019531 473.95654297 C285.00133266 476.85090156 283.42698352 479.76719517 281.88378906 482.74560547 C277.8166153 490.25510787 272.90412294 497.25727243 268.10009766 504.30761719 C266.86956563 506.11596425 265.65004634 507.93103475 264.43457031 509.74951172 C263.8196875 510.65572266 263.20480469 511.56193359 262.57128906 512.49560547 C262.05308594 513.26130859 261.53488281 514.02701172 261.00097656 514.81591797 C260.35515625 515.58548828 260.35515625 515.58548828 259.69628906 516.37060547 C259.03628906 516.37060547 258.37628906 516.37060547 257.69628906 516.37060547 C257.47328125 517.07572266 257.25027344 517.78083984 257.02050781 518.50732422 C255.40976339 521.99014328 253.1380565 524.45421762 250.50878906 527.18310547 C249.57671884 528.16776075 248.6457486 529.1534583 247.71582031 530.14013672 C246.98468018 530.91272827 246.98468018 530.91272827 246.23876953 531.70092773 C244.57709772 533.49962566 242.9781734 535.34354715 241.37988281 537.19873047 C237.41661591 541.75195966 233.21568392 546.04280355 228.94628906 550.30810547 C228.15641602 551.09789795 227.36654297 551.88769043 226.55273438 552.70141602 C220.86674398 558.33217439 215.03352134 563.48028109 208.69628906 568.37060547 C207.50425045 569.38613532 206.31596324 570.40610929 205.13378906 571.43310547 C202.69628906 573.37060547 202.69628906 573.37060547 200.69628906 573.37060547 C200.69628906 574.03060547 200.69628906 574.69060547 200.69628906 575.37060547 C199.11425781 576.72412109 199.11425781 576.72412109 196.88378906 578.27685547 C196.06313965 578.85121338 195.24249023 579.42557129 194.39697266 580.01733398 C193.50574707 580.62891357 192.61452148 581.24049316 191.69628906 581.87060547 C190.33818115 582.81021118 190.33818115 582.81021118 188.95263672 583.76879883 C168.51887663 597.8118493 168.51887663 597.8118493 157.34863281 603.10888672 C154.62779787 604.4031867 151.95282164 605.77629122 149.27392578 607.15478516 C105.46892087 629.50839319 57.01651684 641.22929893 7.83911133 640.89208984 C4.13003397 640.8705837 0.42288814 640.89209126 -3.28613281 640.91748047 C-53.00019451 640.97500023 -105.83477206 627.74884495 -148.88964844 602.37451172 C-151.78400703 600.67564907 -154.70030064 599.10129993 -157.67871094 597.55810547 C-165.18821333 593.4909317 -172.1903779 588.57843935 -179.24072266 583.77441406 C-181.04906972 582.54388204 -182.86414022 581.32436274 -184.68261719 580.10888672 C-185.58882812 579.49400391 -186.49503906 578.87912109 -187.42871094 578.24560547 C-188.57726562 577.46830078 -188.57726562 577.46830078 -189.74902344 576.67529297 C-190.51859375 576.02947266 -190.51859375 576.02947266 -191.30371094 575.37060547 C-191.30371094 574.71060547 -191.30371094 574.05060547 -191.30371094 573.37060547 C-192.36138672 573.03609375 -192.36138672 573.03609375 -193.44042969 572.69482422 C-196.92324875 571.0840798 -199.38732309 568.8123729 -202.11621094 566.18310547 C-203.10086622 565.25103525 -204.08656377 564.320065 -205.07324219 563.39013672 C-205.58830322 562.90270996 -206.10336426 562.4152832 -206.6340332 561.91308594 C-208.43273113 560.25141413 -210.27665262 558.65248981 -212.13183594 557.05419922 C-216.68506513 553.09093232 -220.97590902 548.89000033 -225.24121094 544.62060547 C-226.03100342 543.83073242 -226.8207959 543.04085937 -227.63452148 542.22705078 C-233.26527986 536.54106039 -238.41338656 530.70783774 -243.30371094 524.37060547 C-244.31924079 523.17856685 -245.33921475 521.99027965 -246.36621094 520.80810547 C-248.30371094 518.37060547 -248.30371094 518.37060547 -248.30371094 516.37060547 C-248.96371094 516.37060547 -249.62371094 516.37060547 -250.30371094 516.37060547 C-251.65722656 514.78857422 -251.65722656 514.78857422 -253.20996094 512.55810547 C-253.78423828 511.73753662 -254.35851562 510.91696777 -254.95019531 510.0715332 C-255.56185547 509.18022705 -256.17351562 508.2889209 -256.80371094 507.37060547 C-257.7444043 506.01140991 -257.7444043 506.01140991 -258.70410156 504.62475586 C-278.39306174 475.98375442 -293.76491867 444.87778122 -303.30371094 411.37060547 C-303.71240964 410.02901475 -304.12261324 408.68788172 -304.53417969 407.34716797 C-307.26323415 398.25137022 -309.25042598 389.07965813 -310.99121094 379.74560547 C-311.19359375 378.66239014 -311.39597656 377.5791748 -311.60449219 376.46313477 C-312.20884362 373.10419989 -312.76432734 369.74055964 -313.30371094 366.37060547 C-313.49352539 365.25878906 -313.68333984 364.14697266 -313.87890625 363.00146484 C-315.76732324 350.41427035 -315.67589234 337.77203955 -315.67431641 325.06689453 C-315.67865562 321.17027933 -315.71498081 317.27483136 -315.75292969 313.37841797 C-315.8308534 296.05778499 -314.33621555 279.42121632 -311.30371094 262.37060547 C-311.09600067 261.20105316 -311.09600067 261.20105316 -310.88409424 260.00787354 C-310.16731406 256.08221522 -309.33965983 252.19290296 -308.42871094 248.30810547 C-308.17460449 247.19999512 -307.92049805 246.09188477 -307.65869141 244.95019531 C-297.78166714 202.91654982 -278.85547403 163.73678258 -253.44189453 128.9543457 C-252.3612615 127.45068494 -251.33084488 125.91130638 -250.30371094 124.37060547 C-249.64371094 124.37060547 -248.98371094 124.37060547 -248.30371094 124.37060547 C-248.07039063 123.65517578 -247.83707031 122.93974609 -247.59667969 122.20263672 C-246.06648389 118.8509994 -244.14427115 116.73328097 -241.61621094 114.05810547 C-240.78734375 113.17509766 -239.95847656 112.29208984 -239.10449219 111.38232422 C-238.65702637 110.90722412 -238.20956055 110.43212402 -237.74853516 109.94262695 C-236.15269858 108.20629851 -234.61830395 106.42460118 -233.08105469 104.63623047 C-228.77774411 99.6972102 -224.18633312 95.06178275 -219.55371094 90.43310547 C-218.22907837 89.10859375 -218.22907837 89.10859375 -216.87768555 87.75732422 C-210.95453464 81.88589676 -204.96181198 76.40275314 -198.30371094 71.37060547 C-197.42585938 70.63841797 -196.54800781 69.90623047 -195.64355469 69.15185547 C-193.30371094 67.37060547 -193.30371094 67.37060547 -191.30371094 67.37060547 C-191.30371094 66.71060547 -191.30371094 66.05060547 -191.30371094 65.37060547 C-189.72167969 64.01708984 -189.72167969 64.01708984 -187.49121094 62.46435547 C-186.67064209 61.89007813 -185.85007324 61.31580078 -185.00463867 60.72412109 C-184.11333252 60.11246094 -183.22202637 59.50080078 -182.30371094 58.87060547 C-180.94451538 57.92991211 -180.94451538 57.92991211 -179.55786133 56.97021484 C-150.91685989 37.28125467 -119.81088669 21.90939774 -86.30371094 12.37060547 C-84.96212022 11.96190677 -83.62098718 11.55170317 -82.28027344 11.14013672 C-73.18447569 8.41108226 -64.0127636 6.42389042 -54.67871094 4.68310547 C-53.59549561 4.48072266 -52.51228027 4.27833984 -51.39624023 4.06982422 C-48.03730536 3.46547279 -44.67366511 2.90998907 -41.30371094 2.37060547 C-39.63598633 2.08588379 -39.63598633 2.08588379 -37.93457031 1.79541016 C-25.34737582 -0.09300684 -12.70514502 -0.00157593 0 0 Z " fill="#3AB449" transform="translate(315.3037109375,-0.37060546875)"/>
<path d="M0 0 C3.8966152 -0.00433922 7.79206317 -0.0406644 11.68847656 -0.07861328 C29.00910954 -0.15653699 45.64567821 1.33810085 62.69628906 4.37060547 C63.86584137 4.57831573 63.86584137 4.57831573 65.059021 4.79022217 C68.98467931 5.50700235 72.87399158 6.33465658 76.75878906 7.24560547 C77.86689941 7.49971191 78.97500977 7.75381836 80.11669922 8.015625 C122.15034472 17.89264927 161.33011195 36.81884238 196.11254883 62.23242188 C197.61620959 63.3130549 199.15558815 64.34347153 200.69628906 65.37060547 C200.69628906 66.03060547 200.69628906 66.69060547 200.69628906 67.37060547 C201.40140625 67.59361328 202.10652344 67.81662109 202.83300781 68.04638672 C206.31582687 69.65713114 208.77990121 71.92883804 211.50878906 74.55810547 C212.49344434 75.49017569 213.4791419 76.42114593 214.46582031 77.35107422 C215.23841187 78.08221436 215.23841187 78.08221436 216.02661133 78.828125 C217.82530926 80.48979681 219.66923075 82.08872113 221.52441406 83.68701172 C226.07764325 87.65027862 230.36848715 91.85121061 234.63378906 96.12060547 C235.42358154 96.91047852 236.21337402 97.70035156 237.02709961 98.51416016 C242.65785799 104.20015055 247.80596469 110.03337319 252.69628906 116.37060547 C253.71181892 117.56264408 254.73179288 118.75093129 255.75878906 119.93310547 C257.69628906 122.37060547 257.69628906 122.37060547 257.69628906 124.37060547 C258.35628906 124.37060547 259.01628906 124.37060547 259.69628906 124.37060547 C261.04980469 125.95263672 261.04980469 125.95263672 262.60253906 128.18310547 C263.17681641 129.00367432 263.75109375 129.82424316 264.34277344 130.66967773 C264.95443359 131.56098389 265.56609375 132.45229004 266.19628906 133.37060547 C266.82341797 134.27673584 267.45054687 135.18286621 268.09667969 136.11645508 C295.50254984 175.98303815 313.62735508 220.60535417 321.69628906 268.37060547 C321.82832733 269.12993378 321.9603656 269.88926208 322.09640503 270.67160034 C324.64008492 285.66829906 325.19429122 300.4507153 325.14233398 315.64477539 C325.13385277 319.40486044 325.16266971 323.16340443 325.19433594 326.92333984 C325.33922655 377.20714385 312.38180179 430.38028888 286.70019531 473.95654297 C285.00133266 476.85090156 283.42698352 479.76719517 281.88378906 482.74560547 C277.8166153 490.25510787 272.90412294 497.25727243 268.10009766 504.30761719 C266.86956563 506.11596425 265.65004634 507.93103475 264.43457031 509.74951172 C263.8196875 510.65572266 263.20480469 511.56193359 262.57128906 512.49560547 C262.05308594 513.26130859 261.53488281 514.02701172 261.00097656 514.81591797 C260.35515625 515.58548828 260.35515625 515.58548828 259.69628906 516.37060547 C259.03628906 516.37060547 258.37628906 516.37060547 257.69628906 516.37060547 C257.47328125 517.07572266 257.25027344 517.78083984 257.02050781 518.50732422 C255.40976339 521.99014328 253.1380565 524.45421762 250.50878906 527.18310547 C249.57671884 528.16776075 248.6457486 529.1534583 247.71582031 530.14013672 C246.98468018 530.91272827 246.98468018 530.91272827 246.23876953 531.70092773 C244.57709772 533.49962566 242.9781734 535.34354715 241.37988281 537.19873047 C237.41661591 541.75195966 233.21568392 546.04280355 228.94628906 550.30810547 C228.15641602 551.09789795 227.36654297 551.88769043 226.55273438 552.70141602 C220.86674398 558.33217439 215.03352134 563.48028109 208.69628906 568.37060547 C207.50425045 569.38613532 206.31596324 570.40610929 205.13378906 571.43310547 C202.69628906 573.37060547 202.69628906 573.37060547 200.69628906 573.37060547 C200.69628906 574.03060547 200.69628906 574.69060547 200.69628906 575.37060547 C199.11425781 576.72412109 199.11425781 576.72412109 196.88378906 578.27685547 C196.06313965 578.85121338 195.24249023 579.42557129 194.39697266 580.01733398 C193.50574707 580.62891357 192.61452148 581.24049316 191.69628906 581.87060547 C190.33818115 582.81021118 190.33818115 582.81021118 188.95263672 583.76879883 C168.51887663 597.8118493 168.51887663 597.8118493 157.34863281 603.10888672 C154.62779787 604.4031867 151.95282164 605.77629122 149.27392578 607.15478516 C105.46892087 629.50839319 57.01651684 641.22929893 7.83911133 640.89208984 C4.13003397 640.8705837 0.42288814 640.89209126 -3.28613281 640.91748047 C-53.00019451 640.97500023 -105.83477206 627.74884495 -148.88964844 602.37451172 C-151.78400703 600.67564907 -154.70030064 599.10129993 -157.67871094 597.55810547 C-165.18821333 593.4909317 -172.1903779 588.57843935 -179.24072266 583.77441406 C-181.04906972 582.54388204 -182.86414022 581.32436274 -184.68261719 580.10888672 C-185.58882812 579.49400391 -186.49503906 578.87912109 -187.42871094 578.24560547 C-188.57726562 577.46830078 -188.57726562 577.46830078 -189.74902344 576.67529297 C-190.51859375 576.02947266 -190.51859375 576.02947266 -191.30371094 575.37060547 C-191.30371094 574.71060547 -191.30371094 574.05060547 -191.30371094 573.37060547 C-192.36138672 573.03609375 -192.36138672 573.03609375 -193.44042969 572.69482422 C-196.92324875 571.0840798 -199.38732309 568.8123729 -202.11621094 566.18310547 C-203.10086622 565.25103525 -204.08656377 564.320065 -205.07324219 563.39013672 C-205.58830322 562.90270996 -206.10336426 562.4152832 -206.6340332 561.91308594 C-208.43273113 560.25141413 -210.27665262 558.65248981 -212.13183594 557.05419922 C-216.68506513 553.09093232 -220.97590902 548.89000033 -225.24121094 544.62060547 C-226.03100342 543.83073242 -226.8207959 543.04085937 -227.63452148 542.22705078 C-233.26527986 536.54106039 -238.41338656 530.70783774 -243.30371094 524.37060547 C-244.31924079 523.17856685 -245.33921475 521.99027965 -246.36621094 520.80810547 C-248.30371094 518.37060547 -248.30371094 518.37060547 -248.30371094 516.37060547 C-248.96371094 516.37060547 -249.62371094 516.37060547 -250.30371094 516.37060547 C-251.65722656 514.78857422 -251.65722656 514.78857422 -253.20996094 512.55810547 C-253.78423828 511.73753662 -254.35851562 510.91696777 -254.95019531 510.0715332 C-255.56185547 509.18022705 -256.17351562 508.2889209 -256.80371094 507.37060547 C-257.7444043 506.01140991 -257.7444043 506.01140991 -258.70410156 504.62475586 C-278.39306174 475.98375442 -293.76491867 444.87778122 -303.30371094 411.37060547 C-303.71240964 410.02901475 -304.12261324 408.68788172 -304.53417969 407.34716797 C-307.26323415 398.25137022 -309.25042598 389.07965813 -310.99121094 379.74560547 C-311.19359375 378.66239014 -311.39597656 377.5791748 -311.60449219 376.46313477 C-312.20884362 373.10419989 -312.76432734 369.74055964 -313.30371094 366.37060547 C-313.49352539 365.25878906 -313.68333984 364.14697266 -313.87890625 363.00146484 C-315.76732324 350.41427035 -315.67589234 337.77203955 -315.67431641 325.06689453 C-315.67865562 321.17027933 -315.71498081 317.27483136 -315.75292969 313.37841797 C-315.8308534 296.05778499 -314.33621555 279.42121632 -311.30371094 262.37060547 C-311.09600067 261.20105316 -311.09600067 261.20105316 -310.88409424 260.00787354 C-310.16731406 256.08221522 -309.33965983 252.19290296 -308.42871094 248.30810547 C-308.17460449 247.19999512 -307.92049805 246.09188477 -307.65869141 244.95019531 C-297.78166714 202.91654982 -278.85547403 163.73678258 -253.44189453 128.9543457 C-252.3612615 127.45068494 -251.33084488 125.91130638 -250.30371094 124.37060547 C-249.64371094 124.37060547 -248.98371094 124.37060547 -248.30371094 124.37060547 C-248.07039063 123.65517578 -247.83707031 122.93974609 -247.59667969 122.20263672 C-246.06648389 118.8509994 -244.14427115 116.73328097 -241.61621094 114.05810547 C-240.78734375 113.17509766 -239.95847656 112.29208984 -239.10449219 111.38232422 C-238.65702637 110.90722412 -238.20956055 110.43212402 -237.74853516 109.94262695 C-236.15269858 108.20629851 -234.61830395 106.42460118 -233.08105469 104.63623047 C-228.77774411 99.6972102 -224.18633312 95.06178275 -219.55371094 90.43310547 C-218.22907837 89.10859375 -218.22907837 89.10859375 -216.87768555 87.75732422 C-210.95453464 81.88589676 -204.96181198 76.40275314 -198.30371094 71.37060547 C-197.42585938 70.63841797 -196.54800781 69.90623047 -195.64355469 69.15185547 C-193.30371094 67.37060547 -193.30371094 67.37060547 -191.30371094 67.37060547 C-191.30371094 66.71060547 -191.30371094 66.05060547 -191.30371094 65.37060547 C-189.72167969 64.01708984 -189.72167969 64.01708984 -187.49121094 62.46435547 C-186.67064209 61.89007813 -185.85007324 61.31580078 -185.00463867 60.72412109 C-184.11333252 60.11246094 -183.22202637 59.50080078 -182.30371094 58.87060547 C-180.94451538 57.92991211 -180.94451538 57.92991211 -179.55786133 56.97021484 C-150.91685989 37.28125467 -119.81088669 21.90939774 -86.30371094 12.37060547 C-84.96212022 11.96190677 -83.62098718 11.55170317 -82.28027344 11.14013672 C-73.18447569 8.41108226 -64.0127636 6.42389042 -54.67871094 4.68310547 C-53.59549561 4.48072266 -52.51228027 4.27833984 -51.39624023 4.06982422 C-48.03730536 3.46547279 -44.67366511 2.90998907 -41.30371094 2.37060547 C-39.63598633 2.08588379 -39.63598633 2.08588379 -37.93457031 1.79541016 C-25.34737582 -0.09300684 -12.70514502 -0.00157593 0 0 Z M-210.70556641 120.91113281 C-216.48535398 127.16820817 -221.78213257 133.78901698 -226.93310547 140.56738281 C-227.83851811 141.75857942 -228.74827981 142.9464843 -229.66259766 144.13085938 C-256.94042114 179.52228826 -274.27651386 220.82273807 -283.30371094 264.37060547 C-283.53767578 265.46356934 -283.53767578 265.46356934 -283.77636719 266.57861328 C-298.98569029 338.48034568 -281.62264478 418.20857015 -241.84033203 479.36254883 C-231.09689581 495.58694686 -218.85983845 510.50973605 -205.61621094 524.74560547 C-205.01075439 525.39956299 -204.40529785 526.05352051 -203.78149414 526.72729492 C-200.07282293 530.67212322 -196.20128688 534.30468855 -192.09204102 537.82958984 C-189.99697189 539.6349245 -188.00041708 541.53313772 -185.99121094 543.43310547 C-159.28367198 567.41289273 -126.00545298 585.50100424 -92.30371094 597.37060547 C-91.48209473 597.66016113 -90.66047852 597.9497168 -89.81396484 598.24804688 C-73.0401427 604.05344998 -55.80042702 607.75683462 -38.30371094 610.62060547 C-36.81943604 610.86544678 -36.81943604 610.86544678 -35.30517578 611.11523438 C-5.74403851 615.7269486 24.29455253 614.05599892 53.69628906 609.37060547 C55.29996338 609.12963135 55.29996338 609.12963135 56.93603516 608.88378906 C119.14043376 599.30393366 183.41515152 564.06209042 223.69628906 515.37060547 C224.56125 514.39349609 225.42621094 513.41638672 226.31738281 512.40966797 C261.46259748 472.65897674 285.419779 421.77778859 293.69628906 369.37060547 C293.88803711 368.24750977 294.07978516 367.12441406 294.27734375 365.96728516 C299.37238719 335.82091885 299.44125618 304.8155602 294.57128906 274.62060547 C294.4643573 273.95684906 294.35742554 273.29309265 294.24725342 272.60922241 C285.26516553 217.57734765 260.17153699 163.53159597 221.35644531 123.14794922 C218.89047184 120.57334255 216.53897328 117.93193925 214.19628906 115.24560547 C195.65478212 94.64761655 172.10628846 78.00388132 147.98242188 64.63916016 C145.8442561 63.45271106 143.71938457 62.24507294 141.59472656 61.03466797 C116.60950536 47.05571027 88.65360812 38.06098514 60.69628906 32.37060547 C59.97054688 32.2160791 59.24480469 32.06155273 58.49707031 31.90234375 C-34.65784998 12.18455229 -130.43869761 45.97853465 -210.70556641 120.91113281 Z " fill="#050807" transform="translate(315.3037109375,-0.37060546875)"/>
</svg>
