<?xml version="1.0" encoding="UTF-8"?>
<svg version="1.1" xmlns="http://www.w3.org/2000/svg" width="640" height="640" class="scale-[0.5] mx-auto">
<path d="M0 0 C1.01479431 0.00215515 2.02958862 0.0043103 3.07513428 0.00653076 C18.06340969 0.05758055 32.61456098 0.50257637 47.375 3.3125 C48.43074219 3.50054199 49.48648437 3.68858398 50.57421875 3.88232422 C76.52730701 8.57493526 101.74253586 16.54633671 125.375 28.3125 C126.56609375 28.8998291 126.56609375 28.8998291 127.78125 29.49902344 C166.65036628 48.82457364 201.2874286 77.63780966 227.375 112.3125 C227.7963623 112.87163086 228.21772461 113.43076172 228.65185547 114.00683594 C255.96413249 150.54407182 273.39305994 192.50121398 281.375 237.3125 C281.54016113 238.18696777 281.70532227 239.06143555 281.87548828 239.96240234 C287.20129458 269.06983388 286.84080271 302.26197377 281.375 331.3125 C281.12556641 332.73369141 281.12556641 332.73369141 280.87109375 334.18359375 C273.4614464 375.9520503 256.84473878 414.74669418 232.375 449.3125 C231.94058594 449.92689941 231.50617187 450.54129883 231.05859375 451.17431641 C223.07717966 462.35290586 214.03148582 472.64265704 204.6875 482.6875 C204.08212402 483.34137695 203.47674805 483.99525391 202.85302734 484.66894531 C198.60184329 489.19079538 194.09605944 493.28857125 189.375 497.3125 C187.89386719 498.61574219 187.89386719 498.61574219 186.3828125 499.9453125 C171.49977701 512.81167652 155.44707435 523.57166619 138.375 533.3125 C137.33472656 533.91505615 137.33472656 533.91505615 136.2734375 534.52978516 C108.95253671 550.24599941 78.26548181 559.69844486 47.375 565.3125 C46.47458984 565.47766113 45.57417969 565.64282227 44.64648438 565.81298828 C-9.25122754 575.15332653 -65.87021233 565.97821418 -115.625 544.3125 C-116.37346191 543.99055664 -117.12192383 543.66861328 -117.89306641 543.33691406 C-142.30519302 532.7424435 -164.69381973 517.86425565 -184.625 500.3125 C-185.3365625 499.70019531 -186.048125 499.08789062 -186.78125 498.45703125 C-188.74696312 496.76120087 -190.68883493 495.04199577 -192.625 493.3125 C-193.56085938 492.48105469 -194.49671875 491.64960937 -195.4609375 490.79296875 C-201.95045236 484.97513935 -207.93772808 478.93130784 -213.625 472.3125 C-214.47578125 471.34957031 -215.3265625 470.38664062 -216.203125 469.39453125 C-250.23585446 430.51138572 -271.61118995 381.91679137 -280.625 331.3125 C-280.79016113 330.43803223 -280.95532227 329.56356445 -281.12548828 328.66259766 C-286.45129458 299.55516612 -286.09080271 266.36302623 -280.625 237.3125 C-280.45871094 236.36503906 -280.29242188 235.41757812 -280.12109375 234.44140625 C-270.79877605 181.89115611 -246.84971099 134.17951429 -211.625 94.3125 C-211.15626465 93.78060059 -210.6875293 93.24870117 -210.20458984 92.70068359 C-190.1185765 70.05888649 -166.04397163 51.07412266 -139.625 36.3125 C-138.40031006 35.62438232 -138.40031006 35.62438232 -137.15087891 34.92236328 C-94.93419976 11.44112583 -48.17671741 -0.18452463 0 0 Z " fill="#FDFEFD" transform="translate(319.625,28.6875)"/>
<path d="M0 0 C1.01479431 0.00215515 2.02958862 0.0043103 3.07513428 0.00653076 C18.06340969 0.05758055 32.61456098 0.50257637 47.375 3.3125 C48.43074219 3.50054199 49.48648437 3.68858398 50.57421875 3.88232422 C76.52730701 8.57493526 101.74253586 16.54633671 125.375 28.3125 C126.56609375 28.8998291 126.56609375 28.8998291 127.78125 29.49902344 C166.65036628 48.82457364 201.2874286 77.63780966 227.375 112.3125 C227.7963623 112.87163086 228.21772461 113.43076172 228.65185547 114.00683594 C255.96413249 150.54407182 273.39305994 192.50121398 281.375 237.3125 C281.54016113 238.18696777 281.70532227 239.06143555 281.87548828 239.96240234 C287.20129458 269.06983388 286.84080271 302.26197377 281.375 331.3125 C281.12556641 332.73369141 281.12556641 332.73369141 280.87109375 334.18359375 C273.4614464 375.9520503 256.84473878 414.74669418 232.375 449.3125 C231.94058594 449.92689941 231.50617187 450.54129883 231.05859375 451.17431641 C223.07717966 462.35290586 214.03148582 472.64265704 204.6875 482.6875 C204.08212402 483.34137695 203.47674805 483.99525391 202.85302734 484.66894531 C198.60184329 489.19079538 194.09605944 493.28857125 189.375 497.3125 C187.89386719 498.61574219 187.89386719 498.61574219 186.3828125 499.9453125 C171.49977701 512.81167652 155.44707435 523.57166619 138.375 533.3125 C137.33472656 533.91505615 137.33472656 533.91505615 136.2734375 534.52978516 C108.95253671 550.24599941 78.26548181 559.69844486 47.375 565.3125 C46.47458984 565.47766113 45.57417969 565.64282227 44.64648438 565.81298828 C-9.25122754 575.15332653 -65.87021233 565.97821418 -115.625 544.3125 C-116.37346191 543.99055664 -117.12192383 543.66861328 -117.89306641 543.33691406 C-142.30519302 532.7424435 -164.69381973 517.86425565 -184.625 500.3125 C-185.3365625 499.70019531 -186.048125 499.08789062 -186.78125 498.45703125 C-188.74696312 496.76120087 -190.68883493 495.04199577 -192.625 493.3125 C-193.56085938 492.48105469 -194.49671875 491.64960937 -195.4609375 490.79296875 C-201.95045236 484.97513935 -207.93772808 478.93130784 -213.625 472.3125 C-214.47578125 471.34957031 -215.3265625 470.38664062 -216.203125 469.39453125 C-250.23585446 430.51138572 -271.61118995 381.91679137 -280.625 331.3125 C-280.79016113 330.43803223 -280.95532227 329.56356445 -281.12548828 328.66259766 C-286.45129458 299.55516612 -286.09080271 266.36302623 -280.625 237.3125 C-280.45871094 236.36503906 -280.29242188 235.41757812 -280.12109375 234.44140625 C-270.79877605 181.89115611 -246.84971099 134.17951429 -211.625 94.3125 C-211.15626465 93.78060059 -210.6875293 93.24870117 -210.20458984 92.70068359 C-190.1185765 70.05888649 -166.04397163 51.07412266 -139.625 36.3125 C-138.40031006 35.62438232 -138.40031006 35.62438232 -137.15087891 34.92236328 C-94.93419976 11.44112583 -48.17671741 -0.18452463 0 0 Z M-49.625 41.3125 C-50.53991211 41.49973633 -51.45482422 41.68697266 -52.39746094 41.87988281 C-103.00018835 52.28065639 -155.46140752 81.42888682 -187.5234375 122.6171875 C-189.78248873 125.51448369 -192.16499192 128.27901538 -194.5625 131.0625 C-209.2543182 148.7063064 -221.55809858 169.85678304 -229.625 191.3125 C-230.16662649 192.70574479 -230.70829719 194.09897239 -231.25 195.4921875 C-240.51784291 219.63162642 -246.76250782 245.27357095 -246.79296875 271.2265625 C-246.79629715 272.2398764 -246.79962555 273.25319031 -246.80305481 274.29721069 C-246.80808702 276.43006949 -246.81046429 278.56293606 -246.81030273 280.69580078 C-246.81248001 283.90801432 -246.83065063 287.11987866 -246.84960938 290.33203125 C-246.89601145 306.58305953 -245.49975546 321.73822818 -241.875 337.625 C-241.61332031 338.7814502 -241.35164063 339.93790039 -241.08203125 341.12939453 C-237.8522298 355.06660591 -233.97683393 368.49527177 -227.58544922 381.33691406 C-226.42436807 383.72518774 -225.32465405 386.13858832 -224.22265625 388.5546875 C-216.09000381 406.23235656 -206.59883701 422.44151424 -194.16259766 437.44287109 C-192.98713742 438.87216205 -191.82838458 440.31520895 -190.67724609 441.76416016 C-185.04102351 448.80348772 -179.01209621 455.32676704 -172.625 461.6875 C-171.87449371 462.43719055 -171.87449371 462.43719055 -171.10882568 463.20202637 C-162.52568586 471.74261642 -153.63045823 479.47087094 -143.625 486.3125 C-142.94840332 486.78010742 -142.27180664 487.24771484 -141.57470703 487.72949219 C-127.48700451 497.38260785 -112.52022285 506.61688286 -96.37109375 512.3359375 C-93.84160664 513.23547061 -91.43709527 514.25282257 -89 515.375 C-80.08555505 519.38891825 -71.00094257 522.11446515 -61.5078125 524.375 C-59.24345124 524.92172707 -56.98426837 525.49308561 -54.7421875 526.125 C-8.50829512 539.06509816 54.505386 534.40108233 97.26708984 512.37719727 C99.49083873 511.25399031 101.74153989 510.21734798 104.01171875 509.19140625 C122.11582955 500.93489966 138.99757546 490.97746106 154.375 478.3125 C155.36757813 477.52230469 156.36015625 476.73210937 157.3828125 475.91796875 C171.77053379 464.29187169 185.22512977 450.9564463 196.13330078 435.99853516 C197.41325055 434.26056168 198.73123438 432.55744373 200.05859375 430.85546875 C220.79863402 403.92954374 235.13125354 371.2493889 242.5 338.1875 C242.75136719 337.11757813 243.00273438 336.04765625 243.26171875 334.9453125 C246.99044884 318.31244322 247.72753154 301.67162442 247.69067383 284.67749023 C247.68749201 281.61731986 247.71116763 278.5581004 247.73632812 275.49804688 C247.77224575 264.00736064 246.86057245 253.5270574 244.375 242.3125 C244.0632119 240.21122063 243.76820953 238.10728509 243.5 236 C236.73376422 191.58293609 213.38389245 151.74519447 184.375 118.3125 C183.57835937 117.39082031 182.78171875 116.46914062 181.9609375 115.51953125 C178.01823905 111.04165552 173.99749619 106.90159213 169.4296875 103.0625 C168.02857578 101.8691577 166.65931673 100.63763517 165.3203125 99.375 C145.02976655 80.27801558 120.64270713 66.63440434 95.375 55.3125 C94.67036621 54.99555176 93.96573242 54.67860352 93.23974609 54.35205078 C79.01620548 48.05424552 63.86674856 44.0133388 48.625 41.0625 C47.84753418 40.91151855 47.07006836 40.76053711 46.26904297 40.60498047 C30.65964038 37.76253742 15.27832752 36.9060777 -0.5625 36.9375 C-2.04459961 36.93781723 -2.04459961 36.93781723 -3.55664062 36.93814087 C-19.27035734 36.97162901 -34.23173343 37.94127013 -49.625 41.3125 Z " fill="#19A254" transform="translate(319.625,28.6875)"/>
<path d="M0 0 C3.8359815 7.15228813 4.46474888 15.48572164 5.4375 23.4375 C5.56165283 24.43652344 5.68580566 25.43554688 5.8137207 26.46484375 C7.58762586 41.27000076 8.76492853 56.14207697 10 71 C10.62310059 70.0500415 11.24620117 69.10008301 11.88818359 68.12133789 C17.4406629 59.91458091 25.71746601 55.094178 35 52 C47.40125575 50.99270759 57.92158876 52.8217924 67.671875 60.828125 C68.32929687 61.40820312 68.32929687 61.40820312 69 62 C58.06853947 74.02460658 45.13292953 79.19651233 29.31933594 80.92480469 C22.36230893 81.69614353 15.75277582 83.16416511 9 85 C9.06058594 86.05348633 9.12117187 87.10697266 9.18359375 88.19238281 C10.5802342 112.82016074 11.29497384 137.33338 11 162 C13.76869719 160.6156514 13.97692238 158.66757757 15.09814453 155.92089844 C16.56770371 152.79082491 18.69729246 150.2247716 20.9375 147.625 C21.41912598 147.06482178 21.90075195 146.50464355 22.39697266 145.92749023 C35.39196473 131.28663356 53.51122684 123.11186617 72.98535156 121.8737793 C93.36156171 121.11794955 112.00918668 126.22434449 131 133.1875 C131.68900391 133.43733643 132.37800781 133.68717285 133.08789062 133.94458008 C137.8784766 135.75695319 137.8784766 135.75695319 139 138 C132.63838521 148.68751285 122.85970931 152.9520933 112 158 C111.07960938 158.4340918 111.07960938 158.4340918 110.140625 158.87695312 C101.28524683 163.02056481 92.48697007 165.77728071 83 168 C82.39285156 168.17805176 81.78570312 168.35610352 81.16015625 168.53955078 C72.4667733 170.88701592 63.23226696 170.35842659 54.2890625 170.38085938 C39.39698969 170.44353645 26.81219702 173.00684367 15.35596848 183.38281631 C11.3085078 188.20998413 12.33437892 195.17074263 12.6328125 201.0703125 C12.65897637 202.60292447 12.67888032 204.13565481 12.69284058 205.66842651 C12.74591104 209.67313919 12.88300991 213.67056302 13.03869629 217.67242432 C13.18280118 221.76759194 13.24603637 225.86395699 13.31640625 229.9609375 C13.46585975 237.97727757 13.70424984 245.98772862 14 254 C14.66 254 15.32 254 16 254 C16.08121094 253.30390625 16.16242188 252.6078125 16.24609375 251.890625 C19.78825659 238.30927526 34.45357394 226.13498429 45 218 C45.85335938 217.319375 46.70671875 216.63875 47.5859375 215.9375 C55.16622128 210.11001457 63.36018259 205.99267856 72 202 C72.87398438 201.5875 73.74796875 201.175 74.6484375 200.75 C82.39084717 197.36765038 90.75829393 195.71742312 99 194 C99.91652344 193.80277344 100.83304687 193.60554687 101.77734375 193.40234375 C126.65671571 190.29619186 151.02750515 194.56395128 172.9375 206.625 C173.95855835 207.1830835 173.95855835 207.1830835 175.00024414 207.75244141 C178.39128971 209.71194431 180.76165087 211.17237541 182 215 C165.30444449 234.42337265 144.44122207 246.24295021 119.98461914 253.39038086 C117.89776671 254.03140319 115.85094517 254.7563184 113.79296875 255.484375 C108.15462621 257.37403037 102.40212238 258.48231171 96.5625 259.5625 C94.80208374 259.89109009 94.80208374 259.89109009 93.00610352 260.22631836 C84.82542812 261.67838961 76.72561381 262.54315 68.4375 263.0625 C51.59300071 264.14502877 37.12341917 267.41188165 22 275 C21.11750076 275.39206131 20.23500153 275.78412262 19.32575989 276.18806458 C16.6974484 277.82974577 16.6974484 277.82974577 16.39872742 280.98027039 C16.40983047 282.19938614 16.42093353 283.41850189 16.43237305 284.67456055 C16.43164291 285.347995 16.43091278 286.02142944 16.43016052 286.715271 C16.43364248 288.93990816 16.4725257 291.1624478 16.51171875 293.38671875 C16.52104488 294.92941646 16.52816194 296.47212899 16.53315735 298.0148468 C16.55224341 302.07423834 16.60135663 306.13273456 16.65667725 310.19177246 C16.70783592 314.3341053 16.73066407 318.4765829 16.75585938 322.61914062 C16.80947508 330.74650451 16.89480581 338.87314087 17 347 C17.66 347 18.32 347 19 347 C19.25523437 345.83210938 19.51046875 344.66421875 19.7734375 343.4609375 C20.85228515 339.16633032 22.5035043 335.49589795 24.625 331.625 C24.97763916 330.9750708 25.33027832 330.3251416 25.69360352 329.65551758 C28.89069915 323.92090922 32.66151803 318.92745371 37 314 C37.66386719 313.19304687 38.32773437 312.38609375 39.01171875 311.5546875 C56.88930627 290.4716915 82.74665806 278.68529039 110 276 C126.1839282 274.87791431 141.63182377 277.49474724 157.3125 281.3125 C158.49303955 281.59617432 159.6735791 281.87984863 160.88989258 282.17211914 C168.36040642 284.06193283 175.11021462 286.56212611 182 290 C183.16535278 290.56835571 183.16535278 290.56835571 184.35424805 291.14819336 C186.47294428 292.18855173 188.58164694 293.24642453 190.6875 294.3125 C191.40099609 294.67150391 192.11449219 295.03050781 192.84960938 295.40039062 C194.56736189 296.26503115 196.28382898 297.13222469 198 298 C196.78586052 301.92742771 195.40569855 305.39913423 193.3125 308.9375 C192.85488281 309.73027344 192.39726562 310.52304687 191.92578125 311.33984375 C186.60155878 318.69439852 180.21194804 323.04807004 172.3125 327.375 C170.80478027 328.21309204 170.80478027 328.21309204 169.26660156 329.06811523 C157.08987344 335.73737162 144.48933338 341.68171108 131.33984375 346.1796875 C128.98863881 347.00398306 126.72727659 347.9567188 124.4375 348.9375 C116.8624938 352.0061628 108.88927477 353.91871342 101 356 C99.8759375 356.30164063 98.751875 356.60328125 97.59375 356.9140625 C87.62601057 359.51092093 77.60027229 361.00381059 67.36035156 362.0378418 C52.1191157 363.5960404 40.24465605 366.20221593 27.09375 374.1953125 C24.42780694 375.75044595 21.89436334 376.95241327 19 378 C19.03029297 378.54897949 19.06058594 379.09795898 19.09179688 379.66357422 C19.76711064 392.38284917 20.1677759 405.11173064 20.28710938 417.84820557 C20.30396673 419.35981622 20.32783449 420.87136578 20.35888672 422.38275146 C20.40100434 424.52891632 20.4165746 426.67378522 20.42578125 428.8203125 C20.44765503 430.68067139 20.44765503 430.68067139 20.4699707 432.57861328 C19.90892578 436.66302032 18.55306771 438.80305358 16 442 C8.9469955 446.702003 0.554454 447.10409636 -7.5546875 445.4921875 C-12.60320093 444.05211973 -15.20410489 442.64206433 -18 438 C-18.54456236 434.1573846 -18.41540119 430.36088974 -18.30859375 426.48828125 C-18.29219345 425.34418289 -18.27579315 424.20008453 -18.25889587 423.02131653 C-18.19749608 419.3465316 -18.10299472 415.67384026 -18 412 C-17.96948547 410.8122699 -17.93897095 409.62453979 -17.90753174 408.40081787 C-17.71689418 401.20766546 -17.47372825 394.01736076 -17.20043945 386.8269043 C-17.06087229 383.14455442 -16.92935412 379.4619773 -16.79882812 375.77929688 C-16.71140214 373.3880038 -16.6235281 370.99672706 -16.53515625 368.60546875 C-16.49656998 367.52919724 -16.4579837 366.45292572 -16.41822815 365.34403992 C-16.13031322 357.87881957 -15.62004642 350.44476859 -15 343 C-15.78190201 342.69041351 -16.56380402 342.38082703 -17.36940002 342.06185913 C-19.69490931 341.12315188 -21.91182353 340.09934183 -24.15234375 338.9765625 C-36.955951 332.65657535 -48.38356228 327.95402513 -62.85131836 327.42285156 C-118.94828651 325.02390704 -169.20067645 300.73613006 -207.6328125 260.28125 C-209.0625 258.6875 -209.0625 258.6875 -211 256 C-209.78179384 252.34538152 -209.01143054 252.17119384 -205.6953125 250.44140625 C-204.80070312 249.97283203 -203.90609375 249.50425781 -202.984375 249.02148438 C-202.04078125 248.54001953 -201.0971875 248.05855469 -200.125 247.5625 C-198.76761719 246.84610352 -198.76761719 246.84610352 -197.3828125 246.11523438 C-165.72653897 229.72501889 -132.47810727 229.79457279 -98.80273438 240.0402832 C-84.2786436 244.7736388 -69.37327823 250.96586805 -57 260 C-56.20078125 260.57878906 -55.4015625 261.15757812 -54.578125 261.75390625 C-43.2914743 270.36267326 -33.72954894 280.86570739 -25 292 C-24.25492188 292.91265625 -23.50984375 293.8253125 -22.7421875 294.765625 C-19.76272631 298.41786774 -17.05049734 301.74684827 -15 306 C-14.97716446 305.40770096 -14.95432892 304.81540192 -14.93080139 304.20515442 C-14.68847727 297.92473006 -14.44481254 291.64435863 -14.20043945 285.36401367 C-14.10994059 283.03394832 -14.01976051 280.70387057 -13.92993164 278.3737793 C-13.35929218 263.57859654 -12.73470242 248.78798745 -12 234 C-12.93086426 233.85667236 -13.86172852 233.71334473 -14.82080078 233.56567383 C-18.11468195 232.97959468 -20.79461666 231.9796608 -23.875 230.6875 C-37.20133478 225.43334718 -51.40609427 223.01683227 -65.43725586 220.39013672 C-68.19553467 219.87349506 -70.95232265 219.3494135 -73.70898438 218.82421875 C-82.22073286 217.21136738 -90.72677474 215.69610495 -99.29614258 214.41699219 C-131.53250788 209.44546064 -162.23764173 188.68045981 -186 167 C-185.9453125 165.25 -185.9453125 165.25 -185 163 C-182.62125785 161.45048858 -180.41889871 160.21309006 -177.875 159 C-177.15795898 158.65114746 -176.44091797 158.30229492 -175.70214844 157.94287109 C-168.68370571 154.64922279 -161.60723661 152.54283313 -154 151 C-153.15574463 150.82267334 -152.31148926 150.64534668 -151.44165039 150.46264648 C-143.61738711 148.96730759 -135.95895302 148.72251328 -128.02709961 148.79418945 C-125.93656183 148.81250822 -123.84646944 148.81469773 -121.75585938 148.81445312 C-82.57859703 148.90859372 -54.93766356 160.95394022 -27.4128418 188.39501953 C-23.22673471 192.64845799 -19.44663452 197.13886847 -15.7421875 201.8203125 C-14.03452708 204.03938365 -14.03452708 204.03938365 -12 206 C-11.34 189.83 -10.68 173.66 -10 157 C-12.97 156.01 -12.97 156.01 -16 155 C-17.39516525 154.19063104 -18.77945314 153.36222736 -20.15234375 152.515625 C-28.00488531 148.50619235 -36.92129087 148.4693648 -45.5625 147.75 C-48.19604298 147.51357939 -50.82897771 147.27156472 -53.46165466 147.0256958 C-55.09033364 146.87540832 -56.71962662 146.73160621 -58.34950256 146.59490967 C-63.89096365 146.10903635 -63.89096365 146.10903635 -65 145 C-66.61953551 144.69820464 -68.24618575 144.43435995 -69.875 144.1875 C-85.71039484 141.37503605 -102.99992441 133.9207381 -112.72265625 120.6484375 C-113.88858956 118.81022509 -114.9576383 116.91099645 -116 115 C-109.12722408 110.05160134 -102.19649882 107.95240422 -94 106 C-93.04222656 105.77183594 -92.08445312 105.54367188 -91.09765625 105.30859375 C-70.91436019 101.26061151 -49.01949666 103.76765417 -31.375 114.6875 C-21.86927481 121.43794253 -16.31071338 129.08316469 -10 139 C-9.01 117.88 -8.02 96.76 -7 75 C-9.97 74.505 -9.97 74.505 -13 74 C-14.134375 73.505 -15.26875 73.01 -16.4375 72.5 C-20.40320988 70.91219662 -24.05974784 70.73933858 -28.3125 70.5625 C-42.05369293 69.85292499 -52.12122959 64.14572591 -61.78515625 54.61328125 C-63 53 -63 53 -63 50 C-48.89011181 44.19715736 -36.59810791 41.04077788 -21.66015625 46.73046875 C-15.56122557 49.64111849 -10.910327 53.46037009 -7 59 C-6.17299626 56.04283512 -5.8000488 53.25721712 -5.60546875 50.1953125 C-5.5389209 49.23294678 -5.47237305 48.27058105 -5.40380859 47.27905273 C-5.29673584 45.71779663 -5.29673584 45.71779663 -5.1875 44.125 C-4.10227375 29.3263597 -2.08965754 14.68387451 0 0 Z " fill="#06A15A" transform="translate(318,77)"/>
<path d="M0 0 C0.99 0.33 1.98 0.66 3 1 C4.17578125 3.43359375 4.17578125 3.43359375 5.3125 6.4375 C7.11914115 10.86987282 7.11914115 10.86987282 10.875 13.625 C11.90625 13.74875 12.9375 13.8725 14 14 C15.27875 14.20625 16.5575 14.4125 17.875 14.625 C18.90625 14.74875 19.9375 14.8725 21 15 C20.67 10.38 20.34 5.76 20 1 C20.99 1 21.98 1 23 1 C23.49886719 2.18078125 23.99773437 3.3615625 24.51171875 4.578125 C28.27276766 13.78091473 28.27276766 13.78091473 35.4921875 20.01953125 C39.41181536 21.24673539 39.41181536 21.24673539 45 22 C44.67 16.72 44.34 11.44 44 6 C45.32 6.33 46.64 6.66 48 7 C49.01391602 8.79418945 49.01391602 8.79418945 49.75390625 11.11328125 C50.05232422 11.94923828 50.35074219 12.78519531 50.65820312 13.64648438 C51.25472391 15.40512556 51.83077742 17.17086031 52.38476562 18.94335938 C53.3862707 21.92167587 53.3862707 21.92167587 56 26 C59.63 27.32 63.26 28.64 67 30 C67 22.08 67 14.16 67 6 C68.32 6 69.64 6 71 6 C71.12507935 7.21731812 71.12507935 7.21731812 71.25268555 8.45922852 C72.04297335 24.3127028 72.04297335 24.3127028 79.2265625 37.41796875 C82.29934243 39.24371321 85.49620243 40.28179845 89 41 C88.99476318 40.44538086 88.98952637 39.89076172 88.98413086 39.31933594 C88.96328969 36.79623557 88.95031718 34.27315336 88.9375 31.75 C88.92912109 30.87730469 88.92074219 30.00460937 88.91210938 29.10546875 C88.90888672 28.26113281 88.90566406 27.41679687 88.90234375 26.546875 C88.89710693 25.77182617 88.89187012 24.99677734 88.88647461 24.19824219 C88.99963002 22.00716402 89.39447552 20.10362139 90 18 C90.99 18 91.98 18 93 18 C94.81847768 27.32190498 95.54362211 36.53616378 96 46 C96.66386719 46.22042969 97.32773437 46.44085938 98.01171875 46.66796875 C101.96813614 48.43154827 105.2969513 50.79973137 108.8125 53.3125 C109.54863525 53.83505371 110.28477051 54.35760742 111.04321289 54.89599609 C119.63302605 61.06646565 128.50569859 67.50569859 136 75 C136.1953125 77.3828125 136.1953125 77.3828125 136.125 80.125 C136.10695313 81.03507812 136.08890625 81.94515625 136.0703125 82.8828125 C136.04710937 83.58148438 136.02390625 84.28015625 136 85 C132.29777149 82.72170553 129.10979153 80.25860639 125.90234375 77.3203125 C121.135926 73.04921409 116.13824357 69.18520523 111 65.375 C109.74316406 64.43140625 109.74316406 64.43140625 108.4609375 63.46875 C106.79052378 62.22240416 105.10947763 60.99017216 103.41772461 59.77294922 C101.86211641 58.63220129 100.34007434 57.44340709 98.86547852 56.19970703 C92.19680222 50.93045812 86.14335037 51.46190098 77.9375 52.125 C76.69033203 52.19976562 75.44316406 52.27453125 74.15820312 52.3515625 C71.10237127 52.53889319 68.05171264 52.75565884 65 53 C65.33 52.01 65.66 51.02 66 50 C68.90625 48.8671875 68.90625 48.8671875 72.5 47.875 C76.55920659 47.03111604 76.55920659 47.03111604 80 45 C75.5185976 41.53052717 71.42747552 41.52431608 66 42 C62.48188774 42.48086347 58.97417004 43.01361873 55.46484375 43.5546875 C50.95044988 44.13489145 46.54117754 44.18834377 42 44 C42 43.34 42 42.68 42 42 C48.29981221 39.86902904 54.58260813 37.75019778 61 36 C55.42637036 32.33313839 51.2644777 32.75529332 45 34 C41.14736162 34.9901081 37.33202003 36.0383916 33.515625 37.16015625 C30.18812569 37.95505886 27.40243043 38.161772 24 38 C25 35 25 35 26.58227539 34.0168457 C27.24735107 33.73929443 27.91242676 33.46174316 28.59765625 33.17578125 C29.31630859 32.86962891 30.03496094 32.56347656 30.77539062 32.24804688 C31.90750977 31.78495117 31.90750977 31.78495117 33.0625 31.3125 C33.82111328 30.99216797 34.57972656 30.67183594 35.36132812 30.34179688 C37.23682542 29.55149298 39.1179123 28.77447803 41 28 C34.74358423 25.255958 30.70119892 24.24376473 24.03417969 26.734375 C21.95598674 27.60898514 19.91497068 28.53978696 17.875 29.5 C9.58682349 33.35748776 9.58682349 33.35748776 5 34 C5 33.01 5 32.02 5 31 C7.29943043 29.13757867 9.55786137 27.46495095 12 25.8125 C12.66773438 25.34908203 13.33546875 24.88566406 14.0234375 24.40820312 C15.67609867 23.26314503 17.33727669 22.13039735 19 21 C13.47904481 19.08000301 9.06753494 17.59661462 3.47265625 20.15625 C1.74085852 21.07173779 0.02571938 22.01970008 -1.66796875 23.00390625 C-4 24 -4 24 -8 23 C-5.69 21.02 -3.38 19.04 -1 17 C-12.61901414 14.59606604 -24.18778333 13.09134611 -36 12 C-35.67 11.01 -35.34 10.02 -35 9 C-22.87836856 8.66483968 -11.04475551 9.70411852 1 11 C0.505 5.555 0.505 5.555 0 0 Z " fill="#EFF9F4" transform="translate(167,326)"/>
<path d="M0 0 C0.33 0 0.66 0 1 0 C1.08196118 4.18001995 0.89445704 7.92212105 0 12 C0.69480469 11.855625 1.38960938 11.71125 2.10546875 11.5625 C12.73432045 9.62263353 23.23166189 9.80146306 34 10 C33.67 10.99 33.34 11.98 33 13 C32.34515625 13.0501123 31.6903125 13.10022461 31.015625 13.15185547 C28.0098235 13.38588768 25.00495665 13.63036805 22 13.875 C20.97003906 13.95363281 19.94007813 14.03226562 18.87890625 14.11328125 C13.04317114 14.59649499 7.63232917 15.38882892 2 17 C2.99 17.78375 3.98 18.5675 5 19.375 C6.485 20.674375 6.485 20.674375 8 22 C8 22.66 8 23.32 8 24 C4.1682859 23.62617423 2.06123969 23.04082646 -1.1875 20.875 C-5.87774163 17.93831718 -10.78111616 19.13175893 -16 20 C-12.0299782 24.21814817 -7.69159716 27.61227103 -3 31 C-3.33 31.99 -3.66 32.98 -4 34 C-9.40045998 32.36324521 -14.30236868 29.96037385 -19.2578125 27.30273438 C-24.28844457 24.80300914 -27.50547286 24.76806918 -33 26 C-33.99 26.66 -34.98 27.32 -36 28 C-30.72 30.64 -25.44 33.28 -20 36 C-20.495 36.99 -20.495 36.99 -21 38 C-27.94533157 36.53782493 -34.73494701 34.6903395 -41.546875 32.70703125 C-46.51514209 31.68977294 -49.63387791 32.57437662 -54 35 C-48.02716478 37.41116504 -42.04027175 39.76286232 -36 42 C-36 42.33 -36 42.66 -36 43 C-43.28076483 43.23236484 -50.05848555 42.85616815 -57.2109375 41.4375 C-60.2907525 40.95439176 -62.89005322 40.67177343 -66 41 C-67.65 42.32 -69.3 43.64 -71 45 C-66.38 46.65 -61.76 48.3 -57 50 C-57 50.66 -57 51.32 -57 52 C-58.91657797 52.02782129 -60.8332848 52.04675234 -62.75 52.0625 C-63.94238281 52.07796875 -65.13476562 52.0934375 -66.36328125 52.109375 C-70 52 -70 52 -73.04296875 51.390625 C-78.09893145 50.38079709 -80.86513441 50.33495835 -85.40625 52.99609375 C-88.50557669 55.30626596 -91.39436807 57.83602036 -94.25634766 60.43164062 C-95.92366111 61.93133561 -97.62451278 63.37144165 -99.35546875 64.796875 C-105.52304842 69.883001 -111.47725707 75.17870513 -117.30712891 80.6484375 C-120.89826424 84 -120.89826424 84 -122 84 C-122.6593244 80.49092902 -122.77187216 77.50046482 -122 74 C-119.18432756 70.37008232 -115.61962092 67.7961339 -112 65 C-110.95965675 64.11039767 -109.92591854 63.21302125 -108.8984375 62.30859375 C-108.37258057 61.8487207 -107.84672363 61.38884766 -107.30493164 60.91503906 C-106.21880564 59.96482226 -105.13468228 59.01231192 -104.05249023 58.05761719 C-101.28608233 55.68675958 -98.67373567 53.73450956 -95.38671875 52.14453125 C-89.99249723 49.37925767 -89.99249723 49.37925767 -86 45 C-83.82701285 38.02843853 -83.47610297 30.65900807 -83.18261719 23.40087891 C-83 21 -83 21 -82 18 C-81.01 18 -80.02 18 -79 18 C-78.67 25.26 -78.34 32.52 -78 40 C-70.34073638 37.15845252 -70.34073638 37.15845252 -65.62353516 30.97363281 C-64.79765276 27.35727672 -64.24800074 23.80853048 -63.8125 20.125 C-63.62365234 18.86429687 -63.43480469 17.60359375 -63.24023438 16.3046875 C-62.78256353 13.20660792 -62.37108101 10.10943593 -62 7 C-60.68 7 -59.36 7 -58 7 C-57.67 14.26 -57.34 21.52 -57 29 C-48.44940826 27.19339742 -48.44940826 27.19339742 -46.60546875 23.8359375 C-46.46753906 23.02382813 -46.32960938 22.21171875 -46.1875 21.375 C-45.38551434 17.70954875 -44.48666332 14.39164341 -43 10.9375 C-42.5359375 9.83728516 -42.5359375 9.83728516 -42.0625 8.71484375 C-41 7 -41 7 -38 6 C-37.97274659 7.7290774 -37.95349013 9.45828176 -37.9375 11.1875 C-37.92589844 12.15042969 -37.91429687 13.11335938 -37.90234375 14.10546875 C-37.99513378 16.85576513 -38.37888315 19.32479591 -39 22 C-32.91883145 20.53038427 -27.83542171 18.7995994 -24.421875 13.328125 C-22.39350551 9.64797022 -20.65171539 5.86209921 -19 2 C-18.34 2 -17.68 2 -17 2 C-17 6.29 -17 10.58 -17 15 C-11.27625872 14.75820795 -11.27625872 14.75820795 -6 13 C-3.53407188 9.22388113 -2.3020672 5.29176518 -1 1 C-0.67 0.67 -0.34 0.34 0 0 Z " fill="#ECF7F2" transform="translate(458,364)"/>
<path d="M0 0 C0.66 0 1.32 0 2 0 C1.67 2.97 1.34 5.94 1 9 C1.71800781 8.855625 2.43601562 8.71125 3.17578125 8.5625 C13.15999307 6.77205604 22.88721581 6.80778235 33 7 C33 7.66 33 8.32 33 9 C29.72325153 9.93886839 26.57199294 10.25965519 23.17578125 10.5 C22.06525391 10.5825 20.95472656 10.665 19.81054688 10.75 C17.46685628 10.91749994 15.1231054 11.08415838 12.77929688 11.25 C11.11930664 11.37375 11.11930664 11.37375 9.42578125 11.5 C8.40911377 11.5721875 7.39244629 11.644375 6.3449707 11.71875 C4.04431301 11.74973033 4.04431301 11.74973033 3 13 C4.98 14.32 6.96 15.64 9 17 C5.06506965 18.30875437 3.08105423 17.26612689 -0.69921875 15.70703125 C-4.70980027 14.4745775 -8.8485327 14.5791885 -13 15 C-13.33 15.33 -13.66 15.66 -14 16 C-13.2059375 16.48210937 -12.411875 16.96421875 -11.59375 17.4609375 C-10.5728125 18.09257812 -9.551875 18.72421875 -8.5 19.375 C-7.4790625 20.00148438 -6.458125 20.62796875 -5.40625 21.2734375 C-4.6121875 21.84320313 -3.818125 22.41296875 -3 23 C-3 23.66 -3 24.32 -3 25 C-7.60174841 24.40037824 -11.45774947 23.11326436 -15.75 21.375 C-21.94068722 19.08142268 -26.58033926 18.50602365 -33 20 C-30.47524538 22.52475462 -28.26502003 23.04307871 -24.875 24.125 C-23.23144531 24.65480469 -23.23144531 24.65480469 -21.5546875 25.1953125 C-20.71164062 25.46085937 -19.86859375 25.72640625 -19 26 C-19 26.66 -19 27.32 -19 28 C-24.27203486 27.5654288 -29.4322354 26.9615277 -34.625 25.9375 C-40.23448375 24.87281045 -45.48113204 24.16037735 -51 26 C-45.70843973 27.81027062 -40.36095277 29.41078475 -35 31 C-35 31.33 -35 31.66 -35 32 C-40.4189132 32.09236784 -45.81208437 32.11696287 -51.21875 31.70703125 C-51.92902344 31.65345459 -52.63929688 31.59987793 -53.37109375 31.54467773 C-54.77036922 31.43315291 -56.16890642 31.31185536 -57.56640625 31.17993164 C-61.3009139 30.88248887 -63.83329206 30.88347582 -67 33 C-66.39671875 33.19335938 -65.7934375 33.38671875 -65.171875 33.5859375 C-64.37265625 33.84632813 -63.5734375 34.10671875 -62.75 34.375 C-61.96109375 34.63023437 -61.1721875 34.88546875 -60.359375 35.1484375 C-58.13372042 35.95173667 -56.09068328 36.89711662 -54 38 C-54 38.33 -54 38.66 -54 39 C-54.66306152 38.94239502 -55.32612305 38.88479004 -56.00927734 38.82543945 C-71.74216806 37.64458939 -82.21095485 38.69517068 -94.84863281 48.36083984 C-97.86509726 50.65913107 -100.98219097 52.80381789 -104.09570312 54.96777344 C-106.84641688 56.89233023 -109.56235435 58.86271293 -112.27099609 60.84594727 C-114.11369786 62.07588955 -116.00099221 63.04922569 -118 64 C-118.3125 60.76953125 -118.3125 60.76953125 -118 57 C-115.9375 54.69921875 -115.9375 54.69921875 -113 52.6875 C-112.20879761 52.13509644 -112.20879761 52.13509644 -111.40161133 51.5715332 C-109.62128005 50.34728292 -107.81656948 49.16975713 -106 48 C-105.33145996 47.566875 -104.66291992 47.13375 -103.97412109 46.6875 C-99.36067415 43.71762726 -94.70849674 40.81676659 -90 38 C-89.35111816 37.61021973 -88.70223633 37.22043945 -88.03369141 36.81884766 C-83.24400253 34 -83.24400253 34 -81 34 C-81.04125 32.741875 -81.0825 31.48375 -81.125 30.1875 C-81.14263332 24.65063837 -80.13105192 19.40279265 -79 14 C-77.68 14 -76.36 14 -75 14 C-75 19.28 -75 24.56 -75 30 C-68.90150377 28.54404757 -68.90150377 28.54404757 -64 25 C-61.48626542 19.30237149 -60.57079973 12.99072222 -59.625 6.87011719 C-59.41875 6.25297852 -59.2125 5.63583984 -59 5 C-58.01 4.67 -57.02 4.34 -56 4 C-56 9.94 -56 15.88 -56 22 C-52.37 21.01 -48.74 20.02 -45 19 C-44.67 17.35 -44.34 15.7 -44 14 C-42.9140625 11.578125 -42.9140625 11.578125 -41.625 9.25 C-41.20476562 8.47140625 -40.78453125 7.6928125 -40.3515625 6.890625 C-39 5 -39 5 -36 4 C-35.86607143 12.03571429 -35.86607143 12.03571429 -37 16 C-31.82187379 15.26963138 -27.45820099 14.52390849 -23.74609375 10.64453125 C-21.59285287 7.52929966 -19.69282087 4.38564174 -18 1 C-17.01 1 -16.02 1 -15 1 C-15.33 4.3 -15.66 7.6 -16 11 C-12.13886336 10.79037612 -8.63310602 10.36241476 -5 9 C-2.63082022 6.25436157 -1.26033281 3.38409804 0 0 Z " fill="#EAF7F1" transform="translate(451,284)"/>
<path d="M0 0 C0.66 0 1.32 0 2 0 C2.34998047 0.92232422 2.34998047 0.92232422 2.70703125 1.86328125 C4.49708008 5.82921983 5.70731269 8.41175465 9.78125 10.265625 C12.48916091 10.97749849 15.24471454 11.50205684 18 12 C17.505 6.555 17.505 6.555 17 1 C21.0394227 3.01971135 21.92329623 3.88068302 24.25 7.5 C24.77078125 8.2940625 25.2915625 9.088125 25.828125 9.90625 C27 12 27 12 27 14 C30.63 14.66 34.26 15.32 38 16 C38 12.37 38 8.74 38 5 C38.99 5 39.98 5 41 5 C41.40089844 5.97582031 41.80179687 6.95164063 42.21484375 7.95703125 C45.14403635 15.19635032 45.14403635 15.19635032 50.46875 20.59765625 C53.16456548 21.51515203 53.16456548 21.51515203 57 22 C57 16.39 57 10.78 57 5 C58.32 5 59.64 5 61 5 C61.67218507 7.74875682 62.33792435 10.49880726 63 13.25 C63.19078125 14.02730469 63.3815625 14.80460937 63.578125 15.60546875 C63.75859375 16.35957031 63.9390625 17.11367188 64.125 17.890625 C64.29257813 18.58188477 64.46015625 19.27314453 64.6328125 19.98535156 C65 22 65 22 65 26 C65.62648438 26.20496094 66.25296875 26.40992188 66.8984375 26.62109375 C67.71570313 26.89050781 68.53296875 27.15992188 69.375 27.4375 C70.18710937 27.70433594 70.99921875 27.97117187 71.8359375 28.24609375 C74 29 74 29 76 30 C76.33 24.72 76.66 19.44 77 14 C77.99 14 78.98 14 80 14 C80.02690918 14.55349121 80.05381836 15.10698242 80.08154297 15.67724609 C80.66227388 26.55845294 80.66227388 26.55845294 85.73046875 35.76757812 C90.03516815 38.78086771 94.832854 40.81187299 99.63476562 42.90234375 C103.37148417 44.63647738 106.73688363 46.79483652 110.125 49.125 C111.020979 49.6830835 111.020979 49.6830835 111.93505859 50.25244141 C113.5703125 51.3828125 113.5703125 51.3828125 116 54 C116.48904441 56.84498587 116.28954167 59.08610196 116 62 C110.66107857 58.6606366 105.36443155 55.30153581 100.25 51.625 C99.42242187 51.05910156 98.59484375 50.49320312 97.7421875 49.91015625 C95.74592671 48.51959852 93.7981285 47.0586846 91.8828125 45.55859375 C80.66242059 37.32134412 69.48228088 38.02011004 56 39 C56 38.34 56 37.68 56 37 C60.29 36.01 64.58 35.02 69 34 C63.61415404 30.76849242 62.33900091 30.70888749 56.375 31.25 C55.06273437 31.35828125 53.75046875 31.4665625 52.3984375 31.578125 C49.01843292 31.88443987 49.01843292 31.88443987 46 33 C44.27204648 33.06802967 42.54164635 33.08495645 40.8125 33.0625 C39.91144531 33.05347656 39.01039063 33.04445313 38.08203125 33.03515625 C37.39496094 33.02355469 36.70789063 33.01195312 36 33 C36 32.34 36 31.68 36 31 C41.28 29.68 46.56 28.36 52 27 C44.57495812 23.28747906 38.51963603 25.2629975 30.85546875 27.33203125 C27.41262255 28.13740293 24.51054587 28.2393554 21 28 C21 27.34 21 26.68 21 26 C27.435 23.525 27.435 23.525 34 21 C30.22165926 18.48110617 28.49591294 18.63261181 24 19 C21.18430244 19.80232612 18.51287003 20.87421193 15.8125 22 C8.49493243 25 8.49493243 25 4 25 C4 24.34 4 23.68 4 23 C6.1171875 21.4921875 6.1171875 21.4921875 8.875 19.875 C9.77992188 19.33617187 10.68484375 18.79734375 11.6171875 18.2421875 C14 17 14 17 16 17 C16 16.34 16 15.68 16 15 C7.78849154 14.43966694 7.78849154 14.43966694 0 16.5625 C-3 18 -3 18 -5.4375 17.6875 C-5.953125 17.460625 -6.46875 17.23375 -7 17 C-5.02 15.68 -3.04 14.36 -1 13 C-15.85 11.02 -15.85 11.02 -31 9 C-31 8.34 -31 7.68 -31 7 C-20.14700916 6.71564216 -9.74631163 7.52682142 1 9 C0.67 6.03 0.34 3.06 0 0 Z " fill="#ECF7F2" transform="translate(190,242)"/>
<path d="M0 0 C0.33 0 0.66 0 1 0 C1 1.98 1 3.96 1 6 C2.21042969 5.75443359 2.21042969 5.75443359 3.4453125 5.50390625 C7.62768788 4.91102007 11.65944818 4.89105748 15.875 4.9375 C16.65875 4.94201172 17.4425 4.94652344 18.25 4.95117188 C20.16670014 4.96285907 22.08336048 4.98079092 24 5 C24 5.66 24 6.32 24 7 C22.83082031 7.06058594 21.66164063 7.12117187 20.45703125 7.18359375 C18.90884386 7.26804034 17.36066732 7.35268625 15.8125 7.4375 C15.04357422 7.47681641 14.27464844 7.51613281 13.48242188 7.55664062 C9.56748925 7.77507034 5.82879312 8.08692108 2 9 C2.99 9.99 3.98 10.98 5 12 C-0.28 11.34 -5.56 10.68 -11 10 C-11 10.66 -11 11.32 -11 12 C-10.05125 12.268125 -9.1025 12.53625 -8.125 12.8125 C-5 14 -5 14 -3 17 C-6.47838801 16.58259344 -9.63463214 16.13215433 -12.9375 14.9375 C-16.80814038 13.75261009 -19.96389188 13.86082386 -24 14 C-20.71536341 16.18975773 -17.79303725 16.99806563 -14 18 C-14 18.66 -14 19.32 -14 20 C-14.85722656 19.86722656 -15.71445312 19.73445313 -16.59765625 19.59765625 C-18.94883849 19.2345086 -21.30041658 18.87391641 -23.65234375 18.515625 C-25.5420938 18.22455498 -27.43099173 17.92732011 -29.31640625 17.609375 C-32.38679249 17.10538071 -33.97768015 16.99256005 -37 18 C-33.37 18.99 -29.74 19.98 -26 21 C-26 21.66 -26 22.32 -26 23 C-26.62567871 22.96447021 -27.25135742 22.92894043 -27.89599609 22.89233398 C-30.72204795 22.73503933 -33.54848174 22.58616752 -36.375 22.4375 C-37.35984375 22.38142578 -38.3446875 22.32535156 -39.359375 22.26757812 C-40.30039062 22.21923828 -41.24140625 22.17089844 -42.2109375 22.12109375 C-43.08024902 22.0739624 -43.94956055 22.02683105 -44.84521484 21.97827148 C-47.05142631 21.84314147 -47.05142631 21.84314147 -49 23 C-46.03 23.99 -43.06 24.98 -40 26 C-40 26.33 -40 26.66 -40 27 C-41.77890625 26.93425781 -41.77890625 26.93425781 -43.59375 26.8671875 C-56.79157393 26.7464966 -64.62551174 30.10275333 -75 38 C-76.20730225 38.88942213 -77.41560843 39.77748342 -78.625 40.6640625 C-80.72061722 42.21089203 -82.78320067 43.78289366 -84.83984375 45.3828125 C-87 47 -87 47 -88 47 C-88.49609375 43.8515625 -88.49609375 43.8515625 -88 40 C-85.69955253 37.57317136 -82.94584276 36.033889 -80.0625 34.375 C-79.28575928 33.90280029 -78.50901855 33.43060059 -77.70874023 32.9440918 C-75.4869609 31.60274976 -73.24784809 30.29703781 -71 29 C-69.4840625 28.10087891 -69.4840625 28.10087891 -67.9375 27.18359375 C-62.42289886 24 -62.42289886 24 -60 24 C-59.95101563 23.33613281 -59.90203125 22.67226562 -59.8515625 21.98828125 C-59.10896309 13.21792619 -59.10896309 13.21792619 -57 9 C-56.34 9.33 -55.68 9.66 -55 10 C-55 13.63 -55 17.26 -55 21 C-50.60036916 19.63706741 -50.60036916 19.63706741 -47 17 C-45.81002468 13.60007052 -45.19472427 10.36133171 -44.66796875 6.80078125 C-44.33732422 5.41439453 -44.33732422 5.41439453 -44 4 C-43.01 3.67 -42.02 3.34 -41 3 C-41 6.96 -41 10.92 -41 15 C-38.18519748 14.61365456 -36.44548223 14.34958148 -34 13 C-32.38712587 10.75200445 -31.21634387 8.49902703 -30.04296875 5.99609375 C-29 4 -29 4 -27 3 C-27 5.64 -27 8.28 -27 11 C-21.48470941 10.29834822 -21.48470941 10.29834822 -17.16796875 7.0859375 C-16.11960353 5.6422034 -15.10445942 4.17358636 -14.12890625 2.6796875 C-13.75636719 2.12539062 -13.38382812 1.57109375 -13 1 C-12.67 1 -12.34 1 -12 1 C-12 3.31 -12 5.62 -12 8 C-5.85483361 7.09991578 -5.85483361 7.09991578 -1.5625 2.875 C-1.046875 1.92625 -0.53125 0.9775 0 0 Z " fill="#E2F4EC" transform="translate(418,208)"/>
<path d="M0 0 C0.495 1.485 0.495 1.485 1 3 C5.29 2.34 9.58 1.68 14 1 C14.99 2.32 15.98 3.64 17 5 C3.92809726 16.81498902 -8.60770344 21.5943088 -25.93359375 23.4140625 C-31.4795639 23.99784883 -36.71559442 25.21746128 -42 27 C-42 26.34 -42 25.68 -42 25 C-42.66 25 -43.32 25 -44 25 C-43.70898438 23.13208008 -43.70898438 23.13208008 -43 21 C-39.8556228 19.01272422 -36.69139948 17.28538579 -33.37109375 15.61914062 C-31.37535268 14.52898149 -29.67394568 13.54240552 -28 12 C-26.90533083 8.34154953 -26.90533083 8.34154953 -27 5 C-26.34 5 -25.68 5 -25 5 C-25 6.65 -25 8.3 -25 10 C-24.01 9.67 -23.02 9.34 -22 9 C-20.77030122 5.48809191 -20.77030122 5.48809191 -20 2 C-19.34 2 -18.68 2 -18 2 C-18 3.65 -18 5.3 -18 7 C-17.01 7 -16.02 7 -15 7 C-14.34 5.35 -13.68 3.7 -13 2 C-12.67 2.99 -12.34 3.98 -12 5 C-10.68 5 -9.36 5 -8 5 C-7.34 3.68 -6.68 2.36 -6 1 C-5.505 2.485 -5.505 2.485 -5 4 C-1.72226496 3.24849977 -1.72226496 3.24849977 0 0 Z " fill="#08A15B" transform="translate(370,135)"/>
<path d="M0 0 C0.66 0 1.32 0 2 0 C2.37125 1.134375 2.7425 2.26875 3.125 3.4375 C3.86637873 5.3814131 3.86637873 5.3814131 5 7 C8.08369887 8.05749557 8.08369887 8.05749557 11 8 C11 5.69 11 3.38 11 1 C14.84146341 4.58536585 14.84146341 4.58536585 15.8125 7.125 C16.99224472 9.41932042 16.99224472 9.41932042 20.625 10.25 C22.295625 10.62125 22.295625 10.62125 24 11 C23.505 7.04 23.505 7.04 23 3 C26 4 26 4 27.6875 7.375 C29 11 29 11 29 14 C31.31 14.66 33.62 15.32 36 16 C36 11.71 36 7.42 36 3 C36.66 3.33 37.32 3.66 38 4 C38.74321648 7.54387371 39.28420894 11.1001318 39.828125 14.6796875 C40.70595095 18.26519368 40.70595095 18.26519368 44.109375 19.9453125 C45.06328125 20.29335937 46.0171875 20.64140625 47 21 C47 17.37 47 13.74 47 10 C47.66 10 48.32 10 49 10 C50.11247673 13.63409066 50.97948493 16.67787734 51.22265625 20.49609375 C51.67476767 24.12674587 51.67476767 24.12674587 54.40625 26.1875 C55.4271875 26.785625 56.448125 27.38375 57.5 28 C58.57765625 28.66644531 59.6553125 29.33289063 60.765625 30.01953125 C61.83296875 30.67308594 62.9003125 31.32664063 64 32 C65.77286992 33.19594437 67.52608226 34.42201261 69.25 35.6875 C69.97703125 36.20699219 70.7040625 36.72648437 71.453125 37.26171875 C73 39 73 39 73.234375 41.70703125 C73.11835938 42.84205078 73.11835938 42.84205078 73 44 C69.67178047 42.50725165 67.1124453 40.5765246 64.3125 38.25 C63.425625 37.54230469 62.53875 36.83460938 61.625 36.10546875 C60.02199312 34.81972365 58.43421345 33.51429721 56.875 32.17578125 C50.18565075 26.94339254 43.20388802 27.02161762 35 27 C37.31856917 25.45428722 39.50638429 24.20381448 42 23 C35.5510809 21.68090291 29.51244208 22.30491177 23 23 C23 22.34 23 21.68 23 21 C25.97 20.34 28.94 19.68 32 19 C32 18.67 32 18.34 32 18 C25.4294834 17.75205598 19.43028541 18.67611771 13 20 C13 19.34 13 18.68 13 18 C15.31 17.01 17.62 16.02 20 15 C19.505 14.505 19.505 14.505 19 14 C13.34821884 14.47098176 8.31744817 16.08282481 3 18 C4.22934015 14.31197956 5.93859378 13.27643027 9 11 C3.67829506 10.70437633 3.67829506 10.70437633 -1 13 C-1.99 12.67 -2.98 12.34 -4 12 C-2.68 11.34 -1.36 10.68 0 10 C0 9.34 0 8.68 0 8 C-6.27 7.67 -12.54 7.34 -19 7 C-19 6.34 -19 5.68 -19 5 C-5.3667426 4.81548975 -5.3667426 4.81548975 1 6 C0.67 4.02 0.34 2.04 0 0 Z " fill="#E4F4ED" transform="translate(236,187)"/>
<path d="M0 0 C0.66 0 1.32 0 2 0 C2.37125 1.134375 2.7425 2.26875 3.125 3.4375 C3.86637873 5.3814131 3.86637873 5.3814131 5 7 C8.08369887 8.05749557 8.08369887 8.05749557 11 8 C11 5.69 11 3.38 11 1 C14.84146341 4.58536585 14.84146341 4.58536585 15.8125 7.125 C16.99224472 9.41932042 16.99224472 9.41932042 20.625 10.25 C22.295625 10.62125 22.295625 10.62125 24 11 C23.505 7.04 23.505 7.04 23 3 C23.99 3.33 24.98 3.66 26 4 C27.11938915 6.49709887 27.14506134 7.60945023 26.1875 10.1875 C25 12 25 12 23 13 C22.67 13.66 22.34 14.32 22 15 C20.865625 14.7525 19.73125 14.505 18.5625 14.25 C13.94891653 13.63321077 10.94459466 15.00234247 6.8828125 17.08984375 C5 18 5 18 3 18 C4.22934015 14.31197956 5.93859378 13.27643027 9 11 C3.67829506 10.70437633 3.67829506 10.70437633 -1 13 C-1.99 12.67 -2.98 12.34 -4 12 C-2.68 11.34 -1.36 10.68 0 10 C0 9.34 0 8.68 0 8 C-6.27 7.67 -12.54 7.34 -19 7 C-19 6.34 -19 5.68 -19 5 C-5.3667426 4.81548975 -5.3667426 4.81548975 1 6 C0.67 4.02 0.34 2.04 0 0 Z " fill="#DDF1E8" transform="translate(236,187)"/>
<path d="M0 0 C0.66 0 1.32 0 2 0 C1.67 2.97 1.34 5.94 1 9 C1.71800781 8.855625 2.43601562 8.71125 3.17578125 8.5625 C13.15999307 6.77205604 22.88721581 6.80778235 33 7 C33 7.66 33 8.32 33 9 C29.72325153 9.93886839 26.57199294 10.25965519 23.17578125 10.5 C22.06525391 10.5825 20.95472656 10.665 19.81054688 10.75 C17.46685628 10.91749994 15.1231054 11.08415838 12.77929688 11.25 C11.11930664 11.37375 11.11930664 11.37375 9.42578125 11.5 C8.40911377 11.5721875 7.39244629 11.644375 6.3449707 11.71875 C4.04431301 11.74973033 4.04431301 11.74973033 3 13 C4.98 14.32 6.96 15.64 9 17 C5.07989898 18.30091848 2.95406066 17.32648362 -0.828125 15.76953125 C-4.1882569 14.57898092 -7.45850809 14.31620463 -11 14 C-11 13.34 -11 12.68 -11 12 C-12.98 12 -14.96 12 -17 12 C-16.67 11.01 -16.34 10.02 -16 9 C-16 9.66 -16 10.32 -16 11 C-12.13886336 10.79037612 -8.63310602 10.36241476 -5 9 C-2.63082022 6.25436157 -1.26033281 3.38409804 0 0 Z " fill="#DEF2E9" transform="translate(451,284)"/>
<path d="M0 0 C0.66 0 1.32 0 2 0 C2.27972656 0.62648437 2.55945313 1.25296875 2.84765625 1.8984375 C5.03394681 6.69729457 5.03394681 6.69729457 8.890625 10.04296875 C11.00142265 10.65731445 11.00142265 10.65731445 14 11 C13.34 11.33 12.68 11.66 12 12 C12 12.66 12 13.32 12 14 C12.99 14.33 13.98 14.66 15 15 C14.28714844 14.96519531 13.57429688 14.93039062 12.83984375 14.89453125 C6.25932575 14.65234552 6.25932575 14.65234552 0.0625 16.5625 C-3 18 -3 18 -5.4375 17.6875 C-5.953125 17.460625 -6.46875 17.23375 -7 17 C-5.02 15.68 -3.04 14.36 -1 13 C-15.85 11.02 -15.85 11.02 -31 9 C-31 8.34 -31 7.68 -31 7 C-20.14700916 6.71564216 -9.74631163 7.52682142 1 9 C0.67 6.03 0.34 3.06 0 0 Z " fill="#E0F2EA" transform="translate(190,242)"/>
<path d="M0 0 C0.495 1.485 0.495 1.485 1 3 C1.99 2.67 2.98 2.34 4 2 C6.33299825 1.96045766 8.66708189 1.95598268 11 2 C11 2.66 11 3.32 11 4 C8.03 4 5.06 4 2 4 C2 4.66 2 5.32 2 6 C0.35 6 -1.3 6 -3 6 C-2.505 6.99 -2.505 6.99 -2 8 C-3.0725 7.979375 -4.145 7.95875 -5.25 7.9375 C-8.19371822 7.98656197 -10.23919481 8.21119852 -13 9 C-13.99 9 -14.98 9 -16 9 C-15.34 9.66 -14.68 10.32 -14 11 C-16.31 11.33 -18.62 11.66 -21 12 C-21 12.33 -21 12.66 -21 13 C-22.258125 13.33 -23.51625 13.66 -24.8125 14 C-30.22187036 15.76019194 -34.2666107 18.88321933 -38.71484375 22.35546875 C-41 24 -41 24 -43 24 C-43 23.01 -43 22.02 -43 21 C-39.86947522 19.05613624 -36.70672267 17.3278481 -33.41992188 15.66796875 C-31.40755121 14.56260917 -29.68935643 13.55804207 -28 12 C-26.90043421 8.33917418 -26.90043421 8.33917418 -27 5 C-26.34 5 -25.68 5 -25 5 C-25 6.65 -25 8.3 -25 10 C-24.01 9.67 -23.02 9.34 -22 9 C-20.77030122 5.48809191 -20.77030122 5.48809191 -20 2 C-19.34 2 -18.68 2 -18 2 C-18 3.65 -18 5.3 -18 7 C-17.01 7 -16.02 7 -15 7 C-14.34 5.35 -13.68 3.7 -13 2 C-12.67 2.99 -12.34 3.98 -12 5 C-10.68 5 -9.36 5 -8 5 C-7.34 3.68 -6.68 2.36 -6 1 C-5.505 2.485 -5.505 2.485 -5 4 C-1.72226496 3.24849977 -1.72226496 3.24849977 0 0 Z " fill="#BEE6D3" transform="translate(370,135)"/>
<path d="M0 0 C0.433125 0.474375 0.86625 0.94875 1.3125 1.4375 C3.02309613 3.23686957 3.02309613 3.23686957 6 4 C6.33 3.01 6.66 2.02 7 1 C7.66 1.99 8.32 2.98 9 4 C11.05925139 4.72382467 11.05925139 4.72382467 13 5 C13.33 4.01 13.66 3.02 14 2 C14.268125 2.639375 14.53625 3.27875 14.8125 3.9375 C15.88667752 6.33131686 15.88667752 6.33131686 19 7 C19 5.35 19 3.7 19 2 C19.66 2 20.32 2 21 2 C21.268125 3.134375 21.53625 4.26875 21.8125 5.4375 C22.4003125 7.2009375 22.4003125 7.2009375 23 9 C23.99 9.33 24.98 9.66 26 10 C26 8.35 26 6.7 26 5 C28 7 28 7 28.34375 9.4296875 C28.7696484 12.14395437 28.7696484 12.14395437 31.03125 13.6953125 C31.8459375 14.16710937 32.660625 14.63890625 33.5 15.125 C37.90039318 17.70117955 37.90039318 17.70117955 39 21 C36.49877421 19.8455881 34.55993383 18.65423372 32.375 16.9375 C27.95244851 14.39862785 24.02220328 14.19850606 19 14 C19.33 13.34 19.66 12.68 20 12 C17.03 11.505 17.03 11.505 14 11 C14.66 10.34 15.32 9.68 16 9 C14.02 9 12.04 9 10 9 C10.33 8.34 10.66 7.68 11 7 C8.36 7.33 5.72 7.66 3 8 C3.33 7.34 3.66 6.68 4 6 C2.02 6 0.04 6 -2 6 C-2 5.67 -2 5.34 -2 5 C-4.97 4.67 -7.94 4.34 -11 4 C-11 3.34 -11 2.68 -11 2 C-9.741875 1.979375 -8.48375 1.95875 -7.1875 1.9375 C-6.47980469 1.92589844 -5.77210938 1.91429687 -5.04296875 1.90234375 C-3 2 -3 2 0 3 C0 2.01 0 1.02 0 0 Z " fill="#BCE5D2" transform="translate(272,127)"/>
<path d="M0 0 C0.33 0 0.66 0 1 0 C1 1.98 1 3.96 1 6 C1.80695313 5.83628906 2.61390625 5.67257813 3.4453125 5.50390625 C7.62768788 4.91102007 11.65944818 4.89105748 15.875 4.9375 C16.65875 4.94201172 17.4425 4.94652344 18.25 4.95117188 C20.16670014 4.96285907 22.08336048 4.98079092 24 5 C24 5.66 24 6.32 24 7 C22.24623047 7.09087891 22.24623047 7.09087891 20.45703125 7.18359375 C18.90884386 7.26804034 17.36066732 7.35268625 15.8125 7.4375 C15.04357422 7.47681641 14.27464844 7.51613281 13.48242188 7.55664062 C9.56748925 7.77507034 5.82879312 8.08692108 2 9 C2.99 9.99 3.98 10.98 5 12 C-1.03748977 11.19500136 -7.01270113 10.11517502 -13 9 C-13.33 8.01 -13.66 7.02 -14 6 C-15.98 6.99 -15.98 6.99 -18 8 C-14.25 2.125 -14.25 2.125 -12 1 C-12 3.31 -12 5.62 -12 8 C-5.85483361 7.09991578 -5.85483361 7.09991578 -1.5625 2.875 C-1.046875 1.92625 -0.53125 0.9775 0 0 Z " fill="#CEECDE" transform="translate(418,208)"/>
<path d="M0 0 C0.33 0.99 0.66 1.98 1 3 C1.99 2.67 2.98 2.34 4 2 C6.33299825 1.96045766 8.66708189 1.95598268 11 2 C11 2.66 11 3.32 11 4 C8.03 4 5.06 4 2 4 C2 4.66 2 5.32 2 6 C0.35 6 -1.3 6 -3 6 C-2.67 6.66 -2.34 7.32 -2 8 C-3.0725 7.979375 -4.145 7.95875 -5.25 7.9375 C-8.75319421 7.84146637 -8.75319421 7.84146637 -11.0625 8.5625 C-13.85176242 9.19233345 -16.23105203 8.56637572 -19 8 C-19.33 6.02 -19.66 4.04 -20 2 C-19.34 2 -18.68 2 -18 2 C-18 3.65 -18 5.3 -18 7 C-17.01 7 -16.02 7 -15 7 C-14.34 5.35 -13.68 3.7 -13 2 C-12.67 2.99 -12.34 3.98 -12 5 C-10.68 5 -9.36 5 -8 5 C-7.34 3.68 -6.68 2.36 -6 1 C-5.67 1.99 -5.34 2.98 -5 4 C-1.72226496 3.24849977 -1.72226496 3.24849977 0 0 Z " fill="#BDE5D2" transform="translate(370,135)"/>
<path d="M0 0 C8.74507107 -0.10621544 17.30019136 -0.01286753 26 1 C23.30620508 3.77239371 22.0147129 3.9995909 18.06640625 4.109375 C16.56387643 4.00611744 15.06244095 3.88577604 13.5625 3.75 C12.81162109 3.69714844 12.06074219 3.64429688 11.28710938 3.58984375 C7.45708097 3.30014943 3.7507738 2.86498958 0 2 C0 1.34 0 0.68 0 0 Z " fill="#CDEBDD" transform="translate(159,249)"/>
<path d="M0 0 C0.66 0.33 1.32 0.66 2 1 C-6.91 9.91 -15.82 18.82 -25 28 C-25 24.38462432 -24.4082652 23.99712389 -22 21.453125 C-21.03900391 20.4321875 -21.03900391 20.4321875 -20.05859375 19.390625 C-19.37925781 18.68421875 -18.69992188 17.9778125 -18 17.25 C-17.35160156 16.5590625 -16.70320312 15.868125 -16.03515625 15.15625 C-12.09941985 11.01008809 -8.01312396 7.14665406 -3.6640625 3.43652344 C-2.39654092 2.34231907 -1.18403846 1.18403846 0 0 Z " fill="#DAF0E4" transform="translate(158,125)"/>
<path d="M0 0 C0.66 0.33 1.32 0.66 2 1 C-6.25 9.25 -14.5 17.5 -23 26 C-23.66 25.67 -24.32 25.34 -25 25 C-17.14714907 16.10544435 -8.79496567 7.96040689 0 0 Z " fill="#60BE88" transform="translate(134,97)"/>
<path d="M0 0 C0.86560547 0.00451172 1.73121094 0.00902344 2.62304688 0.01367188 C4.72789539 0.02530087 6.83270758 0.04322927 8.9375 0.0625 C8.9375 0.7225 8.9375 1.3825 8.9375 2.0625 C0.44706147 4.75719837 -10.37682412 3.28154223 -19.0625 2.0625 C-19.0625 1.7325 -19.0625 1.4025 -19.0625 1.0625 C-12.660906 0.24211409 -6.44947499 -0.06504513 0 0 Z " fill="#CCEBDC" transform="translate(475.0625,290.9375)"/>
<path d="M0 0 C0.66 0 1.32 0 2 0 C3.125 4.75 3.125 4.75 2 7 C-5.13757599 8.28710387 -11.82123184 7.78954303 -19 7 C-19 6.34 -19 5.68 -19 5 C-5.3667426 4.81548975 -5.3667426 4.81548975 1 6 C0.67 4.02 0.34 2.04 0 0 Z " fill="#B8E3CF" transform="translate(236,187)"/>
<path d="M0 0 C0.66 0.33 1.32 0.66 2 1 C-4.6 7.6 -11.2 14.2 -18 21 C-18 16.81116298 -15.67400903 15.0691572 -12.9375 12.1875 C-12.43887451 11.65286133 -11.94024902 11.11822266 -11.42651367 10.56738281 C-7.83096005 6.75766304 -4.0942029 3.27536232 0 0 Z " fill="#25AB6D" transform="translate(371,375)"/>
<path d="M0 0 C0.33 0 0.66 0 1 0 C1.0721875 0.76054687 1.144375 1.52109375 1.21875 2.3046875 C2.22084274 5.76190744 3.43525987 6.35016632 6.5 8.125 C10.90039318 10.70117955 10.90039318 10.70117955 12 14 C9.49877421 12.8455881 7.55993383 11.65423372 5.375 9.9375 C0.95244851 7.39862785 -2.97779672 7.19850606 -8 7 C-7.67 6.34 -7.34 5.68 -7 5 C-4.69 5.33 -2.38 5.66 0 6 C0 4.02 0 2.04 0 0 Z " fill="#9CD8BC" transform="translate(299,134)"/>
<path d="M0 0 C-0.33 0.33 -0.66 0.66 -1 1 C0.32 1.66 1.64 2.32 3 3 C-2.45461169 4.38529821 -7.36718401 5.2396943 -13 5 C-13 4.34 -13 3.68 -13 3 C-11.21189234 2.30329584 -9.41937948 1.61788811 -7.625 0.9375 C-6.62726563 0.55464844 -5.62953125 0.17179687 -4.6015625 -0.22265625 C-2 -1 -2 -1 0 0 Z " fill="#CCEBDC" transform="translate(224,265)"/>
<path d="M0 0 C0.433125 0.474375 0.86625 0.94875 1.3125 1.4375 C3.02309613 3.23686957 3.02309613 3.23686957 6 4 C6 4.66 6 5.32 6 6 C6.66 6.33 7.32 6.66 8 7 C6.35 7.33 4.7 7.66 3 8 C3.33 7.34 3.66 6.68 4 6 C2.02 6 0.04 6 -2 6 C-2 5.67 -2 5.34 -2 5 C-4.97 4.67 -7.94 4.34 -11 4 C-11 3.34 -11 2.68 -11 2 C-9.741875 1.979375 -8.48375 1.95875 -7.1875 1.9375 C-6.47980469 1.92589844 -5.77210938 1.91429687 -5.04296875 1.90234375 C-3 2 -3 2 0 3 C0 2.01 0 1.02 0 0 Z " fill="#9BD8BC" transform="translate(272,127)"/>
<path d="M0 0 C6.0546875 -0.1953125 6.0546875 -0.1953125 8 0 C8.66 0.66 9.32 1.32 10 2 C8.35 2 6.7 2 5 2 C5 2.66 5 3.32 5 4 C2.69 4 0.38 4 -2 4 C-2 4.66 -2 5.32 -2 6 C-4.64 6 -7.28 6 -10 6 C-7.0173113 3.45919111 -4.80448693 2.7197678 -1 2 C-0.67 1.34 -0.34 0.68 0 0 Z " fill="#52BC8B" transform="translate(354,143)"/>
<path d="M0 0 C0.33 0 0.66 0 1 0 C1 1.65 1 3.3 1 5 C1.99 5.33 2.98 5.66 4 6 C4.66 6.66 5.32 7.32 6 8 C3.69 8.33 1.38 8.66 -1 9 C-1 9.33 -1 9.66 -1 10 C-2.65 10 -4.3 10 -6 10 C-5.67 8.68 -5.34 7.36 -5 6 C-4.01 6 -3.02 6 -2 6 C-1.34 4.02 -0.68 2.04 0 0 Z " fill="#D0EDE0" transform="translate(350,138)"/>
<path d="M0 0 C0.66 0.33 1.32 0.66 2 1 C-3.28 6.28 -8.56 11.56 -14 17 C-14.66 16.67 -15.32 16.34 -16 16 C-11.03093773 10.1719243 -5.90436923 4.8836671 0 0 Z " fill="#23AA6C" transform="translate(360,297)"/>
<path d="M0 0 C0.99 0.33 1.98 0.66 3 1 C4.11938915 3.49709887 4.14506134 4.60945023 3.1875 7.1875 C2 9 2 9 0 10 C-0.33 10.66 -0.66 11.32 -1 12 C-2.98 11.34 -4.96 10.68 -7 10 C-6.34 9.01 -5.68 8.02 -5 7 C-2.03 7.495 -2.03 7.495 1 8 C0.67 5.36 0.34 2.72 0 0 Z " fill="#B0E0CA" transform="translate(259,190)"/>
<path d="M0 0 C0.33 0.99 0.66 1.98 1 3 C1.99 2.67 2.98 2.34 4 2 C6.33299825 1.96045766 8.66708189 1.95598268 11 2 C11 2.66 11 3.32 11 4 C8.03 4 5.06 4 2 4 C2 4.66 2 5.32 2 6 C-0.31 6 -2.62 6 -5 6 C-5 5.34 -5 4.68 -5 4 C-4.01 3.67 -3.02 3.34 -2 3 C-1.34 2.01 -0.68 1.02 0 0 Z " fill="#96D6B8" transform="translate(370,135)"/>
<path d="M0 0 C0.4125 0.474375 0.825 0.94875 1.25 1.4375 C3.182185 3.16266518 4.48192275 3.56584875 7 4 C7.33 3.01 7.66 2.02 8 1 C8.99 2.98 9.98 4.96 11 7 C8.69 7.33 6.38 7.66 4 8 C4.33 7.34 4.66 6.68 5 6 C3.35 5.67 1.7 5.34 0 5 C0 3.35 0 1.7 0 0 Z " fill="#D7EFE4" transform="translate(278,128)"/>
<path d="M0 0 C0.33 0 0.66 0 1 0 C1.08159574 4.16138263 0.98248524 7.9472484 0 12 C1.32 12.33 2.64 12.66 4 13 C2.35 13 0.7 13 -1 13 C-1.33 11.68 -1.66 10.36 -2 9 C-2.99 9.495 -2.99 9.495 -4 10 C-3.52449439 8.51965236 -3.04448784 7.04074979 -2.5625 5.5625 C-2.29566406 4.73878906 -2.02882813 3.91507812 -1.75390625 3.06640625 C-1 1 -1 1 0 0 Z " fill="#D9F0E5" transform="translate(458,364)"/>
<path d="M0 0 C0.33 0.66 0.66 1.32 1 2 C-2.01490557 3.00496852 -4.04181692 3.10335303 -7.1875 3.0625 C-8.53908203 3.04896484 -8.53908203 3.04896484 -9.91796875 3.03515625 C-10.60503906 3.02355469 -11.29210937 3.01195312 -12 3 C-12 2.34 -12 1.68 -12 1 C-3.61572052 -1.37554585 -3.61572052 -1.37554585 0 0 Z " fill="#C8E9DA" transform="translate(238,272)"/>
<path d="M0 0 C3.43680414 6.87360828 4.27716268 13.37802619 4 21 C3.67 21 3.34 21 3 21 C2.67 17.04 2.34 13.08 2 9 C1.01 9.33 0.02 9.66 -1 10 C-0.67 6.7 -0.34 3.4 0 0 Z " fill="#51BC8A" transform="translate(318,77)"/>
<path d="M0 0 C0.66 0.33 1.32 0.66 2 1 C-2.29 5.29 -6.58 9.58 -11 14 C-11.66 13.67 -12.32 13.34 -13 13 C-8.96476648 8.18876004 -4.95532767 3.86757281 0 0 Z " fill="#27AC6F" transform="translate(351,213)"/>
<path d="M0 0 C0.7425 0.185625 1.485 0.37125 2.25 0.5625 C2.8275 0.706875 3.405 0.85125 4 1 C4 1.99 4 2.98 4 4 C2.68 4.33 1.36 4.66 0 5 C0 4.34 0 3.68 0 3 C-1.65 3 -3.3 3 -5 3 C-5 2.34 -5 1.68 -5 1 C-5.66 0.67 -6.32 0.34 -7 0 C-3.77167035 -1.07610988 -3.0998653 -0.93935312 0 0 Z " fill="#48B884" transform="translate(284,134)"/>
<path d="M0 0 C1.74690919 0.2143934 3.4974023 0.40107653 5.25 0.5625 C6.14203125 0.64628906 7.0340625 0.73007812 7.953125 0.81640625 C8.62859375 0.87699219 9.3040625 0.93757813 10 1 C10 1.33 10 1.66 10 2 C3.73 2 -2.54 2 -9 2 C-9 1.34 -9 0.68 -9 0 C-5.50678398 -0.873304 -3.43253473 -0.89544384 0 0 Z " fill="#BFE6D4" transform="translate(255,279)"/>
<path d="M0 0 C0.99 0 1.98 0 3 0 C4.28317892 3.84953676 4.06643637 6.94738135 4 11 C3.67 11 3.34 11 3 11 C3 8.69 3 6.38 3 4 C2.01 4.495 2.01 4.495 1 5 C0.59270772 7.32156597 0.25561323 9.6568787 0 12 C-0.33 12 -0.66 12 -1 12 C-1.14285714 3.42857143 -1.14285714 3.42857143 0 0 Z " fill="#C1E7D5" transform="translate(257,344)"/>
<path d="M0 0 C0.99 0.33 1.98 0.66 3 1 C3.6875 3.0625 3.6875 3.0625 4 5 C3.34 5 2.68 5 2 5 C2 7.31 2 9.62 2 12 C-0.97 12 -3.94 12 -7 12 C-7 11.67 -7 11.34 -7 11 C-4.36 11 -1.72 11 1 11 C0.67 7.37 0.34 3.74 0 0 Z " fill="#BAE4D0" transform="translate(167,326)"/>
<path d="M0 0 C-0.33 0.33 -0.66 0.66 -1 1 C-0.01 1.66 0.98 2.32 2 3 C-1.3 3.33 -4.6 3.66 -8 4 C-7 1 -7 1 -4.5625 -0.25 C-2 -1 -2 -1 0 0 Z " fill="#CAEADB" transform="translate(199,360)"/>
<path d="M0 0 C-1.28716647 1.00578589 -2.57988658 2.00446798 -3.875 3 C-4.95394531 3.8353125 -4.95394531 3.8353125 -6.0546875 4.6875 C-8 6 -8 6 -10 6 C-10 5.01 -10 4.02 -10 3 C-3.375 -1.125 -3.375 -1.125 0 0 Z " fill="#D0EDE0" transform="translate(337,153)"/>
<path d="M0 0 C0.66 0.33 1.32 0.66 2 1 C1.34 1.66 0.68 2.32 0 3 C0.99 3.66 1.98 4.32 3 5 C0.36 5.66 -2.28 6.32 -5 7 C-5 6.34 -5 5.68 -5 5 C-5.66 5 -6.32 5 -7 5 C-5.60683123 2.21366246 -3.84019484 2.06507306 -1 1 C-0.67 0.67 -0.34 0.34 0 0 Z " fill="#23AA6B" transform="translate(333,155)"/>
<path d="M0 0 C0.99 0 1.98 0 3 0 C3 2.64 3 5.28 3 8 C2.34 7.01 1.68 6.02 1 5 C0.67 6.98 0.34 8.96 0 11 C-0.33 11 -0.66 11 -1 11 C-1.125 3.375 -1.125 3.375 0 0 Z " fill="#CAEADC" transform="translate(376,382)"/>
<path d="M0 0 C0.66 0 1.32 0 2 0 C2 4.29 2 8.58 2 13 C2.99 13.33 3.98 13.66 5 14 C3.68 14 2.36 14 1 14 C0.67 10.7 0.34 7.4 0 4 C-0.99 4.495 -0.99 4.495 -2 5 C-1.34 3.35 -0.68 1.7 0 0 Z " fill="#B5E2CD" transform="translate(439,366)"/>
<path d="M0 0 C0 0.66 0 1.32 0 2 C-6.93 1.505 -6.93 1.505 -14 1 C-14 0.67 -14 0.34 -14 0 C-8.97703996 -1.13016601 -5.02125926 -0.77916092 0 0 Z " fill="#B2E1CB" transform="translate(392,229)"/>
<path d="M0 0 C-0.99 0.495 -0.99 0.495 -2 1 C-1.01 1.66 -0.02 2.32 1 3 C-2.3 3 -5.6 3 -9 3 C-9 2.34 -9 1.68 -9 1 C-5.57367167 -0.61798838 -3.61944899 -1.34053666 0 0 Z " fill="#D0EDDF" transform="translate(218,367)"/>
<path d="M0 0 C0.515625 0.391875 1.03125 0.78375 1.5625 1.1875 C-1.33842502 3.12145001 -2.33424737 3.48881941 -5.625 3.8125 C-6.883125 3.93625 -8.14125 4.06 -9.4375 4.1875 C-9.4375 3.5275 -9.4375 2.8675 -9.4375 2.1875 C-3.0375 -1.0125 -3.0375 -1.0125 0 0 Z " fill="#BAE4D1" transform="translate(258.4375,202.8125)"/>
<path d="M0 0 C3.625 -0.1875 3.625 -0.1875 7 0 C6.67 0.99 6.34 1.98 6 3 C3.36 3 0.72 3 -2 3 C-1.34 2.01 -0.68 1.02 0 0 Z " fill="#D8F0E5" transform="translate(485,374)"/>
<path d="M0 0 C0 3.19131 -0.13209062 4.45285085 -2 7 C-5.125 7.75 -5.125 7.75 -8 8 C-5.33333333 5.33333333 -2.66666667 2.66666667 0 0 Z " fill="#D1EDE0" transform="translate(167,342)"/>
<path d="M0 0 C0.66 0 1.32 0 2 0 C1.67 2.97 1.34 5.94 1 9 C0.34 8.01 -0.32 7.02 -1 6 C-1.99 6.495 -1.99 6.495 -3 7 C-1.125 1.125 -1.125 1.125 0 0 Z " fill="#CDEBDD" transform="translate(451,284)"/>
<path d="M0 0 C0 0.33 0 0.66 0 1 C-5.94 1.495 -5.94 1.495 -12 2 C-12 1.34 -12 0.68 -12 0 C-7.74433453 -1.16063604 -4.3164922 -0.76173392 0 0 Z " fill="#C4E8D7" transform="translate(271,208)"/>
<path d="M0 0 C0.33 0 0.66 0 1 0 C1 2.64 1 5.28 1 8 C-0.65 8 -2.3 8 -4 8 C-3.67 6.68 -3.34 5.36 -3 4 C-2.01 4.33 -1.02 4.66 0 5 C0 3.35 0 1.7 0 0 Z " fill="#DFF2E9" transform="translate(298,132)"/>
<path d="M0 0 C0.66 0 1.32 0 2 0 C2.66 1.98 3.32 3.96 4 6 C3.01 6.33 2.02 6.66 1 7 C0 6 0 6 -0.0625 2.9375 C-0.041875 1.968125 -0.02125 0.99875 0 0 Z " fill="#CCEBDD" transform="translate(190,242)"/>
<path d="M0 0 C0.33 0 0.66 0 1 0 C1 1.98 1 3.96 1 6 C1.99 6.33 2.98 6.66 4 7 C2.68 7 1.36 7 0 7 C0 6.34 0 5.68 0 5 C-0.99 5.33 -1.98 5.66 -3 6 C-1.125 1.125 -1.125 1.125 0 0 Z " fill="#BAE4D1" transform="translate(418,208)"/>
<path d="M0 0 C1.65 0 3.3 0 5 0 C4.67 0.99 4.34 1.98 4 3 C4.99 3.33 5.98 3.66 7 4 C4.69 3.67 2.38 3.34 0 3 C0 2.01 0 1.02 0 0 Z " fill="#37B279" transform="translate(394,221)"/>
<path d="M0 0 C3.34249629 0.59687434 5.46436342 1.73603877 8 4 C8 4.66 8 5.32 8 6 C4.63408134 4.55746343 2.48952921 2.66735273 0 0 Z " fill="#D0ECDF" transform="translate(303,142)"/>
<path d="M0 0 C3.63 0 7.26 0 11 0 C10.67 0.66 10.34 1.32 10 2 C7.93359375 2.4140625 7.93359375 2.4140625 5.4375 2.625 C4.61121094 2.69976563 3.78492188 2.77453125 2.93359375 2.8515625 C1.97646484 2.92503906 1.97646484 2.92503906 1 3 C0.67 2.01 0.34 1.02 0 0 Z " fill="#A1ADA6" transform="translate(211,725)"/>
<path d="M0 0 C3.07536854 0.65900754 5.07735566 1.53867783 8 3 C5.03 3 2.06 3 -1 3 C-0.67 2.01 -0.34 1.02 0 0 Z " fill="#D8F0E5" transform="translate(233,376)"/>
<path d="M0 0 C0.99 0.33 1.98 0.66 3 1 C3 3.64 3 6.28 3 9 C2.67 9 2.34 9 2 9 C1.67 7.02 1.34 5.04 1 3 C0.34 3.66 -0.32 4.32 -1 5 C-0.67 3.35 -0.34 1.7 0 0 Z " fill="#ACDEC7" transform="translate(373,297)"/>
<path d="M0 0 C0.66 0 1.32 0 2 0 C2 1.65 2 3.3 2 5 C1.34 5 0.68 5 0 5 C-0.66 5.99 -1.32 6.98 -2 8 C-1.125 1.125 -1.125 1.125 0 0 Z " fill="#DAF0E6" transform="translate(393,288)"/>
<path d="M0 0 C0.66 0.33 1.32 0.66 2 1 C1.67 1.99 1.34 2.98 1 4 C-0.98 4.33 -2.96 4.66 -5 5 C-5 4.34 -5 3.68 -5 3 C-2.625 1.3125 -2.625 1.3125 0 0 Z " fill="#CFECDE" transform="translate(199,262)"/>
<path d="M0 0 C2.97 0.495 2.97 0.495 6 1 C5.34 2.32 4.68 3.64 4 5 C2.02 4.34 0.04 3.68 -2 3 C-1.34 2.01 -0.68 1.02 0 0 Z " fill="#BAE4D0" transform="translate(254,197)"/>
<path d="M0 0 C0.33 0 0.66 0 1 0 C1 1.65 1 3.3 1 5 C1.99 5.33 2.98 5.66 4 6 C2.35 6.33 0.7 6.66 -1 7 C-0.67 4.69 -0.34 2.38 0 0 Z " fill="#D9F0E5" transform="translate(350,138)"/>
</svg>
