<?xml version="1.0" encoding="UTF-8"?>
<svg version="1.1" xmlns="http://www.w3.org/2000/svg" width="640" height="640" class="scale-[0.5] mx-auto">
<path d="M0 0 C2.73389188 0.00461888 5.46733756 -0.00225606 8.20117188 -0.02050781 C25.1923024 -0.13281986 41.71617698 0.47144137 58.49169922 3.31567383 C59.69246094 3.51443115 60.89322266 3.71318848 62.13037109 3.91796875 C64.91138677 4.41473962 67.66869564 4.96623984 70.42919922 5.56567383 C71.40606689 5.77474365 72.38293457 5.98381348 73.3894043 6.19921875 C96.63897331 11.33585945 119.03517744 19.00303564 140.49169922 29.31567383 C141.83685884 29.9289777 143.18329504 30.53948671 144.53076172 31.14770508 C153.60470201 35.27156699 162.17380215 39.85249979 170.61474609 45.14916992 C172.51327814 46.32908487 174.42903216 47.47530297 176.35107422 48.61645508 C186.46749016 54.68831062 195.6873517 61.67244852 204.86621094 69.07568359 C206.48323618 70.38932389 206.48323618 70.38932389 208.49169922 71.31567383 C208.49169922 71.97567383 208.49169922 72.63567383 208.49169922 73.31567383 C209.07306641 73.57993164 209.65443359 73.84418945 210.25341797 74.11645508 C216.25357338 77.33119803 221.0509473 82.81363106 225.77685547 87.63598633 C227.45011971 89.27494675 229.18480625 90.76419744 230.99169922 92.25317383 C236.05752244 96.51255434 240.12846526 101.64677775 244.30419922 106.75317383 C246.23141315 109.34799355 246.23141315 109.34799355 248.49169922 110.31567383 C248.49169922 111.30567383 248.49169922 112.29567383 248.49169922 113.31567383 C249.48169922 113.64567383 250.47169922 113.97567383 251.49169922 114.31567383 C252.91455078 115.83105469 252.91455078 115.83105469 254.38232422 117.78051758 C254.92373047 118.49353027 255.46513672 119.20654297 256.02294922 119.94116211 C256.59013672 120.70412598 257.15732422 121.46708984 257.74169922 122.25317383 C258.61568359 123.41308838 258.61568359 123.41308838 259.50732422 124.59643555 C263.12485224 129.41812399 266.67197833 134.28280563 270.07763672 139.25708008 C271.38619157 141.16207567 272.74303841 143.01993942 274.11669922 144.87817383 C276.39868135 148.06405797 278.2740641 151.40387226 280.13232422 154.85083008 C281.04410724 156.50409182 281.99292656 158.13742287 282.97607422 159.74926758 C294.78556709 179.12245945 304.7316969 200.93591951 310.56201172 222.88989258 C311.42402951 226.06631947 312.38447686 229.18635805 313.3918457 232.31835938 C322.22185069 259.77827537 324.85743742 287.50179837 324.80737305 316.2109375 C324.80421872 319.9798698 324.82774303 323.74800999 324.85302734 327.5168457 C324.90593964 348.1255951 323.08966373 368.20724236 318.49169922 388.31567383 C318.30849121 389.13165039 318.1252832 389.94762695 317.93652344 390.78833008 C315.59908385 401.15682724 313.06286634 411.29468017 309.49169922 421.31567383 C308.88863402 423.16666603 308.28573014 425.01771441 307.68701172 426.87011719 C304.47433435 436.74736486 300.67073412 446.25718077 295.92919922 455.50317383 C294.82594924 457.66170639 293.74544904 459.82643145 292.67919922 462.00317383 C282.83549731 482.0501761 271.37957628 500.81411446 257.49169922 518.31567383 C254.67418025 522.05605018 254.67418025 522.05605018 251.86669922 525.80395508 C251.41294922 526.30282227 250.95919922 526.80168945 250.49169922 527.31567383 C249.83169922 527.31567383 249.17169922 527.31567383 248.49169922 527.31567383 C248.18232422 527.93442383 247.87294922 528.55317383 247.55419922 529.19067383 C246.86669922 530.56567383 246.17919922 531.94067383 245.49169922 533.31567383 C244.83169922 533.31567383 244.17169922 533.31567383 243.49169922 533.31567383 C243.26353516 533.86835937 243.03537109 534.42104492 242.80029297 534.99047852 C241.11324403 537.98813785 238.98357404 540.08332443 236.55419922 542.51879883 C235.8330896 543.24277863 235.8330896 543.24277863 235.09741211 543.98138428 C234.08448829 544.99566447 233.06905284 546.00744187 232.05126953 547.0168457 C230.48996757 548.56739355 228.93967425 550.12837886 227.39013672 551.69067383 C226.40379861 552.67569116 225.41684072 553.66008836 224.42919922 554.64379883 C223.53072266 555.54001953 222.63224609 556.43624023 221.70654297 557.35961914 C219.49169922 559.31567383 219.49169922 559.31567383 217.49169922 559.31567383 C217.49169922 559.97567383 217.49169922 560.63567383 217.49169922 561.31567383 C214.03016076 564.31567383 214.03016076 564.31567383 211.49169922 564.31567383 C211.16169922 565.30567383 210.83169922 566.29567383 210.49169922 567.31567383 C208.97631836 568.73852539 208.97631836 568.73852539 207.02685547 570.20629883 C206.31416504 570.74754395 205.60147461 571.28878906 204.8671875 571.84643555 C204.10390137 572.41378418 203.34061523 572.98113281 202.55419922 573.56567383 C201.77802246 574.14978027 201.0018457 574.73388672 200.20214844 575.33569336 C179.40997978 590.92005521 156.66048229 606.02362538 132.21826172 615.26098633 C130.02222636 616.11045559 127.86482552 617.00287625 125.70263672 617.93286133 C116.42728499 621.9004527 107.16287171 625.07000201 97.44482422 627.76147461 C94.52341218 628.59042528 91.63501621 629.51912455 88.74169922 630.44067383 C62.56701121 638.50688338 35.84619721 640.6788671 8.59643555 640.63134766 C4.82750324 640.62819333 1.05936305 640.65171764 -2.70947266 640.67700195 C-23.31822205 640.72991425 -43.39986931 638.91363834 -63.50830078 634.31567383 C-64.32427734 634.13246582 -65.14025391 633.94925781 -65.98095703 633.76049805 C-76.34945419 631.42305846 -86.48730712 628.88684095 -96.50830078 625.31567383 C-98.35853504 624.71285557 -100.20882744 624.11020346 -102.06054688 623.51196289 C-119.38714986 617.87397576 -136.3650713 610.28640763 -151.96923828 600.85083008 C-154.20372514 599.49982494 -156.4589993 598.23894073 -158.75830078 597.00317383 C-171.92534014 589.67501907 -183.93360162 581.23986675 -195.66601562 571.78930664 C-197.26630024 570.50924861 -198.89478503 569.26460039 -200.52783203 568.02661133 C-201.18138672 567.46200195 -201.83494141 566.89739258 -202.50830078 566.31567383 C-202.50830078 565.65567383 -202.50830078 564.99567383 -202.50830078 564.31567383 C-203.49830078 564.31567383 -204.48830078 564.31567383 -205.50830078 564.31567383 C-207.27557713 562.69987831 -208.87857568 561.06331186 -210.50830078 559.31567383 C-214.23743213 555.49233284 -217.94747922 551.71625588 -222.07080078 548.31567383 C-227.03902876 544.15096336 -231.02865442 539.11788456 -235.13330078 534.12817383 C-237.49260067 531.24370958 -237.49260067 531.24370958 -240.32080078 528.56567383 C-242.50830078 526.31567383 -242.50830078 526.31567383 -242.50830078 524.31567383 C-243.16830078 524.31567383 -243.82830078 524.31567383 -244.50830078 524.31567383 C-245.89355469 522.76196289 -245.89355469 522.76196289 -247.48486328 520.58129883 C-248.06937256 519.78530273 -248.65388184 518.98930664 -249.25610352 518.16918945 C-250.18531616 516.88044922 -250.18531616 516.88044922 -251.13330078 515.56567383 C-251.76631104 514.69620117 -252.39932129 513.82672852 -253.05151367 512.9309082 C-257.71107223 506.49932077 -262.20630124 499.99253285 -266.50830078 493.31567383 C-267.09869141 492.43137695 -267.68908203 491.54708008 -268.29736328 490.63598633 C-272.61901542 484.06783661 -276.16638033 477.2589473 -279.59033203 470.18676758 C-280.52048513 468.2908385 -281.47832581 466.41155655 -282.44580078 464.53442383 C-297.94800017 434.35533842 -308.51445784 401.89273717 -313.50830078 368.31567383 C-313.68111572 367.24075684 -313.85393066 366.16583984 -314.03198242 365.05834961 C-315.91800639 351.68686926 -315.84867678 338.28736149 -315.82397461 324.80737305 C-315.81935573 322.07348116 -315.82623067 319.34003549 -315.84448242 316.60620117 C-315.95670915 299.61930267 -315.38538266 283.08340395 -312.50830078 266.31567383 C-312.39243622 265.62977173 -312.27657166 264.94386963 -312.15719604 264.23718262 C-311.47725266 260.30228243 -310.6822067 256.40197849 -309.82080078 252.50317383 C-309.56951416 251.34865723 -309.31822754 250.19414062 -309.05932617 249.00463867 C-306.25541565 236.55503896 -302.52851335 224.41977329 -298.50830078 212.31567383 C-298.25661133 211.54964844 -298.00492187 210.78362305 -297.74560547 209.99438477 C-295.53078238 203.30555568 -293.01876991 196.96238121 -289.74658203 190.72192383 C-288.46267674 188.22701638 -287.32509692 185.69647274 -286.19580078 183.12817383 C-276.86082519 162.4516391 -264.44298301 143.36627562 -251.13330078 125.06567383 C-250.51366455 124.20619141 -249.89402832 123.34670898 -249.25561523 122.46118164 C-248.67126709 121.66550781 -248.08691895 120.86983398 -247.48486328 120.05004883 C-246.69716553 118.97062012 -246.69716553 118.97062012 -245.89355469 117.86938477 C-245.4364209 117.35666016 -244.97928711 116.84393555 -244.50830078 116.31567383 C-243.84830078 116.31567383 -243.18830078 116.31567383 -242.50830078 116.31567383 C-242.243479 115.73293701 -241.97865723 115.1502002 -241.70581055 114.54980469 C-240.46464869 112.23423443 -239.10013392 110.5219266 -237.34814453 108.56958008 C-236.72536621 107.87364746 -236.10258789 107.17771484 -235.4609375 106.46069336 C-234.81656738 105.75283691 -234.17219727 105.04498047 -233.50830078 104.31567383 C-232.89873535 103.6452002 -232.28916992 102.97472656 -231.66113281 102.28393555 C-229.8087554 100.26311541 -227.94203189 98.25653756 -226.07080078 96.25317383 C-225.45398438 95.58479492 -224.83716797 94.91641602 -224.20166016 94.2277832 C-219.88277252 89.60329269 -215.31243968 85.42753291 -210.50830078 81.31567383 C-208.13040839 79.15615931 -205.75724367 76.99196808 -203.39111328 74.81958008 C-201.50830078 73.31567383 -201.50830078 73.31567383 -199.50830078 73.31567383 C-199.50830078 72.65567383 -199.50830078 71.99567383 -199.50830078 71.31567383 C-197.95458984 69.93041992 -197.95458984 69.93041992 -195.77392578 68.33911133 C-194.97792969 67.75460205 -194.18193359 67.17009277 -193.36181641 66.56787109 C-192.50265625 65.948396 -191.64349609 65.3289209 -190.75830078 64.69067383 C-189.88882813 64.05766357 -189.01935547 63.42465332 -188.12353516 62.77246094 C-181.69194773 58.11290237 -175.18515981 53.61767337 -168.50830078 49.31567383 C-167.62400391 48.7252832 -166.73970703 48.13489258 -165.82861328 47.52661133 C-159.68554482 43.48465034 -153.3928676 40.1556208 -146.77001953 36.99145508 C-143.45992276 35.36935704 -143.45992276 35.36935704 -140.38720703 33.22973633 C-137.83119165 31.53035025 -135.62224012 30.42091684 -132.75830078 29.37817383 C-129.31926267 28.12070241 -126.11924009 26.61631387 -122.87158203 24.93676758 C-117.54052346 22.24355989 -112.09773937 20.22561939 -106.44580078 18.31567383 C-105.44210449 17.97246094 -104.4384082 17.62924805 -103.40429688 17.27563477 C-83.84227713 10.64792895 -63.97023492 5.30762237 -43.50830078 2.31567383 C-42.43918457 2.14430908 -41.37006836 1.97294434 -40.26855469 1.79638672 C-26.89059117 -0.09128588 -13.48666255 -0.02472071 0 0 Z " fill="#060707" transform="translate(315.50830078125,-0.315673828125)"/>
<path d="M0 0 C4.30897848 0.49959171 6.99781378 3.25089101 10.125 6 C10.70048584 6.49765869 11.27597168 6.99531738 11.86889648 7.50805664 C13.58596376 8.99789654 15.29369417 10.49785879 17 12 C17.87527344 12.76183594 18.75054687 13.52367188 19.65234375 14.30859375 C24.30574124 18.41896916 28.78395059 22.68784437 33.1875 27.0625 C33.6626001 27.53292725 34.1377002 28.00335449 34.62719727 28.48803711 C56.46277775 50.42151811 72.76136997 77.21495033 86 105 C86.50015625 106.04542969 87.0003125 107.09085937 87.515625 108.16796875 C96.48213439 127.99774913 103.07554559 149.44610814 106.30761719 170.95239258 C106.62519465 173.0637941 106.95243102 175.17352598 107.28125 177.28320312 C109.15272581 189.3932549 110.16544204 201.1459103 110.13037109 213.40185547 C110.12506038 215.60000673 110.13031878 217.79794908 110.13671875 219.99609375 C110.14398047 232.80317231 109.85107052 245.66202735 107.6875 258.3125 C107.55633789 259.10116455 107.42517578 259.8898291 107.29003906 260.70239258 C106.87553237 263.13798173 106.44234579 265.56932226 106 268 C105.86223145 268.76151367 105.72446289 269.52302734 105.58251953 270.30761719 C95.84842376 322.81546791 70.69018247 368.02634284 36 408 C27.40091959 404.15828121 20.33547947 396.46219419 13.48901367 390.09472656 C9.33481977 386.25181147 5.00003416 382.67271072 0.59375 379.12109375 C-3.38161401 375.87015602 -7.18229612 372.43308446 -11 369 C-17.64780843 363.11274593 -24.40655225 357.35366522 -31.15332031 351.58056641 C-34.10365165 349.05538858 -37.05177775 346.5276396 -40 344 C-43.48711307 341.01035126 -46.97467826 338.02124142 -50.46484375 335.03515625 C-57.12847177 329.33205119 -63.77063632 323.60520227 -70.39428711 317.85571289 C-74.58317571 314.2218019 -78.78622513 310.60501281 -83 307 C-87.84915361 302.85140131 -92.68071453 298.68325656 -97.5 294.5 C-103.48843468 289.30270932 -109.49800044 284.13089303 -115.5234375 278.9765625 C-117.88665561 276.95495017 -120.24563043 274.92853563 -122.6015625 272.8984375 C-123.7967822 271.86968384 -124.99209376 270.84103689 -126.1875 269.8125 C-126.76266357 269.31693604 -127.33782715 268.82137207 -127.93041992 268.31079102 C-132.55938326 264.33849303 -137.29166728 260.51404851 -142.0859375 256.7421875 C-142.71757812 256.16726563 -143.34921875 255.59234375 -144 255 C-144 254.34 -144 253.68 -144 253 C-144.52335937 252.78472656 -145.04671875 252.56945312 -145.5859375 252.34765625 C-148.95632601 250.46612868 -151.73298403 247.96629976 -154.625 245.4375 C-155.24093018 244.90463379 -155.85686035 244.37176758 -156.49145508 243.82275391 C-161.05715771 239.86015811 -165.55740392 235.8296764 -170.01171875 231.7421875 C-172.08536952 229.84837219 -172.08536952 229.84837219 -175 228 C-173.26984046 223.88832675 -170.42743076 220.66267679 -167.625 217.25 C-163.28021732 211.89391466 -159.05111612 206.47309024 -154.9375 200.9375 C-150.35661014 194.78174406 -145.67549095 188.71907923 -140.91796875 182.69921875 C-131.84206811 171.21395355 -122.91071481 159.61363164 -114 148 C-107.75766659 139.8641588 -101.48150517 131.75591816 -95.18164062 123.66455078 C-90.09539103 117.12924698 -85.04107694 110.57020361 -80 104 C-73.75766659 95.8641588 -67.48150517 87.75591816 -61.18164062 79.66455078 C-56.09539103 73.12924698 -51.04107694 66.57020361 -46 60 C-39.75766659 51.8641588 -33.48150517 43.75591816 -27.18164062 35.66455078 C-22.89903661 30.1618483 -18.63591454 24.64480918 -14.390625 19.11328125 C-12.67499059 16.87903187 -10.95646673 14.64722728 -9.234375 12.41796875 C-8.77708008 11.82540283 -8.31978516 11.23283691 -7.84863281 10.62231445 C-6.97372403 9.48876591 -6.09811477 8.35575753 -5.22167969 7.22338867 C-3.39706351 4.85730006 -1.6585337 2.48780055 0 0 Z " fill="#DC2726" transform="translate(487,101)"/>
<path d="M0 0 C0 164.34 0 328.68 0 498 C-5.05926487 496.31357838 -9.2862469 494.47639866 -13.9375 492 C-14.67895264 491.60554688 -15.42040527 491.21109375 -16.18432617 490.8046875 C-28.19361855 484.2967229 -39.21383338 476.35008638 -50 468 C-51.2065625 467.08541016 -51.2065625 467.08541016 -52.4375 466.15234375 C-60.42929861 459.96132871 -67.70465242 452.98303975 -75 446 C-76.41925781 444.64455078 -76.41925781 444.64455078 -77.8671875 443.26171875 C-83.73521163 437.53079799 -88.90069569 431.41552084 -94 425 C-94.9460129 423.85389469 -95.89402673 422.70943884 -96.84375 421.56640625 C-114.76446415 399.84821438 -129.29760165 374.45720078 -139 348 C-139.38542969 346.98550781 -139.77085937 345.97101563 -140.16796875 344.92578125 C-143.4219345 336.14507983 -146.02216735 327.25929536 -148.41357422 318.2109375 C-148.96357302 316.1373367 -149.52949047 314.06867975 -150.09765625 312 C-158.81377381 279.57343354 -159.27676171 244.17545157 -155 211 C-154.89236328 210.09926758 -154.78472656 209.19853516 -154.67382812 208.27050781 C-153.03829268 195.05223968 -149.9215262 182.46632375 -146.0625 169.75 C-145.85157715 169.05248627 -145.6406543 168.35497253 -145.42333984 167.63632202 C-142.75256471 158.87781908 -139.68082425 150.39230961 -136 142 C-135.65573975 141.18644043 -135.31147949 140.37288086 -134.95678711 139.53466797 C-126.53119913 119.63095312 -115.95498842 101.29230277 -103 84 C-102.54802246 83.3910791 -102.09604492 82.7821582 -101.63037109 82.15478516 C-94.40937192 72.48196808 -86.38890692 63.66753101 -78 55 C-77.43458496 54.4126709 -76.86916992 53.8253418 -76.28662109 53.22021484 C-69.24846884 45.93675957 -62.01224729 39.22180097 -54 33 C-52.99453125 32.20078125 -51.9890625 31.4015625 -50.953125 30.578125 C-12.22759797 0 -12.22759797 0 0 0 Z " fill="#DB2726" transform="translate(200,71)"/>
<path d="M0 0 C3.65649858 1.82824929 5.79493659 3.4535958 8.75 6.1875 C10.0803125 7.40566406 10.0803125 7.40566406 11.4375 8.6484375 C12.283125 9.42445313 13.12875 10.20046875 14 11 C22.8949507 18.92654881 31.99459602 26.63398497 41.10913086 34.30615234 C45.51109488 38.01189738 49.86863618 41.75130611 54.125 45.625 C57.48016355 48.67662695 60.90915877 51.58787787 64.4375 54.4375 C69.20996203 58.29708603 73.73109109 62.37199991 78.24609375 66.52734375 C81.83207284 69.74709519 85.56701492 72.75905176 89.31640625 75.78515625 C92.80550916 78.66480887 96.12996921 81.70693876 99.47265625 84.75390625 C102.06962393 87.06187598 104.73404013 89.25555863 107.4375 91.4375 C112.20996203 95.29708603 116.73109109 99.37199991 121.24609375 103.52734375 C124.82855982 106.74394094 128.56007592 109.75284978 132.3046875 112.77734375 C135.86268415 115.71140185 139.27202367 118.79261855 142.68359375 121.89453125 C151.19641224 129.6321521 160.0195733 137.02839503 168.76025391 144.50585938 C175.99299535 150.69425754 183.20580809 156.90451315 190.39428711 163.14428711 C195.14916705 167.26920236 199.92402077 171.37016523 204.70849609 175.46069336 C207.83966876 178.14017772 210.96073105 180.83062902 214.0703125 183.53515625 C214.74707031 184.12361328 215.42382812 184.71207031 216.12109375 185.31835938 C217.42422846 186.45256921 218.72636729 187.5879246 220.02734375 188.72460938 C222.94472993 191.26381587 225.85620751 193.73991037 229 196 C227.49206634 200.37400626 224.15899943 202.24687572 220.4375 204.625 C219.77057129 205.058125 219.10364258 205.49125 218.41650391 205.9375 C216.28739439 207.3077337 214.14653968 208.65725642 212 210 C210.99428955 210.63180176 210.99428955 210.63180176 209.96826172 211.27636719 C198.4232097 218.46283145 186.38575094 224.40856447 174 230 C173.2894043 230.32597168 172.57880859 230.65194336 171.84667969 230.98779297 C152.32440249 239.867158 131.13037141 245.54965782 110 249 C108.98873047 249.16556396 108.98873047 249.16556396 107.95703125 249.33447266 C93.080497 251.6914086 77.98044329 252.25705002 62.9375 252.3125 C62.21776001 252.31545074 61.49802002 252.31840149 60.75646973 252.32144165 C40.05981919 252.34043408 20.26215039 249.34188937 0 245 C0 164.15 0 83.3 0 0 Z " fill="#DB2826" transform="translate(255,345)"/>
<path d="M0 0 C0.67737213 0.00188324 1.35474426 0.00376648 2.05264282 0.00570679 C23.53511728 0.07557929 44.42539433 1.75281924 65.20068359 7.47558594 C67.98036949 8.23989899 70.76577827 8.98186272 73.55078125 9.7265625 C91.55333325 14.59458561 108.0339228 20.48974583 124.5625 29.125 C125.2225 29.455 125.8825 29.785 126.5625 30.125 C125.29252405 32.80244427 123.91147614 35.15824173 122.12890625 37.5234375 C121.65050293 38.16047607 121.17209961 38.79751465 120.67919922 39.45385742 C119.90987061 40.466698 119.90987061 40.466698 119.125 41.5 C118.32473389 42.56021362 118.32473389 42.56021362 117.50830078 43.6418457 C113.14200859 49.40702826 108.68683796 55.09942945 104.203125 60.7734375 C98.90427324 67.48402713 93.72609052 74.28880362 88.5390625 81.0859375 C81.19307422 90.71031853 73.79044742 100.28835467 66.34619141 109.83691406 C63.33296583 113.70222341 60.32229468 117.56951873 57.3125 121.4375 C56.72476807 122.19281006 56.13703613 122.94812012 55.53149414 123.72631836 C51.39357841 129.04766051 47.28022987 134.38717188 43.17578125 139.734375 C40.05202417 143.79538108 36.89927391 147.83377488 33.75 151.875 C28.61555114 158.46532072 23.52344897 165.08622317 18.45776367 171.72949219 C14.52233021 176.88466595 10.55033759 182.0102845 6.5625 187.125 C0.33772294 195.10966619 -5.81997181 203.14391968 -11.96191406 211.19238281 C-18.02821399 219.13758967 -24.14444494 227.04063458 -30.33032227 234.89306641 C-34.66364561 240.39931364 -38.93691209 245.95042339 -43.19921875 251.51171875 C-44.45307504 253.14529177 -45.71036798 254.77616129 -46.96875 256.40625 C-47.81255813 257.49995515 -48.65630848 258.59370489 -49.5 259.6875 C-50.11294922 260.48172363 -50.11294922 260.48172363 -50.73828125 261.29199219 C-52.8592737 264.04759905 -54.95932474 266.81664441 -57.03125 269.609375 C-57.65374634 270.44746704 -57.65374634 270.44746704 -58.28881836 271.30249023 C-59.43647876 272.85175081 -60.57969947 274.40429735 -61.72265625 275.95703125 C-62.28855469 276.67246094 -62.85445313 277.38789063 -63.4375 278.125 C-63.7675 278.125 -64.0975 278.125 -64.4375 278.125 C-64.4375 188.695 -64.4375 99.265 -64.4375 7.125 C-48.0565583 3.61479821 -48.0565583 3.61479821 -40.5 2.5 C-39.73494141 2.37882812 -38.96988281 2.25765625 -38.18164062 2.1328125 C-25.52631416 0.23502923 -12.77583007 -0.04707263 0 0 Z " fill="#DB2826" transform="translate(319.4375,42.875)"/>
</svg>
