<?xml version="1.0" encoding="UTF-8"?>
<svg version="1.1" xmlns="http://www.w3.org/2000/svg" width="640" height="640" class="scale-[0.5] mx-auto">
<path d="M0 0 C211.2 0 422.4 0 640 0 C640 211.2 640 422.4 640 640 C428.8 640 217.6 640 0 640 C0 428.8 0 217.6 0 0 Z " fill="#FEFEFE" transform="translate(0,0)"/>
<path d="M0 0 C211.2 0 422.4 0 640 0 C640 211.2 640 422.4 640 640 C428.8 640 217.6 640 0 640 C0 428.8 0 217.6 0 0 Z M294 44 C291.16831682 44.30294382 288.33597165 44.50755058 285.49609375 44.71875 C283.00411573 44.8545027 283.00411573 44.8545027 281 46 C278.99577847 46.19368527 276.99096121 46.38272767 274.98388672 46.54418945 C264.9585223 47.37487377 255.76998183 49.37666051 246.17773438 52.33984375 C244.05922119 52.98204775 241.93328298 53.57668188 239.796875 54.15625 C191.67108981 67.35321183 145.91305816 97.23537037 113.59375 135.1953125 C112.0532082 136.93974953 110.43810531 138.52448506 108.75 140.125 C93.48373068 155.28903984 83.28420536 174.8862706 73.24169922 193.67919922 C72.46299333 195.13464125 71.67896983 196.58726405 70.88720703 198.03564453 C60.50934598 217.06091071 53.24602837 238.2037252 50.375 259.6875 C50.13651146 261.44191305 49.8945236 263.19585525 49.6484375 264.94921875 C49.54708496 265.70549561 49.44573242 266.46177246 49.34130859 267.2409668 C49 269 49 269 48 270 C47.80898008 271.5965677 47.67662188 273.20025135 47.5703125 274.8046875 C47.49683594 275.78050781 47.42335938 276.75632812 47.34765625 277.76171875 C47.1998135 279.82892354 47.05912855 281.89665332 46.92578125 283.96484375 C46.84972656 284.94324219 46.77367187 285.92164063 46.6953125 286.9296875 C46.63359863 287.82929199 46.57188477 288.72889648 46.50830078 289.65576172 C45.91591972 292.38777082 44.99597069 293.13643201 43 295 C42.74734595 298.09501208 42.60064987 300.20129973 44 303 C44.09859764 305.46921977 44.13986876 307.90958336 44.1328125 310.37890625 C44.13376923 311.10617416 44.13472595 311.83344208 44.13571167 312.58274841 C44.13639235 314.12018928 44.13454585 315.65763301 44.13037109 317.19506836 C44.12501351 319.556543 44.13032377 321.91782811 44.13671875 324.27929688 C44.1360581 325.77083376 44.13477721 327.26237052 44.1328125 328.75390625 C44.13483673 329.46430557 44.13686096 330.1747049 44.13894653 330.90663147 C44.11495714 335.88504286 44.11495714 335.88504286 43 337 C42.56243959 341.25624646 42.56243959 341.25624646 44.47216797 344.90356445 C46.24692061 347.33881548 46.46874842 348.75467078 46.6953125 351.73046875 C46.77136719 352.61541016 46.84742188 353.50035156 46.92578125 354.41210938 C46.99152344 355.32798828 47.05726562 356.24386719 47.125 357.1875 C47.26974744 359.014619 47.41799255 360.84146545 47.5703125 362.66796875 C47.62977051 363.47516357 47.68922852 364.2823584 47.75048828 365.11401367 C47.80671121 367.00946393 47.80671121 367.00946393 49 368 C49.21151084 371.16796236 49.31952198 374.33469082 49.42578125 377.5078125 C50.56670101 389.72879002 55.47851754 401.80476063 59.6875 413.25 C59.95044861 413.96889404 60.21339722 414.68778809 60.48431396 415.4284668 C71.18889787 444.60029716 86.28848193 470.30599674 105.78466797 494.47607422 C106.85850604 495.82257829 107.90236875 497.19286976 108.94140625 498.56640625 C116.6824551 508.71503832 126.10453972 517.96212533 135.88671875 526.15234375 C137.63843264 527.68387918 139.29745109 529.25049191 140.95703125 530.87890625 C154.85152446 544.41070408 170.96374496 553.93425472 188 563 C188.90975586 563.49032715 189.81951172 563.9806543 190.75683594 564.48583984 C206.81741534 573.13446999 222.59870292 580.44767322 240 585.9375 C241.43375977 586.39829956 241.43375977 586.39829956 242.89648438 586.8684082 C248.10490505 588.44797385 252.57839747 589.31402234 258.02734375 588.91235352 C260.44418387 589.0197354 261.87368264 589.88303536 264 591 C266.69911117 591.42617545 269.34930451 591.78165618 272.0625 592.0625 C279.65484085 592.88494695 279.65484085 592.88494695 283 594 C286.09306067 594.26730154 289.18568109 594.44451759 292.28515625 594.62109375 C295 595 295 595 297 597 C300.0059515 597.09241813 302.9113061 597.06440175 305.91015625 596.94140625 C306.79279648 596.91400864 307.67543671 596.88661102 308.58482361 596.85838318 C311.41113092 596.76942503 314.2367212 596.66682095 317.0625 596.5625 C319.89185685 596.46351445 322.7212349 596.36745699 325.55088806 596.27732849 C327.31390422 596.22063109 329.07675398 596.15846037 330.83937073 596.09046936 C332.89198874 596.02185488 334.9462428 596.00547669 337 596 C337.33 596.33 337.66 596.66 338 597 C340.33297433 597.04092937 342.66705225 597.04241723 345 597 C345 596.34 345 595.68 345 595 C345.99902344 594.93941406 346.99804688 594.87882813 348.02734375 594.81640625 C349.31769531 594.73261719 350.60804688 594.64882813 351.9375 594.5625 C353.22527344 594.48128906 354.51304687 594.40007813 355.83984375 594.31640625 C358.86023957 594.35080812 358.86023957 594.35080812 360 593 C361.97364124 592.78496465 363.94833913 592.57715277 365.92626953 592.40600586 C418.66404039 587.81721479 469.53707949 559.22160327 507.55419922 523.34423828 C509.61606408 521.42721229 511.7454992 519.5912435 513.875 517.75 C517.26037725 514.75784261 520.24291797 511.6052158 523.15234375 508.15234375 C524.43975935 506.65262706 525.76922659 505.18843067 527.12890625 503.75390625 C540.40226086 489.73706885 551.52706991 473.78622846 561 457 C561.45858398 456.18982422 561.91716797 455.37964844 562.38964844 454.54492188 C569.41861306 441.98107207 575.02838879 429.12061853 580.02294922 415.62841797 C580.92422473 413.20384722 581.84848377 410.78998036 582.78515625 408.37890625 C587.27084339 396.78842629 590.22455589 385.58297734 591.9987793 373.28393555 C592.90172736 367.09827264 592.90172736 367.09827264 594 366 C594.21385261 364.62369507 594.37027126 363.23832803 594.5 361.8515625 C594.5825 361.01109375 594.665 360.170625 594.75 359.3046875 C594.8325 358.42039062 594.915 357.53609375 595 356.625 C595.16350864 354.88772071 595.33005151 353.15072364 595.5 351.4140625 C595.5721875 350.6401416 595.644375 349.8662207 595.71875 349.06884766 C596 347 596 347 597 344 C597.09202568 342.40506513 597.12790755 340.80657123 597.12939453 339.20898438 C597.13254669 338.2378772 597.13569885 337.26677002 597.13894653 336.26623535 C597.1369223 335.21931519 597.13489807 334.17239502 597.1328125 333.09375 C597.13376923 332.01750366 597.13472595 330.94125732 597.13571167 329.83239746 C597.13639241 327.55607037 597.13454548 325.27974133 597.13037109 323.00341797 C597.12502139 319.51395315 597.13031968 316.02461705 597.13671875 312.53515625 C597.13605795 310.32552055 597.13477675 308.11588493 597.1328125 305.90625 C597.13483673 304.85932983 597.13686096 303.81240967 597.13894653 302.73376465 C597.13421829 301.27710388 597.13421829 301.27710388 597.12939453 299.79101562 C597.12859894 298.93624634 597.12780334 298.08147705 597.12698364 297.20080566 C597.08582616 294.82238553 597.08582616 294.82238553 596 292 C595.81130181 290.56523407 595.66026211 289.12529719 595.53515625 287.68359375 C595.41817383 286.41225586 595.41817383 286.41225586 595.29882812 285.11523438 C595.1437008 283.357552 594.9900078 281.59974232 594.83789062 279.84179688 C590.43781316 232.29949645 566.91837088 182.70496619 537 146 C536.25492188 145.05125 535.50984375 144.1025 534.7421875 143.125 C522.09091165 127.50413207 507.13665157 111.97297381 490.75488281 100.26757812 C488.79642058 98.85295154 486.87985664 97.38965454 484.9609375 95.921875 C449.44172583 69.0902107 405.36620492 50.58960741 361 46 C360.34 45.67 359.68 45.34 359 45 C357.00348191 44.79581065 355.00240179 44.63477704 353 44.5 C347.22222222 44.11111111 347.22222222 44.11111111 345 43 C343.47377363 42.9051175 341.94347881 42.87205514 340.41430664 42.87060547 C339.46314468 42.86745331 338.51198273 42.86430115 337.53199768 42.86105347 C336.50179001 42.8630777 335.47158234 42.86510193 334.41015625 42.8671875 C333.35469101 42.86623077 332.29922577 42.86527405 331.21177673 42.86428833 C328.97655172 42.86360693 326.74132474 42.86545842 324.50610352 42.86962891 C321.0801957 42.8749724 317.65441931 42.86968527 314.22851562 42.86328125 C312.05989554 42.86394214 309.89127554 42.86522354 307.72265625 42.8671875 C306.69447281 42.86516327 305.66628937 42.86313904 304.60694885 42.86105347 C303.65263474 42.86420563 302.69832062 42.86735779 301.71508789 42.87060547 C300.87506729 42.87140106 300.03504669 42.87219666 299.16957092 42.87301636 C296.81748051 42.91625287 296.81748051 42.91625287 294 44 Z " fill="#DA2928" transform="translate(0,0)"/>
<path d="M0 0 C7.41055664 0.01140549 14.82111447 0.01673263 22.23167777 0.021703 C37.41162377 0.0320128 52.59155325 0.04947284 67.7714864 0.07202661 C67.07148461 3.11122628 66.18927922 5.22071364 64.44726765 7.81812036 C61.89585613 11.78667757 59.85353649 15.81875042 57.9589864 20.13452661 C57.45250569 21.28682764 57.45250569 21.28682764 56.93579304 22.46240747 C50.80737412 36.71477539 46.09314846 51.48023159 41.8339864 66.38452661 C41.53935505 67.40361108 41.24472371 68.42269556 40.94116414 69.47266138 C39.4333956 74.90680784 38.45170156 80.07790054 38.01342976 85.69727075 C37.69672275 88.80585714 36.99661024 91.76377386 36.27539265 94.79956567 C35.20132355 99.64328427 34.60148209 104.58266189 33.91601765 109.49390161 C33.79613484 110.30085474 33.67625203 111.10780786 33.5527364 111.93921411 C33.45025593 112.66221704 33.34777546 113.38521997 33.24218953 114.13013208 C32.7714864 116.07202661 32.7714864 116.07202661 30.7714864 119.07202661 C30.5669779 121.75051034 30.5669779 121.75051034 30.7089864 124.63452661 C30.86910843 129.87678256 30.86910843 129.87678256 29.7714864 132.07202661 C29.75142741 133.61370355 29.77912709 135.15619547 29.8339864 136.69702661 C29.88615447 140.7313572 29.47700353 144.07067638 28.2089864 147.89233911 C27.52740112 151.28809433 27.71395596 154.61300896 27.7714864 158.07202661 C31.7410154 157.95403717 35.71029421 157.82980862 39.67944539 157.69971216 C41.03062787 157.65631438 42.38186693 157.61464291 43.73315632 157.57471216 C45.67185341 157.5171271 47.61034916 157.45288363 49.54883015 157.38843286 C51.30054524 157.33344629 51.30054524 157.33344629 53.08764851 157.27734888 C55.68928435 157.37126473 55.68928435 157.37126473 56.7714864 156.07202661 C60.41761354 155.65467595 64.06180526 155.30330218 67.71875203 154.99780786 C72.49520824 154.53315672 76.48403382 153.57818724 80.92309773 151.76782739 C83.67033967 150.73366552 86.43551772 150.37020976 89.3339864 149.94702661 C117.91929543 145.1426539 153.95357856 134.98846929 178.36352742 119.4187063 C180.7714864 118.07202661 180.7714864 118.07202661 184.7714864 118.07202661 C186.10512208 149.71646054 185.89218982 181.38236862 185.84351301 213.04725122 C185.83212378 220.5931936 185.82678424 228.13913712 185.82181001 235.68508601 C185.81148907 251.14740951 185.79401842 266.60971577 185.7714864 282.07202661 C185.1114864 282.40202661 184.4514864 282.73202661 183.7714864 283.07202661 C181.39650173 281.99638839 179.13129277 280.85885933 176.8339864 279.63452661 C150.35591262 266.03800132 121.88138963 256.64961993 92.5449239 251.72437036 C89.65425916 251.22463846 86.81404819 250.67433342 83.9589864 250.00952661 C75.43239287 248.04185118 66.89908302 246.87944424 58.1699239 246.31812036 C55.7714864 246.07202661 55.7714864 246.07202661 53.7714864 245.07202661 C51.74202521 244.8491558 49.70658897 244.67962726 47.6699239 244.53687036 C45.85234578 244.40635278 45.85234578 244.40635278 43.9980489 244.27319849 C42.09152546 244.14268091 42.09152546 244.14268091 40.1464864 244.00952661 C38.8677364 243.9186477 37.5889864 243.8277688 36.2714864 243.73413599 C33.10506646 243.50965099 29.93842049 243.28911738 26.7714864 243.07202661 C27.1014864 244.06202661 27.4314864 245.05202661 27.7714864 246.07202661 C27.90934223 247.97820317 27.99629441 249.88826778 28.0527364 251.79858911 C28.09011921 252.91233911 28.12750203 254.02608911 28.16601765 255.17358911 C28.2365638 257.53035296 28.30687476 259.88712386 28.37695515 262.24390161 C28.41433796 263.35507349 28.45172078 264.46624536 28.4902364 265.61108911 C28.52052937 266.63412134 28.55082234 267.65715356 28.58203328 268.71118677 C28.5112184 271.02785151 28.5112184 271.02785151 29.7714864 272.07202661 C30.25079311 275.27739023 30.64355472 278.48260839 31.0214864 281.70093286 C31.17511345 285.18311936 31.17511345 285.18311936 32.7714864 288.07202661 C33.10234926 289.9731721 33.38481452 291.88278532 33.6464864 293.79468286 C38.83776597 328.84059134 51.4753305 363.10485278 66.8105489 394.87671411 C67.7714864 397.07202661 67.7714864 397.07202661 67.7714864 399.07202661 C49.46757436 400.05735772 31.19008896 400.20865087 12.86602986 400.17342055 C8.97839748 400.16705312 5.09076381 400.16657286 1.20312703 400.16539514 C-6.11656152 400.16232046 -13.43623464 400.1541607 -20.75591648 400.14404565 C-29.10697705 400.13276256 -37.45803847 400.12734373 -45.8091048 400.12235022 C-62.94891657 400.11197358 -80.08871344 400.09445124 -97.2285136 400.07202661 C-96.92519115 399.46844324 -96.6218687 398.86485986 -96.30935466 398.24298608 C-83.71249213 372.94113649 -74.99843943 347.0226428 -67.91869915 319.68335474 C-67.33544256 317.47659406 -66.71671116 315.28760097 -66.06835735 313.09937036 C-65.36944041 310.58001861 -64.90681871 308.28952415 -64.6660136 305.69702661 C-64.2285136 302.07202661 -64.2285136 302.07202661 -63.2285136 301.07202661 C-63.03742398 299.05496948 -62.90276918 297.03253067 -62.7910136 295.00952661 C-62.42912252 289.42031996 -61.91690047 283.88041811 -61.2285136 278.32202661 C-61.10391765 277.28549951 -61.10391765 277.28549951 -60.97680461 276.22803247 C-60.35289279 271.32078499 -60.35289279 271.32078499 -59.2285136 269.07202661 C-59.00564279 267.04256542 -58.83611425 265.00712918 -58.69335735 262.97046411 C-58.56283977 261.15288599 -58.56283977 261.15288599 -58.42968547 259.29858911 C-58.2991679 257.39206567 -58.2991679 257.39206567 -58.1660136 255.44702661 C-58.07513469 254.16827661 -57.98425579 252.88952661 -57.89062297 251.57202661 C-57.66613798 248.40560667 -57.44560437 245.2389607 -57.2285136 242.07202661 C-58.11877239 242.23267602 -59.00903118 242.39332544 -59.9262675 242.55884302 C-62.69240938 242.98871365 -65.2738505 243.22079868 -68.0644511 243.28296411 C-79.45214393 243.61940932 -90.10066933 244.61045103 -101.2285136 247.07202661 C-103.08204354 247.42951059 -104.93613097 247.78412899 -106.7910136 248.13452661 C-109.53453019 248.68322993 -112.09953625 249.3318053 -114.7910136 250.13452661 C-117.51061108 250.87623501 -119.67915038 251.24393097 -122.44335735 251.46655786 C-126.99496397 251.94749451 -130.94669199 253.13214787 -135.2285136 254.69702661 C-141.4949671 256.90087821 -147.77608635 258.79449279 -154.19946086 260.48755395 C-168.11838602 264.17010571 -181.08175295 269.24356592 -194.2285136 275.07202661 C-195.87903877 275.79326184 -197.53004996 276.51338626 -199.1816386 277.23218286 C-201.8853822 278.40978479 -204.5841123 279.59764496 -207.27929485 280.79468286 C-210.2285136 282.07202661 -210.2285136 282.07202661 -213.2285136 283.07202661 C-214.21384471 264.76811457 -214.36513786 246.49062917 -214.32990754 228.16657007 C-214.3235401 224.27893769 -214.32305985 220.39130402 -214.32188213 216.50366724 C-214.31880744 209.18397869 -214.31064769 201.86430557 -214.30053264 194.54462373 C-214.28924955 186.19356316 -214.28383072 177.84250174 -214.2788372 169.49143541 C-214.26846057 152.35162364 -214.25093823 135.21182677 -214.2285136 118.07202661 C-210.39404094 118.90405786 -210.39404094 118.90405786 -208.90429485 120.41577661 C-191.08302133 138.02934297 -144.80073075 147.64516847 -120.91210735 149.78296411 C-118.2285136 150.07202661 -118.2285136 150.07202661 -117.2285136 151.07202661 C-113.49485329 151.52172861 -109.76227799 151.89235764 -106.0175761 152.23413599 C-101.70152482 152.66644405 -98.24457934 153.35698074 -94.2285136 155.07202661 C-92.026555 155.2749231 -92.026555 155.2749231 -89.8535136 155.13452661 C-85.86715211 155.0421275 -82.17204955 155.41477062 -78.2285136 156.07202661 C-74.19433574 156.68095912 -70.15631201 157.22870324 -66.1035136 157.69702661 C-65.29656047 157.79241724 -64.48960735 157.88780786 -63.6582011 157.98608911 C-61.02411549 158.07925613 -58.79658639 157.62473098 -56.2285136 157.07202661 C-56.36663282 152.75924276 -56.51529469 148.44688708 -56.6660136 144.13452661 C-56.70533 142.90282739 -56.74464641 141.67112817 -56.78515422 140.40210474 C-56.84799602 138.64736841 -56.84799602 138.64736841 -56.91210735 136.85718286 C-56.94876506 135.77316186 -56.98542278 134.68914087 -57.02319133 133.57227075 C-56.95215625 131.13276361 -56.95215625 131.13276361 -58.2285136 130.07202661 C-58.54948917 128.48517898 -58.81668578 126.88738386 -59.06054485 125.28687036 C-59.21684368 124.29010278 -59.3731425 123.2933352 -59.53417766 122.26636255 C-59.70143352 121.19160669 -59.86868938 120.11685083 -60.0410136 119.00952661 C-61.63503561 109.18977662 -63.54708727 99.65739972 -66.2285136 90.07202661 C-66.50711223 89.06156274 -66.78571086 88.05109888 -67.07275188 87.01001489 C-74.74660082 59.25752227 -83.43893023 32.1827578 -96.36523235 6.36499536 C-97.2285136 4.07202661 -97.2285136 4.07202661 -96.2285136 1.07202661 C-64.16041153 -0.16599473 -32.08551958 -0.05029988 0 0 Z " fill="#DA2827" transform="translate(335.2285135984421,118.92797338962555)"/>
<path d="M0 0 C0.99 0.495 0.99 0.495 2 1 C2.41114299 3.99373004 2.70657928 6.92860851 2.9375 9.9375 C4.16002098 23.66687799 6.20863525 36.91290223 9.96484375 50.1953125 C10.71177671 52.94064346 11.39035996 55.65523479 12.00390625 58.4296875 C12.25442749 59.55588501 12.25442749 59.55588501 12.51000977 60.70483398 C12.82497916 62.14000841 13.13212331 63.57693476 13.42944336 65.01586914 C14.38771416 69.34200236 15.86579976 72.90698774 17.92919922 76.81811523 C20.01919971 81.0767414 21.46739645 85.60093898 23.0625 90.0625 C29.88293566 108.6299578 38.4395064 126.27217813 49 143 C49.39509766 143.62777344 49.79019531 144.25554687 50.19726562 144.90234375 C66.69232391 170.87328658 87.37343469 196.18178559 111 216 C111.54124512 216.45503906 112.08249023 216.91007813 112.64013672 217.37890625 C148.59070987 247.47079622 188.89131231 269.27560077 233.875 282.5625 C234.92558594 282.87896484 235.97617188 283.19542969 237.05859375 283.52148438 C242.74046845 285.19617961 248.11455375 286.38084549 254 287 C254.33 287.33 254.66 287.66 255 288 C257.83399485 288.37474312 260.65751821 288.70610851 263.5 289 C271.86486486 289.86486486 271.86486486 289.86486486 273 291 C274.64107242 291.20839015 276.28856293 291.36751725 277.9375 291.5 C282.78044597 291.89022298 282.78044597 291.89022298 285 293 C286.70363822 293.22622081 288.41328701 293.40888473 290.125 293.5625 C291.49011719 293.68818359 291.49011719 293.68818359 292.8828125 293.81640625 C293.58148438 293.87699219 294.28015625 293.93757813 295 294 C295 294.33 295 294.66 295 295 C197.65 295 100.3 295 0 295 C0 197.65 0 100.3 0 0 Z " fill="#FEFEFE" transform="translate(0,345)"/>
<path d="M0 0 C0.33 0 0.66 0 1 0 C1 93.39 1 186.78 1 283 C-96.35 283 -193.7 283 -294 283 C-294 282.67 -294 282.34 -294 282 C-293.13503906 281.90203125 -292.27007812 281.8040625 -291.37890625 281.703125 C-282.40863751 280.63807774 -273.48533688 279.34660367 -264.5625 277.9375 C-263.44238525 277.7631543 -262.32227051 277.58880859 -261.16821289 277.40917969 C-260.1239917 277.24192383 -259.07977051 277.07466797 -258.00390625 276.90234375 C-257.06361572 276.75273193 -256.1233252 276.60312012 -255.15454102 276.44897461 C-253.02862406 276.2112856 -253.02862406 276.2112856 -252 275 C-249.77854367 274.71612221 -247.55682352 274.55234827 -245.32421875 274.37890625 C-242.85406876 273.97620953 -241.21343618 273.13487335 -239 272 C-237.46932511 271.63747174 -235.92551167 271.32765265 -234.375 271.0625 C-226.66273601 269.60158656 -219.65621099 267.33389207 -212.5144043 264.11083984 C-209.93304896 262.97042167 -207.33197817 261.89931729 -204.71484375 260.84375 C-170.80229384 247.13185888 -138.12909209 229.71026783 -110.57348633 205.38452148 C-109.43395811 204.38184274 -108.28697177 203.3876192 -107.13549805 202.39868164 C-102.20031046 198.14333825 -97.53109089 193.68282371 -92.9375 189.0625 C-92.26912109 188.39798828 -91.60074219 187.73347656 -90.91210938 187.04882812 C-86.40237433 182.5303278 -82.16461737 177.83598832 -78 173 C-77.0393527 171.91655484 -76.07719549 170.83444592 -75.11328125 169.75390625 C-50.27515327 141.61395378 -32.00893055 107.20307037 -18.3515625 72.40234375 C-16.41288063 67.5220203 -14.34900417 62.69800834 -12 58 C-11.47298255 54.79360811 -11.03900097 51.57859531 -10.59765625 48.359375 C-10 45 -10 45 -8.9609375 41.90234375 C-7.77403804 38.3175214 -7.61980707 35.01594839 -7.44140625 31.26953125 C-6.91349253 28.55521382 -6.00565151 27.82098794 -4 26 C-2.95023036 22.85069107 -2.89868405 20.61185544 -2.9375 17.3125 C-2.95103516 15.82169922 -2.95103516 15.82169922 -2.96484375 14.30078125 C-2.97644531 13.54152344 -2.98804688 12.78226562 -3 12 C-2.34 11.67 -1.68 11.34 -1 11 C-0.5316735 8.41394668 -0.5316735 8.41394668 -0.375 5.4375 C-0.30023437 4.42558594 -0.22546875 3.41367187 -0.1484375 2.37109375 C-0.09945313 1.58863281 -0.05046875 0.80617188 0 0 Z " fill="#FEFEFE" transform="translate(639,357)"/>
<path d="M0 0 C92.4 0 184.8 0 280 0 C277.19235297 2.80764703 274.83922895 2.59016455 270.9375 3.0625 C266.64177694 3.22844435 266.64177694 3.22844435 263 5 C260.9427083 5.31923492 258.88386479 5.51161352 256.8125 5.71875 C254.9832467 5.81998043 254.9832467 5.81998043 254 7 C251.48393551 7.24349011 248.96913976 7.38363366 246.4453125 7.5234375 C243.95349836 7.76703599 243.95349836 7.76703599 242.57421875 9.47265625 C240.21056213 11.76593103 237.90711263 11.68000853 234.6875 12.0625 C227.13511406 12.98352268 220.6263008 15.49416087 213.6640625 18.4140625 C212.86704926 18.74739594 212.07003601 19.08072937 211.24887085 19.42416382 C209.56237968 20.13068827 207.87640524 20.83844727 206.19091797 21.54736328 C203.66992234 22.60613347 201.14563423 23.65674721 198.62109375 24.70703125 C188.19223846 29.0721174 178.03034682 33.78450481 168 39 C167.11779785 39.45793945 166.2355957 39.91587891 165.32666016 40.38769531 C154.34823428 46.17877353 144.04472469 52.71777893 134 60 C133.44586426 60.40105957 132.89172852 60.80211914 132.32080078 61.21533203 C110.25501673 77.28094871 88.60142811 96.2126641 72 118 C71.23042969 118.96421875 70.46085937 119.9284375 69.66796875 120.921875 C58.95021854 134.41648718 49.45385924 148.98911193 41 164 C40.3198584 165.2065625 40.3198584 165.2065625 39.62597656 166.4375 C30.90369698 182.09914832 24.25536863 198.24137191 18 215 C17.69006104 215.80622803 17.38012207 216.61245605 17.06079102 217.44311523 C15.82297054 220.66681573 14.6864655 223.78723859 14.0625 227.1875 C13.27470347 231.02718054 12.18810326 234.70220857 11 238.4375 C8.22951023 247.29280618 6.77395962 256.13786975 5.46484375 265.3125 C5 268 5 268 4 270 C3.80276088 271.72615981 3.65565927 273.45819825 3.53515625 275.19140625 C3.45716797 276.21814453 3.37917969 277.24488281 3.29882812 278.30273438 C3.14101446 280.47951956 2.98738188 282.65661182 2.83789062 284.83398438 C2.75861328 285.85943359 2.67933594 286.88488281 2.59765625 287.94140625 C2.49723022 289.35981812 2.49723022 289.35981812 2.39477539 290.80688477 C2.26449951 291.53061279 2.13422363 292.25434082 2 293 C1.34 293.33 0.68 293.66 0 294 C0 196.98 0 99.96 0 0 Z " fill="#FEFEFE" transform="translate(0,0)"/>
<path d="M0 0 C93.39 0 186.78 0 283 0 C283 92.4 283 184.8 283 280 C280.88660669 276.82991003 280.68986736 275.55848959 280.4375 271.875 C280.45515121 268.63079025 280.45515121 268.63079025 279 266 C278.71681146 263.15912448 278.55149787 260.31834785 278.37890625 257.46875 C278.25386719 256.6540625 278.12882812 255.839375 278 255 C277.34 254.67 276.68 254.34 276 254 C275.65625 251.41796875 275.65625 251.41796875 275.5 248.1875 C275.30408535 244.16635173 274.88608612 241.52904396 273 238 C272.65625 235.9296875 272.65625 235.9296875 272.5 233.875 C272.40013282 229.99293052 272.40013282 229.99293052 270 228 C269.855625 226.845 269.71125 225.69 269.5625 224.5 C269.376875 223.345 269.19125 222.19 269 221 C268.01 220.34 267.02 219.68 266 219 C265.47374139 216.91625926 265.05813978 214.80446711 264.6875 212.6875 C257.58144264 179.75462644 233.68355978 145.82889343 213 120 C211.84177734 118.53433594 211.84177734 118.53433594 210.66015625 117.0390625 C206.64004854 112.02251783 202.48732515 107.34334912 197.87109375 102.87109375 C196.10992458 101.10992458 194.52822374 99.28953519 192.9375 97.375 C184.15621116 87.18709738 173.55671978 78.27295948 163 70 C161.99710938 69.20207031 160.99421875 68.40414062 159.9609375 67.58203125 C146.75783783 57.16728986 132.65284878 48.22746895 118 40 C117.21947266 39.56042969 116.43894531 39.12085938 115.63476562 38.66796875 C103.6814433 32.00483165 91.44058621 26.5094405 78.70947266 21.52758789 C77.60522949 21.09438232 76.50098633 20.66117676 75.36328125 20.21484375 C74.37626221 19.83448975 73.38924316 19.45413574 72.37231445 19.06225586 C70 18 70 18 68 16 C65.97672014 15.46632328 63.92932646 15.02276253 61.875 14.625 C55.72610544 13.38382252 49.66179648 11.95247703 43.59521484 10.35791016 C40.47314769 9.55317112 37.4851263 8.94057072 34.27734375 8.5703125 C31 8 31 8 28.9921875 6.47265625 C26.110249 4.3422821 23.66464002 4.555488 20.125 4.4375 C15.32064887 4.26628662 11.51644753 3.63374289 7 2 C4.67305036 1.62468554 2.34023315 1.28082798 0 1 C0 0.67 0 0.34 0 0 Z " fill="#FEFEFE" transform="translate(357,0)"/>
<path d="M0 0 C7.41055632 0.01140873 14.82111383 0.01673358 22.23167682 0.02170396 C37.41162282 0.03201375 52.5915523 0.0494738 67.77148545 0.07202756 C67.44148545 1.39202756 67.11148545 2.71202756 66.77148545 4.07202756 C63.94980776 4.07202756 61.15304936 3.97455075 58.33398545 3.8576721 C32.10930506 2.86148184 5.88328905 2.91845913 -20.35693252 2.94165647 C-25.6476311 2.9462666 -30.93830522 2.94644081 -36.22900283 2.94165647 C-42.70556133 2.93585433 -49.18209961 2.93494992 -55.65865982 2.9382118 C-58.10179544 2.93887518 -60.54493196 2.93807339 -62.98806655 2.93573225 C-66.38334349 2.93318486 -69.77855499 2.93707249 -73.17382705 2.94263303 C-74.16496002 2.9406088 -75.15609298 2.93858457 -76.17726028 2.936499 C-86.69866358 2.58546205 -86.69866358 2.58546205 -96.22851455 6.07202756 C-96.79101455 4.13452756 -96.79101455 4.13452756 -97.22851455 2.07202756 C-95.43950851 0.28302152 -92.77546285 0.83589896 -90.35082901 0.75781858 C-89.71203245 0.73716022 -89.07323589 0.71650186 -88.41508186 0.69521749 C-86.2032965 0.62751356 -83.99140396 0.56957513 -81.7792958 0.51343381 C-80.99147531 0.4923764 -80.20365482 0.47131898 -79.39196098 0.44962347 C-52.93680184 -0.23394935 -26.46197061 -0.04147233 0 0 Z " fill="#AC413D" transform="translate(335.2285145521164,118.92797243595123)"/>
<path d="M0 0 C0.99 0.33 1.98 0.66 3 1 C2.99907821 1.81575626 2.99815641 2.63151253 2.99720669 3.47198868 C2.9751341 23.30993273 2.95857996 43.14787466 2.94818783 62.9858284 C2.94302886 72.57926118 2.93599373 82.17268576 2.92456055 91.76611328 C2.91460156 100.12654429 2.90814367 108.48696937 2.90591151 116.84740615 C2.90460647 121.27525425 2.90153365 125.70308537 2.89426994 130.13092804 C2.88749059 134.29720495 2.88538696 138.46345786 2.88689232 142.62973976 C2.88661686 144.15999036 2.88462307 145.69024176 2.88079453 147.22048759 C2.8758274 149.30793035 2.8770129 151.39528225 2.87974548 153.48272705 C2.87882369 154.65156055 2.8779019 155.82039406 2.87695217 157.02464676 C2.98105721 159.54195462 3.2598722 161.60646145 4 164 C3.01 164.33 2.02 164.66 1 165 C0.01466889 146.69608796 -0.13662426 128.41860256 -0.10139394 110.09454346 C-0.09502651 106.20691108 -0.09454625 102.31927741 -0.09336853 98.43164062 C-0.09029385 91.11195208 -0.08213409 83.79227896 -0.07201904 76.47259712 C-0.06073595 68.12153655 -0.05531712 59.77047513 -0.05032361 51.4194088 C-0.03994697 34.27959703 -0.02242463 17.13980016 0 0 Z " fill="#A33430" transform="translate(121,237)"/>
<path d="M0 0 C0.66 0.66 1.32 1.32 2 2 C4.80205032 2.30267888 4.80205032 2.30267888 8.14268494 2.24723816 C9.45370682 2.25143265 10.7647287 2.25562714 12.11547852 2.25994873 C13.57690503 2.25446477 15.03833081 2.24878177 16.49975586 2.24291992 C18.0321104 2.24399235 19.56446455 2.24593045 21.09681702 2.24867249 C25.26622837 2.25353064 29.43553313 2.24585276 33.60493159 2.23571944 C37.96241436 2.22695294 42.31989364 2.22869613 46.67738342 2.2290802 C53.99709869 2.22814281 61.31677257 2.21944934 68.63647461 2.20581055 C77.10476631 2.1900901 85.57301264 2.18481221 94.04131788 2.1855461 C102.17850242 2.18615612 110.31567215 2.18105266 118.45285225 2.17275429 C121.9196948 2.16921956 125.38653212 2.16739076 128.85337639 2.16686058 C132.93514737 2.16585723 137.01688015 2.15976123 141.09863853 2.14969444 C142.59866858 2.14676941 144.09870302 2.14554408 145.59873581 2.14612198 C147.64260514 2.14661148 149.6864728 2.14034753 151.73033142 2.13371277 C152.87536605 2.13203692 154.02040068 2.13036108 155.20013332 2.12863445 C158.08332616 2.12353298 158.08332616 2.12353298 161 1 C161.33 1.99 161.66 2.98 162 4 C143.69608796 4.98533111 125.41860256 5.13662426 107.09454346 5.10139394 C103.20691108 5.09502651 99.31927741 5.09454625 95.43164062 5.09336853 C88.11195208 5.09029385 80.79227896 5.08213409 73.47259712 5.07201904 C65.12153655 5.06073595 56.77047513 5.05531712 48.4194088 5.05032361 C31.27959703 5.03994697 14.13980016 5.02242463 -3 5 C-1.125 1.125 -1.125 1.125 0 0 Z " fill="#9F2421" transform="translate(241,514)"/>
<path d="M0 0 C1.32 0 2.64 0 4 0 C5.33363568 31.64443393 5.12070342 63.31034201 5.07202661 94.97522461 C5.06063738 102.52116699 5.05529784 110.06711051 5.05032361 117.6130594 C5.04000267 133.0753829 5.02253202 148.53768916 5 164 C4.01 164 3.02 164 2 164 C2.24413887 163.18372887 2.24413887 163.18372887 2.49320984 162.35096741 C3.08006559 159.62858078 3.11766787 157.17140511 3.10864258 154.38452148 C3.10630867 152.59269188 3.10630867 152.59269188 3.10392761 150.7646637 C3.09678766 149.4043062 3.08948125 148.04394958 3.08203125 146.68359375 C3.07743731 145.20934654 3.07320564 143.73509817 3.06929016 142.260849 C3.05887408 138.83848977 3.04450302 135.41617012 3.02789307 131.99383545 C3.00728348 127.72321281 2.99047466 123.45259372 2.97601318 119.1819458 C2.92656819 104.66970612 2.85823869 90.15775679 2.76426506 75.64574623 C2.71890069 68.59139989 2.67943262 61.53711326 2.65356445 54.48266602 C2.63062633 48.22884741 2.59734954 41.97518741 2.55129844 35.72149462 C2.52745529 32.43825292 2.51021638 29.15519845 2.50238609 25.87187386 C2.4928278 22.24775241 2.46489252 18.62422176 2.43237305 15.00024414 C2.43380814 13.9236554 2.43524323 12.84706665 2.4367218 11.737854 C2.42418365 10.75633865 2.41164551 9.7748233 2.39872742 8.76356506 C2.39411845 7.91082032 2.38950949 7.05807558 2.38476086 6.17949009 C1.92055665 3.5499906 1.03728486 2.66050782 -1 1 C-0.67 0.67 -0.34 0.34 0 0 Z " fill="#A3302D" transform="translate(516,237)"/>
<path d="M0 0 C0.66 0.33 1.32 0.66 2 1 C1.01 11.89 0.02 22.78 -1 34 C-2.485 34.495 -2.485 34.495 -4 35 C-4.02689216 33.52093108 -4.04634621 32.04172517 -4.0625 30.5625 C-4.07410156 29.73878906 -4.08570313 28.91507812 -4.09765625 28.06640625 C-4 26 -4 26 -3 25 C-2.78446956 23.31934899 -2.62897597 21.63090511 -2.5 19.94140625 C-2.4175 18.91595703 -2.335 17.89050781 -2.25 16.83398438 C-2.1675 15.75439453 -2.085 14.67480469 -2 13.5625 C-1.83710557 11.43850941 -1.67061718 9.31479043 -1.5 7.19140625 C-1.4278125 6.24467041 -1.355625 5.29793457 -1.28125 4.32250977 C-1 2 -1 2 0 0 Z " fill="#824E48" transform="translate(4,268)"/>
<path d="M0 0 C5.97873264 0.11935764 5.97873264 0.11935764 7.08984375 1.23046875 C8.55403202 1.35088449 10.02339299 1.40994342 11.4921875 1.44140625 C12.38228516 1.46976563 13.27238281 1.498125 14.18945312 1.52734375 C16.07727771 1.57931414 17.9653293 1.62361913 19.85351562 1.66015625 C21.1905957 1.7065625 21.1905957 1.7065625 22.5546875 1.75390625 C23.37573975 1.77372559 24.19679199 1.79354492 25.04272461 1.81396484 C27.08984375 2.23046875 27.08984375 2.23046875 29.08984375 5.23046875 C10.71852022 5.54480699 10.71852022 5.54480699 6.08984375 3.23046875 C4.38620553 3.00424794 2.67655674 2.82158402 0.96484375 2.66796875 C0.05476563 2.58417969 -0.8553125 2.50039063 -1.79296875 2.4140625 C-2.49164063 2.35347656 -3.1903125 2.29289063 -3.91015625 2.23046875 C-1.91015625 0.23046875 -1.91015625 0.23046875 0 0 Z " fill="#83524C" transform="translate(276.91015625,634.76953125)"/>
<path d="M0 0 C-0.33 0.66 -0.66 1.32 -1 2 C-3.3449707 2.61010742 -3.3449707 2.61010742 -6.42578125 3.10546875 C-8.08577148 3.37327148 -8.08577148 3.37327148 -9.77929688 3.64648438 C-11.52823242 3.91428711 -11.52823242 3.91428711 -13.3125 4.1875 C-14.46685547 4.37763672 -15.62121094 4.56777344 -16.81054688 4.76367188 C-26.24804754 6.24803791 -26.24804754 6.24803791 -30 5 C-24.31125084 1.95718068 -19.20561351 1.5208697 -12.79296875 1.2109375 C-8.29221873 0.87102072 -4.74449681 -0.07652414 0 0 Z " fill="#8F5C55" transform="translate(387,632)"/>
<path d="M0 0 C0.99 0.33 1.98 0.66 3 1 C2.67 13.21 2.34 25.42 2 38 C1.67 38 1.34 38 1 38 C0.25863082 25.31729149 -0.13809004 12.70428397 0 0 Z " fill="#8F221D" transform="translate(121,237)"/>
<path d="M0 0 C-3.27732984 2.18488656 -4.72267988 2.32219168 -8.5625 2.5625 C-12.42660649 2.73929053 -12.42660649 2.73929053 -16 4 C-18.87910588 4.23274209 -21.74146495 4.41972757 -24.625 4.5625 C-25.42679687 4.60568359 -26.22859375 4.64886719 -27.0546875 4.69335938 C-29.0362511 4.79951457 -31.01810271 4.90026855 -33 5 C-30.68353741 2.68353741 -30.13726838 2.7240906 -27 2.5 C-23.6396053 2.20522854 -20.47338029 1.69659674 -17.1875 0.9375 C-11.45921394 -0.2803246 -5.83041473 -0.18032211 0 0 Z " fill="#8B5A54" transform="translate(297,43)"/>
<path d="M0 0 C0.33 0 0.66 0 1 0 C1.10621544 8.74507107 1.01286753 17.30019136 0 26 C-0.99 26.33 -1.98 26.66 -3 27 C-2.69487497 22.68694448 -2.37967167 18.37468505 -2.0625 14.0625 C-1.97548828 12.83080078 -1.88847656 11.59910156 -1.79882812 10.33007812 C-1.71181641 9.16025391 -1.62480469 7.99042969 -1.53515625 6.78515625 C-1.456604 5.70113525 -1.37805176 4.61711426 -1.29711914 3.50024414 C-1 1 -1 1 0 0 Z " fill="#783B34" transform="translate(639,342)"/>
<path d="M0 0 C2.26598448 3.39897673 2.23742654 4.56319173 2.1953125 8.54296875 C2.18886719 9.61611328 2.18242187 10.68925781 2.17578125 11.79492188 C2.15902344 12.91447266 2.14226562 14.03402344 2.125 15.1875 C2.11597656 16.31865234 2.10695313 17.44980469 2.09765625 18.61523438 C2.07406862 21.41036828 2.041153 24.20507845 2 27 C-0.59016614 24.40983386 -0.31130192 23.1983245 -0.44921875 19.58984375 C-0.51399414 17.98206055 -0.51399414 17.98206055 -0.58007812 16.34179688 C-0.61552734 15.21837891 -0.65097656 14.09496094 -0.6875 12.9375 C-0.73455078 11.81021484 -0.78160156 10.68292969 -0.83007812 9.52148438 C-1.05566517 3.37886003 -1.05566517 3.37886003 -1 1 C-0.67 0.67 -0.34 0.34 0 0 Z " fill="#863D38" transform="translate(361,362)"/>
<path d="M0 0 C1.47583955 0.0001591 2.95168467 0.00585225 4.42749023 0.01586914 C5.20293686 0.01728409 5.97838348 0.01869904 6.77732849 0.02015686 C9.26361893 0.02577194 11.74982059 0.03832693 14.23608398 0.05102539 C15.91772331 0.05603845 17.59936405 0.06060169 19.28100586 0.06469727 C23.41189965 0.07574626 27.54272674 0.09302094 31.67358398 0.11352539 C31.67358398 0.44352539 31.67358398 0.77352539 31.67358398 1.11352539 C30.69917358 1.15110962 30.69917358 1.15110962 29.70507812 1.18945312 C26.71527311 1.3066639 23.72568863 1.42881458 20.73608398 1.55102539 C19.71450195 1.5903418 18.69291992 1.6296582 17.64038086 1.67016602 C6.63956738 1.58879879 6.63956738 1.58879879 -3.32641602 5.11352539 C-3.88891602 3.17602539 -3.88891602 3.17602539 -4.32641602 1.11352539 C-3.32641602 0.11352539 -3.32641602 0.11352539 0 0 Z " fill="#715955" transform="translate(242.326416015625,119.886474609375)"/>
<path d="M0 0 C0.33 0 0.66 0 1 0 C0.85936865 2.29199177 0.71234057 4.58359186 0.5625 6.875 C0.48128906 8.15117187 0.40007812 9.42734375 0.31640625 10.7421875 C0 14 0 14 -1 16 C-1.23174479 18.30028162 -1.38109483 20.59880047 -1.5234375 22.90625 C-2 25 -2 25 -5 27 C-2.33848134 2.33848134 -2.33848134 2.33848134 0 0 Z " fill="#8C4D47" transform="translate(370,210)"/>
<path d="M0 0 C0.66 0.33 1.32 0.66 2 1 C2 1.66 2 2.32 2 3 C-15.325 3.495 -15.325 3.495 -33 4 C-33 3.34 -33 2.68 -33 2 C-32.0713916 1.97494385 -31.1427832 1.9498877 -30.18603516 1.92407227 C-26.74564196 1.82902068 -23.30542287 1.72978293 -19.86523438 1.62768555 C-18.37537359 1.58433411 -16.88546305 1.54265916 -15.39550781 1.50268555 C-13.25570673 1.44498785 -11.11615615 1.38129245 -8.9765625 1.31640625 C-7.68830566 1.27974854 -6.40004883 1.24309082 -5.07275391 1.20532227 C-2.0872318 1.20469325 -2.0872318 1.20469325 0 0 Z " fill="#724F4A" transform="translate(401,515)"/>
<path d="M0 0 C0.99 0.33 1.98 0.66 3 1 C4.33451263 1.11235161 5.67354389 1.17575649 7.01245117 1.20532227 C8.2133564 1.2352401 8.2133564 1.2352401 9.43852234 1.26576233 C10.29798965 1.28247482 11.15745697 1.29918732 12.04296875 1.31640625 C12.9265657 1.33718735 13.81016266 1.35796844 14.72053528 1.37937927 C17.54277785 1.44475754 20.36511335 1.50370528 23.1875 1.5625 C25.10092106 1.60569637 27.01433273 1.64931102 28.92773438 1.69335938 C33.61839437 1.80042695 38.30914783 1.90172752 43 2 C43 2.33 43 2.66 43 3 C28.48 3 13.96 3 -1 3 C-0.67 2.01 -0.34 1.02 0 0 Z " fill="#9D3F39" transform="translate(239,516)"/>
<path d="M0 0 C0.77472656 0.00451172 1.54945313 0.00902344 2.34765625 0.01367188 C4.23180524 0.02530242 6.11591365 0.04323094 8 0.0625 C7.67 1.3825 7.34 2.7025 7 4.0625 C6.34 3.7325 5.68 3.4025 5 3.0625 C3.33434251 2.91027027 1.66343504 2.81332785 -0.0078125 2.74609375 C-0.99394531 2.70419922 -1.98007812 2.66230469 -2.99609375 2.61914062 C-4.54490234 2.56016602 -4.54490234 2.56016602 -6.125 2.5 C-7.16527344 2.45681641 -8.20554687 2.41363281 -9.27734375 2.36914062 C-11.85142528 2.2628712 -14.42560508 2.16083417 -17 2.0625 C-17 1.7325 -17 1.4025 -17 1.0625 C-11.28094617 0.23713655 -5.7732851 -0.06503701 0 0 Z " fill="#7B3A35" transform="translate(395,118.9375)"/>
<path d="M0 0 C0.33 0 0.66 0 1 0 C0.91915297 3.27184808 0.80631126 6.54182779 0.6875 9.8125 C0.66494141 10.74126953 0.64238281 11.67003906 0.61914062 12.62695312 C0.58369141 13.51962891 0.54824219 14.41230469 0.51171875 15.33203125 C0.48553467 16.15421143 0.45935059 16.9763916 0.43237305 17.82348633 C-0.08463956 20.42606532 -0.98202695 21.33910717 -3 23 C-3.2974708 15.56322999 -2.35912418 8.31149283 -1 1 C-0.67 0.67 -0.34 0.34 0 0 Z " fill="#8B5F59" transform="translate(47,272)"/>
<path d="M0 0 C1.32 0 2.64 0 4 0 C4 11.22 4 22.44 4 34 C3.67 34 3.34 34 3 34 C2.98541748 33.10692139 2.97083496 32.21384277 2.95581055 31.29370117 C2.89472923 27.97782722 2.82057522 24.66278101 2.73754883 21.34741211 C2.70430999 19.91295372 2.67627465 18.47836487 2.65356445 17.04370117 C2.61999729 14.98039193 2.56768587 12.91827697 2.51171875 10.85546875 C2.48553467 9.61434326 2.45935059 8.37321777 2.43237305 7.09448242 C2.26711836 4.00121683 2.26711836 4.00121683 0.46801758 2.0715332 C-0.01642822 1.71792725 -0.50087402 1.36432129 -1 1 C-0.67 0.67 -0.34 0.34 0 0 Z " fill="#6C534E" transform="translate(516,237)"/>
<path d="M0 0 C0.33 0 0.66 0 1 0 C1.02505615 0.91813477 1.0501123 1.83626953 1.07592773 2.78222656 C1.1712027 6.19657025 1.27042778 9.61075203 1.37231445 13.02490234 C1.41556035 14.5010939 1.45724256 15.97733215 1.49731445 17.45361328 C1.55526846 19.57859348 1.61888946 21.70334093 1.68359375 23.828125 C1.72025146 25.1059082 1.75690918 26.38369141 1.79467773 27.70019531 C1.95763259 30.31909873 2.22946803 32.51016716 3 35 C1.515 35.495 1.515 35.495 0 36 C0 24.12 0 12.24 0 0 Z " fill="#604440" transform="translate(122,366)"/>
<path d="M0 0 C1.9591474 1.63072223 2.9068329 2.55078834 3.43237305 5.0847168 C3.45855713 5.86500244 3.48474121 6.64528809 3.51171875 7.44921875 C3.54716797 8.29677734 3.58261719 9.14433594 3.61914062 10.01757812 C3.64169922 10.89865234 3.66425781 11.77972656 3.6875 12.6875 C3.72166016 13.58017578 3.75582031 14.47285156 3.79101562 15.39257812 C3.87345648 17.59492671 3.94261551 19.79687938 4 22 C-0.0525604 17.9474396 0.16266825 10.14153054 -0.125 4.5859375 C-0.125 3.05672391 -0.0710494 1.52756217 0 0 Z " fill="#85625C" transform="translate(44,344)"/>
<path d="M0 0 C0.33 0 0.66 0 1 0 C1.05849554 3.20825562 1.09376162 6.41637233 1.125 9.625 C1.15013672 10.98044922 1.15013672 10.98044922 1.17578125 12.36328125 C1.21201643 17.32750152 0.96444146 21.34411907 -1 26 C-1.33 26 -1.66 26 -2 26 C-2.38064163 17.20294908 -1.20731692 8.68836995 0 0 Z " fill="#9C6760" transform="translate(275,390)"/>
<path d="M0 0 C0.99 0.33 1.98 0.66 3 1 C3 6.28 3 11.56 3 17 C2.67 17 2.34 17 2 17 C-0.44064587 11.35600642 -0.19289099 6.02248522 0 0 Z " fill="#7B2F27" transform="translate(0,334)"/>
<path d="M0 0 C2.62697064 -0.22137393 5.00893964 -0.28162025 7.625 -0.1875 C8.33140625 -0.17396484 9.0378125 -0.16042969 9.765625 -0.14648438 C11.51074128 -0.1111104 13.25546608 -0.05730221 15 0 C15 0.33 15 0.66 15 1 C9.21642935 3.01167675 4.09781001 3.22084624 -2 3 C-1.34 2.01 -0.68 1.02 0 0 Z " fill="#7C342D" transform="translate(337,637)"/>
<path d="M0 0 C3.39143149 3.39143149 3.9068777 4.75016518 4.09765625 9.359375 C4.08605469 10.14828125 4.07445312 10.9371875 4.0625 11.75 C4.05347656 12.54921875 4.04445313 13.3484375 4.03515625 14.171875 C4.01775391 15.07679688 4.01775391 15.07679688 4 16 C3.34 16 2.68 16 2 16 C1.34 10.72 0.68 5.44 0 0 Z " fill="#845048" transform="translate(2,356)"/>
<path d="M0 0 C-4.21345498 3.11713854 -7.7410905 3.37676791 -12.8125 3.1875 C-13.85180664 3.16719727 -13.85180664 3.16719727 -14.91210938 3.14648438 C-16.60841265 3.11138845 -18.30431136 3.05758943 -20 3 C-20 2.67 -20 2.34 -20 2 C-18.51886719 1.80083984 -18.51886719 1.80083984 -17.0078125 1.59765625 C-15.72648437 1.42105469 -14.44515625 1.24445313 -13.125 1.0625 C-11.21074219 0.80146484 -11.21074219 0.80146484 -9.2578125 0.53515625 C-2.12293388 -0.63688017 -2.12293388 -0.63688017 0 0 Z " fill="#7B4F47" transform="translate(284,1)"/>
<path d="M0 0 C0.99 0.495 0.99 0.495 2 1 C2.47574438 3.54024004 2.84007547 6.00051464 3.125 8.5625 C3.21136719 9.27341797 3.29773438 9.98433594 3.38671875 10.71679688 C3.59934783 12.47689312 3.80072697 14.23834164 4 16 C3.34 16 2.68 16 2 16 C-0.14336161 12.5233662 -0.21277626 9.78770805 -0.125 5.75 C-0.10695313 4.67234375 -0.08890625 3.5946875 -0.0703125 2.484375 C-0.04710937 1.66453125 -0.02390625 0.8446875 0 0 Z " fill="#7F5149" transform="translate(636,266)"/>
<path d="M0 0 C0.33 0 0.66 0 1 0 C1.29341888 5.67276511 1.00559652 8.99067246 -2 14 C-3.08577754 10.74266739 -2.90445241 9.67810011 -2.125 6.4375 C-1.94195313 5.65246094 -1.75890625 4.86742187 -1.5703125 4.05859375 C-1 2 -1 2 0 0 Z " fill="#93746E" transform="translate(636,372)"/>
<path d="M0 0 C2 2 2 2 2.1953125 4.3828125 C2.17210937 5.28773438 2.14890625 6.19265625 2.125 7.125 C2.10695313 8.03507812 2.08890625 8.94515625 2.0703125 9.8828125 C2.03550781 10.93082031 2.03550781 10.93082031 2 12 C1.01 12.33 0.02 12.66 -1 13 C-0.67 8.71 -0.34 4.42 0 0 Z " fill="#94635C" transform="translate(637,356)"/>
<path d="M0 0 C3.375 -0.1875 3.375 -0.1875 7 0 C7.66 0.99 8.32 1.98 9 3 C5.7 3 2.4 3 -1 3 C-0.67 2.01 -0.34 1.02 0 0 Z " fill="#7C342C" transform="translate(297,637)"/>
<path d="M0 0 C0.33 0 0.66 0 1 0 C1.59720137 5.82271337 -0.471757 9.9209404 -3 15 C-4.43410153 11.21180727 -3.51009497 8.93478721 -2.0625 5.25 C-1.49208984 3.77273438 -1.49208984 3.77273438 -0.91015625 2.265625 C-0.60980469 1.51796875 -0.30945313 0.7703125 0 0 Z " fill="#92655E" transform="translate(627,409)"/>
<path d="M0 0 C0.99 0 1.98 0 3 0 C3 2.64 3 5.28 3 8 C2.01 8.33 1.02 8.66 0 9 C0 6.03 0 3.06 0 0 Z " fill="#7D2F25" transform="translate(0,294)"/>
<path d="M0 0 C0.33 0 0.66 0 1 0 C0.42978066 5.3503559 -0.20734361 10.67787852 -1 16 C-1.33 16 -1.66 16 -2 16 C-2.05402274 13.89611431 -2.09280256 11.79183286 -2.125 9.6875 C-2.14820313 8.51574219 -2.17140625 7.34398437 -2.1953125 6.13671875 C-2 3 -2 3 0 0 Z " fill="#9A625B" transform="translate(51,253)"/>
<path d="M0 0 C0.99 0.33 1.98 0.66 3 1 C5.56634861 1.22718496 8.11678107 1.41608184 10.6875 1.5625 C11.7403418 1.62727539 11.7403418 1.62727539 12.81445312 1.69335938 C14.54275206 1.7991736 16.2713511 1.90006581 18 2 C18 2.33 18 2.66 18 3 C11.73 3 5.46 3 -1 3 C-0.67 2.01 -0.34 1.02 0 0 Z " fill="#6D3831" transform="translate(239,516)"/>
<path d="M0 0 C0.33 0 0.66 0 1 0 C1.1799928 5.21979128 0.97094808 9.07262981 -1 14 C-1.33 14 -1.66 14 -2 14 C-2.1799928 8.78020872 -1.97094808 4.92737019 0 0 Z " fill="#896862" transform="translate(7,252)"/>
<path d="M0 0 C4.571279 0.54855348 8.67435795 1.41744803 13 3 C13 3.33 13 3.66 13 4 C11.58249437 3.88490339 10.16598831 3.75746342 8.75 3.625 C7.96109375 3.55539063 7.1721875 3.48578125 6.359375 3.4140625 C3.914123 2.98492887 2.15163097 2.21399362 0 1 C0 0.67 0 0.34 0 0 Z " fill="#8D5D56" transform="translate(413,13)"/>
<path d="M0 0 C8.19256018 -0.63019694 8.19256018 -0.63019694 11.5625 2 C12.036875 2.66 12.51125 3.32 13 4 C11.39431334 3.71682074 9.79047953 3.42312209 8.1875 3.125 C7.29417969 2.96257813 6.40085937 2.80015625 5.48046875 2.6328125 C3 2 3 2 0 0 Z " fill="#855D56" transform="translate(375,4)"/>
<path d="M0 0 C7.56634615 -0.37211538 7.56634615 -0.37211538 9.76171875 1.51171875 C10.17035156 2.00285156 10.57898438 2.49398438 11 3 C9.35333797 2.8864371 7.70763918 2.75882619 6.0625 2.625 C5.14597656 2.55539062 4.22945312 2.48578125 3.28515625 2.4140625 C2.15400391 2.20910156 2.15400391 2.20910156 1 2 C0.67 1.34 0.34 0.68 0 0 Z " fill="#8A504A" transform="translate(228,272)"/>
<path d="M0 0 C0.99 0.33 1.98 0.66 3 1 C2.67 1.99 2.34 2.98 2 4 C1.77439324 6.39254576 1.59151405 8.78928123 1.4375 11.1875 C1.35371094 12.45980469 1.26992187 13.73210937 1.18359375 15.04296875 C1.12300781 16.01878906 1.06242187 16.99460938 1 18 C0.67 18 0.34 18 0 18 C0 12.06 0 6.12 0 0 Z " fill="#64322C" transform="translate(121,237)"/>
<path d="M0 0 C0.66 0.33 1.32 0.66 2 1 C2 1.66 2 2.32 2 3 C-3.61 3 -9.22 3 -15 3 C-15 2.67 -15 2.34 -15 2 C-14.08476562 1.93941406 -13.16953125 1.87882813 -12.2265625 1.81640625 C-10.44378906 1.69072266 -10.44378906 1.69072266 -8.625 1.5625 C-7.44164062 1.48128906 -6.25828125 1.40007813 -5.0390625 1.31640625 C-2.08481099 1.18915064 -2.08481099 1.18915064 0 0 Z " fill="#644642" transform="translate(401,515)"/>
<path d="M0 0 C0.33 0 0.66 0 1 0 C1 4.95 1 9.9 1 15 C0.01 15 -0.98 15 -2 15 C-1.34 10.05 -0.68 5.1 0 0 Z " fill="#5C3530" transform="translate(520,386)"/>
<path d="M0 0 C0.99 0.33 1.98 0.66 3 1 C3 4.3 3 7.6 3 11 C1.04783565 7.09567131 0.49360009 4.27786748 0 0 Z " fill="#A26B65" transform="translate(633,254)"/>
<path d="M0 0 C-2.55068845 2.35448165 -3.71017358 2.98327924 -7.25 3.1875 C-8.1575 3.125625 -9.065 3.06375 -10 3 C-7.29536552 -0.8183075 -4.37912428 -0.24787496 0 0 Z " fill="#8B564E" transform="translate(400,629)"/>
<path d="M0 0 C4.93928888 -0.3367697 5.78492722 -0.16130459 10 3 C6.7 2.67 3.4 2.34 0 2 C0 1.34 0 0.68 0 0 Z " fill="#956059" transform="translate(254,588)"/>
<path d="M0 0 C1.5 1 1.5 1 3 3 C3.27345479 5.71846235 3.13491285 8.25677199 3 11 C0.43383368 7.15075052 0.44902324 4.5650696 0 0 Z " fill="#895850" transform="translate(8,388)"/>
<path d="M0 0 C4.29 0 8.58 0 13 0 C13 0.33 13 0.66 13 1 C12.07767578 1.07347656 12.07767578 1.07347656 11.13671875 1.1484375 C10.32847656 1.22320312 9.52023438 1.29796875 8.6875 1.375 C7.48673828 1.47941406 7.48673828 1.47941406 6.26171875 1.5859375 C3.72775559 1.89564426 3.72775559 1.89564426 1 4 C0.67 2.68 0.34 1.36 0 0 Z " fill="#764B45" transform="translate(238,121)"/>
<path d="M0 0 C-2.35968744 2.09749995 -3.54616994 2.96905704 -6.75 3.1875 C-7.86375 3.0946875 -7.86375 3.0946875 -9 3 C-6.38997624 -0.48003168 -4.1689578 -0.27793052 0 0 Z " fill="#946B64" transform="translate(412,626)"/>
<path d="M0 0 C1.485 0.99 1.485 0.99 3 2 C3.1875 5.625 3.1875 5.625 3 9 C0.23776722 6.23776722 0.42143709 3.79293383 0 0 Z " fill="#875A52" transform="translate(630,240)"/>
</svg>
