<?xml version="1.0" encoding="UTF-8"?>
<svg version="1.1" xmlns="http://www.w3.org/2000/svg" width="640" height="640" class="scale-[0.5] mx-auto">
<path d="M0 0 C3.41511942 0.01610905 6.82905606 0.0000166 10.24414062 -0.01904297 C30.27399824 -0.03896407 50.06144161 1.83054938 69.66601562 6.01611328 C70.85799561 6.26844727 72.04997559 6.52078125 73.27807617 6.78076172 C122.85965371 17.70436031 169.70784649 40.51180587 208.41601562 73.39111328 C209.45173897 74.24226885 210.48823834 75.09248074 211.52539062 75.94189453 C218.82785135 81.98792603 225.6468035 88.44088985 232.35351562 95.14111328 C233.14628906 95.93308105 233.9390625 96.72504883 234.75585938 97.54101562 C291.80607997 155.13330969 323.87754009 235.62001481 323.73168945 316.35644531 C323.72853879 319.98940342 323.75204393 323.62153687 323.77734375 327.25439453 C323.83281071 347.40693348 321.9307419 367.04797462 317.72851562 386.76611328 C317.34614746 388.57354004 317.34614746 388.57354004 316.95605469 390.41748047 C307.5448272 433.38080212 289.07984154 475.30222306 262.41601562 510.39111328 C261.98466309 510.95991211 261.55331055 511.52871094 261.10888672 512.11474609 C257.94486513 516.26182076 254.70189232 520.34014275 251.41601562 524.39111328 C250.98160156 524.9313916 250.5471875 525.47166992 250.09960938 526.02832031 C243.48111165 534.20512851 236.26520688 541.74291155 228.85351562 549.20361328 C227.99129395 550.0751001 227.12907227 550.94658691 226.24072266 551.84448242 C220.27377688 557.78261602 213.99716259 563.14876402 207.41601562 568.39111328 C206.17286833 569.41571886 204.93166881 570.44269728 203.69335938 571.47314453 C148.83938335 616.5692095 78.15481374 640.83451436 7.45068359 640.70678711 C3.81772549 640.70363645 0.18559204 640.72714159 -3.44726562 640.75244141 C-23.59980458 640.80790836 -43.24084572 638.90583955 -62.95898438 634.70361328 C-64.76641113 634.32124512 -64.76641113 634.32124512 -66.61035156 633.93115234 C-118.7888409 622.50131838 -165.96096764 597.74818809 -206.58398438 563.39111328 C-207.20700439 562.86453125 -207.83002441 562.33794922 -208.47192383 561.79541016 C-214.06526436 556.98772584 -219.31013333 551.85739652 -224.52148438 546.64111328 C-225.40884277 545.75294922 -226.29620117 544.86478516 -227.21044922 543.94970703 C-233.08916375 538.01560464 -238.46800964 531.99270849 -243.58398438 525.39111328 C-245.14423654 523.57667792 -246.70689888 521.76431335 -248.27148438 519.95361328 C-289.95837067 469.74866354 -316.5210206 400.87329693 -316.78710938 335.38330078 C-316.79280945 334.25957062 -316.79850952 333.13584045 -316.80438232 331.97805786 C-316.81377701 329.60647505 -316.82034412 327.23487951 -316.82421875 324.86328125 C-316.83382686 321.32413331 -316.86486402 317.7855918 -316.89648438 314.24658203 C-316.99158323 293.95386818 -315.20079779 274.00510477 -310.95898438 254.14111328 C-310.70592529 252.94768311 -310.45286621 251.75425293 -310.19213867 250.5246582 C-295.59188674 184.33194082 -258.1006474 117.96149688 -204.26367188 75.51611328 C-201.46710248 73.2984256 -198.78419784 70.97481578 -196.08398438 68.64111328 C-183.00386764 57.74383621 -168.45590381 48.62700671 -153.58398438 40.39111328 C-152.74448242 39.92350586 -151.90498047 39.45589844 -151.04003906 38.97412109 C-123.33077817 23.67199194 -93.98289406 12.6639835 -63.02148438 6.07861328 C-61.94850098 5.84811279 -60.87551758 5.6176123 -59.77001953 5.38012695 C-39.97719463 1.4107749 -20.16311531 -0.11253027 0 0 Z " fill="#EFEA29" transform="translate(316.583984375,-0.39111328125)"/>
<path d="M0 0 C3.41511942 0.01610905 6.82905606 0.0000166 10.24414062 -0.01904297 C30.27399824 -0.03896407 50.06144161 1.83054938 69.66601562 6.01611328 C70.85799561 6.26844727 72.04997559 6.52078125 73.27807617 6.78076172 C122.85965371 17.70436031 169.70784649 40.51180587 208.41601562 73.39111328 C209.45173897 74.24226885 210.48823834 75.09248074 211.52539062 75.94189453 C218.82785135 81.98792603 225.6468035 88.44088985 232.35351562 95.14111328 C233.14628906 95.93308105 233.9390625 96.72504883 234.75585938 97.54101562 C291.80607997 155.13330969 323.87754009 235.62001481 323.73168945 316.35644531 C323.72853879 319.98940342 323.75204393 323.62153687 323.77734375 327.25439453 C323.83281071 347.40693348 321.9307419 367.04797462 317.72851562 386.76611328 C317.34614746 388.57354004 317.34614746 388.57354004 316.95605469 390.41748047 C307.5448272 433.38080212 289.07984154 475.30222306 262.41601562 510.39111328 C261.98466309 510.95991211 261.55331055 511.52871094 261.10888672 512.11474609 C257.94486513 516.26182076 254.70189232 520.34014275 251.41601562 524.39111328 C250.98160156 524.9313916 250.5471875 525.47166992 250.09960938 526.02832031 C243.48111165 534.20512851 236.26520688 541.74291155 228.85351562 549.20361328 C227.99129395 550.0751001 227.12907227 550.94658691 226.24072266 551.84448242 C220.27377688 557.78261602 213.99716259 563.14876402 207.41601562 568.39111328 C206.17286833 569.41571886 204.93166881 570.44269728 203.69335938 571.47314453 C148.83938335 616.5692095 78.15481374 640.83451436 7.45068359 640.70678711 C3.81772549 640.70363645 0.18559204 640.72714159 -3.44726562 640.75244141 C-23.59980458 640.80790836 -43.24084572 638.90583955 -62.95898438 634.70361328 C-64.76641113 634.32124512 -64.76641113 634.32124512 -66.61035156 633.93115234 C-118.7888409 622.50131838 -165.96096764 597.74818809 -206.58398438 563.39111328 C-207.20700439 562.86453125 -207.83002441 562.33794922 -208.47192383 561.79541016 C-214.06526436 556.98772584 -219.31013333 551.85739652 -224.52148438 546.64111328 C-225.40884277 545.75294922 -226.29620117 544.86478516 -227.21044922 543.94970703 C-233.08916375 538.01560464 -238.46800964 531.99270849 -243.58398438 525.39111328 C-245.14423654 523.57667792 -246.70689888 521.76431335 -248.27148438 519.95361328 C-289.95837067 469.74866354 -316.5210206 400.87329693 -316.78710938 335.38330078 C-316.79280945 334.25957062 -316.79850952 333.13584045 -316.80438232 331.97805786 C-316.81377701 329.60647505 -316.82034412 327.23487951 -316.82421875 324.86328125 C-316.83382686 321.32413331 -316.86486402 317.7855918 -316.89648438 314.24658203 C-316.99158323 293.95386818 -315.20079779 274.00510477 -310.95898438 254.14111328 C-310.70592529 252.94768311 -310.45286621 251.75425293 -310.19213867 250.5246582 C-295.59188674 184.33194082 -258.1006474 117.96149688 -204.26367188 75.51611328 C-201.46710248 73.2984256 -198.78419784 70.97481578 -196.08398438 68.64111328 C-183.00386764 57.74383621 -168.45590381 48.62700671 -153.58398438 40.39111328 C-152.74448242 39.92350586 -151.90498047 39.45589844 -151.04003906 38.97412109 C-123.33077817 23.67199194 -93.98289406 12.6639835 -63.02148438 6.07861328 C-61.94850098 5.84811279 -60.87551758 5.6176123 -59.77001953 5.38012695 C-39.97719463 1.4107749 -20.16311531 -0.11253027 0 0 Z M-50.58398438 47.39111328 C-51.47005371 47.56771484 -52.35612305 47.74431641 -53.26904297 47.92626953 C-114.24539289 60.11025805 -173.02855272 95.39766291 -211.58398438 144.39111328 C-212.46706182 145.48439974 -213.35122043 146.57681358 -214.23632812 147.66845703 C-246.24712852 187.39508694 -265.67688706 234.961091 -272.58398438 285.39111328 C-272.76050537 286.58945801 -272.93702637 287.78780273 -273.11889648 289.02246094 C-273.74932545 294.14520176 -273.74615612 299.25133695 -273.75195312 304.40673828 C-273.75528152 305.45778748 -273.75860992 306.50883667 -273.76203918 307.59173584 C-273.76708521 309.81391974 -273.76944823 312.03611116 -273.76928711 314.25830078 C-273.77145063 317.58916453 -273.78956764 320.91968401 -273.80859375 324.25048828 C-273.85535795 341.44137631 -273.18838297 358.41377942 -269.20898438 375.20361328 C-268.98694336 376.17314941 -268.76490234 377.14268555 -268.53613281 378.14160156 C-267.89903454 380.89487446 -267.24333747 383.64310316 -266.58398438 386.39111328 C-266.34856934 387.41615967 -266.34856934 387.41615967 -266.10839844 388.46191406 C-256.34472425 430.93276933 -234.47909166 470.98656388 -205.58398438 503.39111328 C-205.13313477 503.89835937 -204.68228516 504.40560547 -204.21777344 504.92822266 C-194.39584956 515.92821973 -184.19204784 526.25613923 -172.58398438 535.39111328 C-171.49069792 536.27419072 -170.39828407 537.15834934 -169.30664062 538.04345703 C-136.21650473 564.70672391 -97.11316145 583.39334007 -55.58398438 592.39111328 C-54.50084961 592.6337793 -53.41771484 592.87644531 -52.30175781 593.12646484 C-17.82902539 600.54489521 20.94682907 600.7592195 55.41601562 593.39111328 C57.65653044 592.96079376 59.89743116 592.53247968 62.13867188 592.10595703 C105.05422411 583.59877644 145.91922957 563.48011099 179.41601562 535.39111328 C179.91069336 534.98521973 180.40537109 534.57932617 180.91503906 534.16113281 C195.00533415 522.59212469 208.31831289 509.88846439 219.41601562 495.39111328 C220.40427036 494.1530724 221.39396535 492.91618041 222.38476562 491.68017578 C240.59406598 468.72265533 253.99717021 443.39297626 264.38525391 416.08300781 C265.21262772 413.92227268 266.06496293 411.7774221 266.94335938 409.63720703 C271.19999502 398.77122657 273.43265322 387.27690285 275.71826172 375.86572266 C276.15423303 373.69471368 276.60297089 371.52618378 277.07080078 369.36181641 C284.38337181 334.95381739 283.22919849 295.61704596 275.41601562 261.39111328 C275.15900879 260.2519043 274.90200195 259.11269531 274.63720703 257.93896484 C264.22322271 213.22723598 242.97320592 171.65961323 212.41601562 137.39111328 C211.96516602 136.88386719 211.51431641 136.37662109 211.04980469 135.85400391 C201.22788081 124.85400683 191.02407909 114.52608733 179.41601562 105.39111328 C178.32272917 104.50803584 177.23031532 103.62387723 176.13867188 102.73876953 C114.30534452 52.91490317 27.57809337 30.44266778 -50.58398438 47.39111328 Z " fill="#0E8140" transform="translate(316.583984375,-0.39111328125)"/>
<path d="M0 0 C1.39508789 -0.00193359 1.39508789 -0.00193359 2.81835938 -0.00390625 C4.2637207 0.00189453 4.2637207 0.00189453 5.73828125 0.0078125 C6.71345703 0.00394531 7.68863281 0.00007813 8.69335938 -0.00390625 C9.61955078 -0.00261719 10.54574219 -0.00132813 11.5 0 C12.77363403 0.00169189 12.77363403 0.00169189 14.07299805 0.00341797 C16.05078125 0.1328125 16.05078125 0.1328125 17.05078125 1.1328125 C17.14574833 3.53629536 17.17636987 5.91092232 17.16430664 8.31469727 C17.16445267 9.06586823 17.16459869 9.81703918 17.16474915 10.5909729 C17.16404988 13.08541709 17.15625689 15.57978753 17.1484375 18.07421875 C17.14657337 19.79914814 17.14514944 21.52407807 17.14414978 23.24900818 C17.14032422 27.79793753 17.13049363 32.34683517 17.1194458 36.89575195 C17.10923249 41.53401256 17.10465233 46.17227827 17.09960938 50.81054688 C17.08887139 59.91798272 17.07179452 69.02539498 17.05078125 78.1328125 C17.76573761 77.7203125 18.48069397 77.3078125 19.21731567 76.8828125 C22.53939675 74.9661257 25.86149024 73.04946041 29.18359375 71.1328125 C29.78085392 70.78822998 30.37811409 70.44364746 30.99347305 70.08862305 C37.6136696 66.2692064 44.23401171 62.45004367 50.85546875 58.6328125 C51.89058594 58.03597656 52.92570313 57.43914062 53.9921875 56.82421875 C56.00248264 55.66515378 58.01290575 54.50631074 60.0234375 53.34765625 C61.04050781 52.76113281 62.05757812 52.17460937 63.10546875 51.5703125 C64.0809668 51.01085937 65.05646484 50.45140625 66.06152344 49.875 C68.15491072 48.65494024 70.23259906 47.40772729 72.29785156 46.140625 C73.35327148 45.49867188 74.40869141 44.85671875 75.49609375 44.1953125 C76.44242676 43.60878906 77.38875977 43.02226563 78.36376953 42.41796875 C81.23200234 41.04613725 82.91688258 40.75544268 86.05078125 41.1328125 C91.32395861 45.21487215 95.56167183 52.29597785 96.67578125 58.7578125 C95.9828181 62.4998135 95.0785126 63.40288956 92.16894531 65.68701172 C87.93782 68.57506199 83.4171801 70.9692506 78.9161377 73.40618896 C75.86590413 75.05852789 72.82792421 76.73311602 69.7890625 78.40625 C69.19560028 78.73243317 68.60213806 79.05861633 67.99069214 79.39468384 C61.22627351 83.12141199 54.6318111 87.09289707 48.05078125 91.1328125 C45.28371138 92.82657048 42.51199012 94.51245483 39.73828125 96.1953125 C39.09665039 96.59024902 38.45501953 96.98518555 37.79394531 97.39208984 C33.27648679 100.1328125 33.27648679 100.1328125 31.05078125 100.1328125 C33.43495757 102.76594289 35.96929752 104.38848708 39.046875 106.14453125 C40.0673291 106.72992676 41.0877832 107.31532227 42.13916016 107.91845703 C43.24437012 108.54606934 44.34958008 109.17368164 45.48828125 109.8203125 C46.62958496 110.47370605 47.77088867 111.12709961 48.94677734 111.80029297 C52.01063748 113.55426701 55.0777935 115.30238768 58.14605713 117.04864502 C62.59784471 119.58259903 67.0472799 122.12068113 71.49633789 124.65942383 C73.89897105 126.03040896 76.30322637 127.39848079 78.70874023 128.7644043 C80.87314742 129.99685917 83.03338616 131.23667672 85.18847656 132.48535156 C86.97501245 133.51363066 88.77474893 134.51968881 90.59277344 135.49121094 C95.73868636 138.36223293 95.73868636 138.36223293 97.25 142.09375 C97.00465868 145.83640774 95.97140408 147.67169455 93.86328125 150.7578125 C93.25097656 151.67820313 92.63867188 152.59859375 92.0078125 153.546875 C87.21325247 159.88220182 87.21325247 159.88220182 83.04296875 160.78125 C77.17554192 160.41629044 72.10458907 156.66122556 67.17578125 153.7578125 C66.06460938 153.11875977 64.9534375 152.47970703 63.80859375 151.82128906 C60.54686378 149.94032036 57.29749817 148.03954896 54.05078125 146.1328125 C52.44426729 145.19747532 50.83752754 144.26252575 49.23046875 143.328125 C45.84649976 141.35311484 42.47538159 139.35731385 39.10839844 137.35351562 C36.85641257 136.01750123 34.59877621 134.69142104 32.33984375 133.3671875 C31.55996094 132.90989258 30.78007812 132.45259766 29.9765625 131.98144531 C28.48200659 131.10539195 26.98722753 130.22971911 25.4921875 129.35449219 C22.63017408 127.67395541 19.81309641 125.97435594 17.05078125 124.1328125 C17.060774 125.55102043 17.060774 125.55102043 17.07096863 126.99787903 C17.13173587 135.90017479 17.17673273 144.80242857 17.20621777 153.70488453 C17.22188584 158.28194116 17.24314484 162.85883061 17.27709961 167.43579102 C17.30965251 171.85132685 17.32762566 176.2667017 17.33541298 180.68234825 C17.34096383 182.36850202 17.3518031 184.0546468 17.36797142 185.74073219 C17.389692 188.09924104 17.39275049 190.45708135 17.39135742 192.81567383 C17.40214325 193.51554413 17.41292908 194.21541443 17.42404175 194.93649292 C17.40553222 197.82513258 17.37440025 199.6861953 15.65008545 202.06587219 C13.631953 203.41222447 12.37808515 203.51977749 9.9609375 203.53125 C9.17654297 203.53511719 8.39214844 203.53898438 7.58398438 203.54296875 C6.36098633 203.52556641 6.36098633 203.52556641 5.11328125 203.5078125 C4.30181641 203.51941406 3.49035156 203.53101563 2.65429688 203.54296875 C-0.87995496 203.52557292 -3.29966057 203.47937864 -6.453125 201.796875 C-9.57246759 198.32731901 -9.07037269 194.52325234 -9.06274414 190.09106445 C-9.06289017 189.37861572 -9.06303619 188.66616699 -9.06318665 187.93212891 C-9.06249026 185.5784195 -9.05471067 183.22478933 -9.046875 180.87109375 C-9.04500985 179.23870385 -9.0435864 177.60631339 -9.04258728 175.97392273 C-9.03876976 171.67819675 -9.02894599 167.38250461 -9.0178833 163.08679199 C-9.00765274 158.70304827 -9.00308613 154.31929909 -8.99804688 149.93554688 C-8.98732305 141.3346199 -8.9702558 132.73372041 -8.94921875 124.1328125 C-9.66417511 124.5453125 -10.37913147 124.9578125 -11.11575317 125.3828125 C-14.43783425 127.2994993 -17.75992774 129.21616459 -21.08203125 131.1328125 C-21.67929142 131.47739502 -22.27655159 131.82197754 -22.89191055 132.17700195 C-29.5121071 135.9964186 -36.13244921 139.81558133 -42.75390625 143.6328125 C-43.78902344 144.22964844 -44.82414062 144.82648438 -45.890625 145.44140625 C-47.90092014 146.60047122 -49.91134325 147.75931426 -51.921875 148.91796875 C-53.44748047 149.79775391 -53.44748047 149.79775391 -55.00390625 150.6953125 C-55.98069336 151.25476563 -56.95748047 151.81421875 -57.96386719 152.390625 C-60.04691951 153.60624991 -62.11155376 154.85374999 -64.16113281 156.125 C-65.2075293 156.76695312 -66.25392578 157.40890625 -67.33203125 158.0703125 C-68.2667627 158.65683594 -69.20149414 159.24335938 -70.16455078 159.84765625 C-73.36429916 161.32437688 -75.46360044 161.51513379 -78.94921875 161.1328125 C-83.67740588 156.97773897 -87.55610445 148.91857738 -88.20800781 142.640625 C-87.94921875 140.1328125 -87.94921875 140.1328125 -86.65625 138.59570312 C-80.87438541 134.60800476 -74.87420807 131.07318726 -68.74731445 127.64047241 C-66.28423254 126.26015161 -63.82843964 124.86709086 -61.37219238 123.47465515 C-60.1090917 122.75867464 -58.84566269 122.04327303 -57.58190918 121.32844543 C-51.17796212 117.70427729 -44.80835518 114.0226033 -38.44921875 110.3203125 C-37.44761719 109.74023438 -36.44601562 109.16015625 -35.4140625 108.5625 C-34.48722656 108.02238281 -33.56039062 107.48226562 -32.60546875 106.92578125 C-31.79916016 106.4568042 -30.99285156 105.98782715 -30.16210938 105.50463867 C-27.98905169 104.15750594 -25.96859319 102.69898162 -23.94921875 101.1328125 C-37.88010812 92.70381135 -51.85478178 84.3807248 -66.00341797 76.32202148 C-85.10632152 65.39715834 -85.10632152 65.39715834 -87.94921875 61.1328125 C-87.72140459 55.43055493 -85.87788855 51.51616165 -83.01171875 46.7578125 C-82.65142578 46.13003906 -82.29113281 45.50226563 -81.91992188 44.85546875 C-79.23412135 40.2752638 -79.23412135 40.2752638 -76.94921875 39.1328125 C-74.77636719 40.09814453 -74.77636719 40.09814453 -72.05859375 41.640625 C-71.04990234 42.2087793 -70.04121094 42.77693359 -69.00195312 43.36230469 C-67.91205078 43.98782227 -66.82214844 44.61333984 -65.69921875 45.2578125 C-64.57837891 45.89364258 -63.45753906 46.52947266 -62.30273438 47.18457031 C-50.58455131 53.85659841 -38.97999806 60.72199517 -27.41308594 67.65234375 C-25.05239467 69.06633346 -22.68844847 70.4747504 -20.32421875 71.8828125 C-19.63134766 72.30143555 -18.93847656 72.72005859 -18.22460938 73.15136719 C-15.06811319 75.02841754 -12.54986557 76.23265079 -8.94921875 77.1328125 C-8.94921875 52.0528125 -8.94921875 26.9728125 -8.94921875 1.1328125 C-5.64368665 0.30642947 -3.33212311 0.00440882 0 0 Z " fill="#47B748" transform="translate(315.94921875,84.8671875)"/>
<path d="M0 0 C3.6249934 -0.02774746 7.24993353 -0.0467779 10.875 -0.0625 C12.42380859 -0.07506836 12.42380859 -0.07506836 14.00390625 -0.08789062 C14.99003906 -0.09111328 15.97617187 -0.09433594 16.9921875 -0.09765625 C18.35899658 -0.10551147 18.35899658 -0.10551147 19.75341797 -0.11352539 C22 0 22 0 24 1 C24 26.41 24 51.82 24 78 C29.07070346 76.55122758 32.11376169 75.610432 36.421875 73.0859375 C37.43467529 72.49723877 38.44747559 71.90854004 39.4909668 71.30200195 C40.56644775 70.66609131 41.64192871 70.03018066 42.75 69.375 C44.43766479 68.38922974 44.43766479 68.38922974 46.15942383 67.38354492 C49.77983713 65.26731127 53.39044617 63.13468749 57 61 C58.24590932 60.26412347 59.49184037 59.52828373 60.73779297 58.79248047 C66.60557416 55.32550813 72.46757358 51.84904142 78.32421875 48.36328125 C79.31599121 47.77885254 80.30776367 47.19442383 81.32958984 46.59228516 C82.9488705 45.62675687 84.55711968 44.6419151 86.14306641 43.62255859 C88.73859543 41.98838837 90.57431757 41.01431388 93.671875 40.91015625 C96.92908362 42.43492337 98.23724266 44.48366337 100.25 47.4375 C100.93578125 48.42621094 101.6215625 49.41492188 102.328125 50.43359375 C105.02719507 54.57679243 105.6693899 56.97957575 105 62 C99.54868315 67.48164406 93.19543072 70.90726049 86.4375 74.5625 C84.20453636 75.7908028 81.97278935 77.02131962 79.7421875 78.25390625 C78.6190918 78.87410645 77.49599609 79.49430664 76.33886719 80.13330078 C71.19819671 83.00735507 66.12572099 85.99210681 61.0625 89 C59.76107056 89.77259155 59.76107056 89.77259155 58.43334961 90.56079102 C55.95332492 92.03680764 53.47659366 93.51823564 51 95 C50.07171387 95.55171875 49.14342773 96.1034375 48.18701172 96.671875 C47.27838379 97.21328125 46.36975586 97.7546875 45.43359375 98.3125 C44.60786865 98.80363281 43.78214355 99.29476562 42.93139648 99.80078125 C41.06768203 100.85640754 41.06768203 100.85640754 40 102 C40.98504517 102.56376343 40.98504517 102.56376343 41.98999023 103.13891602 C55.5416434 110.90367874 69.03427258 118.74357493 82.39038086 126.84155273 C86.76687919 129.48958623 91.13811934 132.11388086 95.640625 134.54296875 C96.30674805 134.90463135 96.97287109 135.26629395 97.65917969 135.63891602 C99.33743044 136.53791532 101.0275248 137.41471549 102.71875 138.2890625 C105 140 105 140 105.78686523 142.33032227 C106.04525813 145.56689305 105.42481815 146.71854244 103.69140625 149.42578125 C103.19189453 150.22177734 102.69238281 151.01777344 102.17773438 151.83789062 C101.37819336 153.06282227 101.37819336 153.06282227 100.5625 154.3125 C100.03333984 155.14845703 99.50417969 155.98441406 98.95898438 156.84570312 C97.65223733 158.9058899 96.33247951 160.95639955 95 163 C91.13648082 162.41010026 88.30814437 161.26536953 84.921875 159.33203125 C83.93791748 158.77523682 82.95395996 158.21844238 81.94018555 157.64477539 C80.3610437 156.73779907 80.3610437 156.73779907 78.75 155.8125 C76.50143468 154.5362247 74.25273272 153.26019009 72.00390625 151.984375 C70.8373681 151.31972156 69.67086439 150.65500767 68.50439453 149.99023438 C61.92020406 146.24378494 55.29338794 142.57275621 48.67675781 138.8840332 C47.71479492 138.34609131 46.75283203 137.80814941 45.76171875 137.25390625 C44.82376465 136.72941895 43.88581055 136.20493164 42.91943359 135.66455078 C38.73945063 133.28128235 34.62101452 130.79586323 30.50708008 128.30053711 C28.02688584 126.76976194 28.02688584 126.76976194 25 127 C24.99120064 128.34303947 24.99120064 128.34303947 24.98222351 129.71321106 C24.92435678 138.14480462 24.85231495 146.57613157 24.76428509 155.00746632 C24.71952795 159.34227966 24.68028384 163.67699786 24.65356445 168.01196289 C24.62758445 172.19426007 24.5872203 176.37619215 24.53681374 180.55826378 C24.52010897 182.15503084 24.50861721 183.7518611 24.50238609 185.34870338 C24.49278383 187.58287598 24.46477338 189.81610691 24.43237305 192.05004883 C24.42126999 193.32245926 24.41016693 194.59486969 24.39872742 195.90583801 C24 199 24 199 22.59555054 200.91209412 C20.55086613 202.30623623 19.30286588 202.35984595 16.83984375 202.328125 C15.6497168 202.32039063 15.6497168 202.32039063 14.43554688 202.3125 C13.61119141 202.291875 12.78683594 202.27125 11.9375 202.25 C10.69516602 202.24226563 10.69516602 202.24226563 9.42773438 202.234375 C3.30944549 202.15472274 3.30944549 202.15472274 1 201 C0.67 201.66 0.34 202.32 0 203 C-1.16226261 199.51321216 -1.13240097 196.3999588 -1.11352539 192.7746582 C-1.11367142 192.04270233 -1.11381744 191.31074646 -1.1139679 190.55661011 C-1.1132714 188.13797031 -1.10549128 185.71940759 -1.09765625 183.30078125 C-1.09579114 181.62355084 -1.09436767 179.94631989 -1.09336853 178.26908875 C-1.0895507 173.85499568 -1.07972666 169.44093553 -1.06866455 165.02685547 C-1.05843467 160.52246547 -1.05386753 156.01807015 -1.04882812 151.51367188 C-1.03810375 142.67576679 -1.02103611 133.83788613 -1 125 C-4.4695839 126.99962293 -7.93890871 128.99969462 -11.40802002 131.00013733 C-13.15095373 132.00507542 -14.89407746 133.00968391 -16.63720703 134.01428223 C-23.39177484 137.90957658 -30.13612066 141.82147791 -36.86882019 145.75448608 C-39.79768311 147.46535364 -42.72865549 149.17256326 -45.66015625 150.87890625 C-48.92970374 152.78445656 -52.18818617 154.70599717 -55.43359375 156.65234375 C-56.08038086 157.03527588 -56.72716797 157.41820801 -57.39355469 157.81274414 C-59.03084835 158.78224125 -60.66223521 159.76169614 -62.29296875 160.7421875 C-65.18593237 162.08639282 -66.85662238 162.47578335 -70 162 C-75.22118751 157.03350457 -78.17527232 150.82373742 -79.6875 143.8125 C-78.42482882 138.64702699 -73.5027448 135.93936221 -69.18676758 133.24145508 C-65.83314952 131.28862008 -62.45360711 129.3865258 -59.0625 127.5 C-57.1946064 126.44923449 -55.32834816 125.39560332 -53.46214294 124.34184265 C-52.19323497 123.62556884 -50.92383345 122.91016866 -49.65394592 122.19563293 C-43.25220431 118.59085988 -36.90361178 114.89792925 -30.5625 111.1875 C-29.07278687 110.31738281 -29.07278687 110.31738281 -27.55297852 109.4296875 C-23.35508465 106.97502719 -19.16683467 104.50712018 -15 102 C-23.70486051 96.56808818 -32.50630059 91.36606086 -41.4375 86.3125 C-43.88274736 84.92273963 -46.32643626 83.53025891 -48.76953125 82.13671875 C-49.37569275 81.79096802 -49.98185425 81.44521729 -50.60638428 81.08898926 C-56.63774057 77.64382778 -62.63943832 74.14913422 -68.625 70.625 C-70.01029907 69.81349487 -70.01029907 69.81349487 -71.42358398 68.9855957 C-72.26606689 68.48761475 -73.1085498 67.98963379 -73.9765625 67.4765625 C-74.70955566 67.04424316 -75.44254883 66.61192383 -76.19775391 66.16650391 C-78 65 -78 65 -80 63 C-80.5830339 58.07197533 -79.47528534 55.44002646 -76.75 51.375 C-76.14671875 50.45460938 -75.5434375 49.53421875 -74.921875 48.5859375 C-71.31372939 43.73107491 -71.31372939 43.73107491 -69 42 C-64.56697725 42.35614546 -61.37876123 43.62123539 -57.54296875 45.80859375 C-56.0105957 46.67436035 -56.0105957 46.67436035 -54.44726562 47.55761719 C-53.37154297 48.17797852 -52.29582031 48.79833984 -51.1875 49.4375 C-50.07181641 50.07204102 -48.95613281 50.70658203 -47.80664062 51.36035156 C-38.04340397 56.92849143 -28.342309 62.60147512 -18.70068359 68.37744141 C-17.12647649 69.32028375 -15.55113089 70.26122801 -13.97460938 71.20019531 C-12.49016621 72.08439609 -11.00823166 72.97282725 -9.52929688 73.86621094 C-8.86349609 74.26227539 -8.19769531 74.65833984 -7.51171875 75.06640625 C-6.92865967 75.41646729 -6.34560059 75.76652832 -5.74487305 76.12719727 C-3.85410068 77.07298028 -2.05174737 77.51667008 0 78 C-0.07064667 77.42962509 -0.14129333 76.85925018 -0.21408081 76.27159119 C-1.01960077 69.14707401 -1.14530806 62.10630298 -1.1328125 54.94140625 C-1.13376923 53.71646957 -1.13472595 52.4915329 -1.13571167 51.22947693 C-1.1363889 48.65192615 -1.13456669 46.07437362 -1.13037109 43.49682617 C-1.12502105 39.57792278 -1.13032937 35.65913422 -1.13671875 31.74023438 C-1.1360578 29.22395808 -1.13477628 26.70768186 -1.1328125 24.19140625 C-1.13483673 23.03274551 -1.13686096 21.87408478 -1.13894653 20.68031311 C-1.11918337 13.73299332 -0.76112266 6.90614382 0 0 Z " fill="#47B748" transform="translate(432,300)"/>
<path d="M0 0 C-0.33 25.08 -0.66 50.16 -1 76 C8.39870147 71.30064926 17.51708808 66.72304331 26.5 61.375 C27.49684814 60.78887939 28.49369629 60.20275879 29.52075195 59.59887695 C33.80084319 57.08166815 38.07284711 54.55103475 42.34130859 52.01416016 C44.55662649 50.69824135 46.77355481 49.38502939 48.9921875 48.07470703 C51.08063666 46.84123271 53.16544871 45.60157383 55.24609375 44.35498047 C56.1896875 43.7982666 57.13328125 43.24155273 58.10546875 42.66796875 C58.93199951 42.17578857 59.75853027 41.6836084 60.61010742 41.17651367 C63.08834674 39.95650802 65.27914462 39.41326 68 39 C73.17811105 44.62194914 76.84119823 50.77865071 78.875 58.1875 C76.23197998 66.68292149 63.59732378 71.11970416 56.2421875 75.11328125 C49.26636573 78.91864179 42.43382393 82.96977909 35.58764648 87.00219727 C29.12546324 90.79736128 22.60065959 94.45106766 16 98 C16 99.32 16 100.64 16 102 C20.18692788 104.39683428 24.37451656 106.79251078 28.5625 109.1875 C29.19170349 109.54737 29.82090698 109.90723999 30.46917725 110.27801514 C40.08036061 115.77391534 49.70662969 121.2420963 59.36157227 126.66088867 C76.06020064 136.06020064 76.06020064 136.06020064 79 139 C79.15192366 146.14041221 75.08348548 151.4008103 71 157 C70.36191406 157.93585938 70.36191406 157.93585938 69.7109375 158.890625 C67.43339602 160.36738706 65.72459294 160.21235487 63.11083984 159.69970703 C58.49174043 158.16855518 54.44340096 155.46197734 50.3125 152.9375 C48.18188718 151.66386182 46.05033602 150.39179238 43.91796875 149.12109375 C42.79825684 148.45062012 41.67854492 147.78014648 40.52490234 147.08935547 C34.44449062 143.46843613 28.27873933 139.99421637 22.125 136.5 C19.83512955 135.19932332 17.54623446 133.89697846 15.2578125 132.59375 C14.2898877 132.04396484 13.32196289 131.49417969 12.32470703 130.92773438 C7.85305318 128.33497635 3.42663246 125.66870919 -1 123 C-0.9830307 123.94769257 -0.9660614 124.89538513 -0.94857788 125.87179565 C-0.79022627 134.78900154 -0.64248761 143.70632802 -0.50522423 152.6238842 C-0.43430687 157.20883932 -0.35960956 161.79366874 -0.27636719 166.37841797 C-0.19621928 170.80030769 -0.12587835 175.22225325 -0.06242752 179.64441299 C-0.03644 181.33421737 -0.00687755 183.02397055 0.02626419 184.71364975 C0.07196909 187.07452782 0.10512865 189.43526581 0.13525391 191.79638672 C0.16006584 192.85158508 0.16006584 192.85158508 0.18537903 193.92810059 C0.20030084 195.61979681 0.10939444 197.31177856 0 199 C-2 201 -2 201 -4.33837891 201.13525391 C-5.29147949 201.08288574 -6.24458008 201.03051758 -7.2265625 200.9765625 C-8.2578125 200.925 -9.2890625 200.8734375 -10.3515625 200.8203125 C-11.43179688 200.75585938 -12.51203125 200.69140625 -13.625 200.625 C-14.71296875 200.56828125 -15.8009375 200.5115625 -16.921875 200.453125 C-19.61522387 200.3113698 -22.3076793 200.15993358 -25 200 C-25.0154612 198.81942772 -25.0154612 198.81942772 -25.03123474 197.61500549 C-25.12904188 190.21301893 -25.23153186 182.81111932 -25.33933926 175.40927219 C-25.39460294 171.60352595 -25.44802829 167.79777208 -25.49731445 163.99194336 C-25.54490741 160.32200665 -25.59724809 156.65216609 -25.65294075 152.98234367 C-25.67338737 151.57927773 -25.69209657 150.1761854 -25.70907402 148.7730732 C-25.73306687 146.81423074 -25.76370199 144.85547299 -25.79467773 142.89672852 C-25.81022202 141.77976089 -25.8257663 140.66279327 -25.84178162 139.51197815 C-25.71819038 137.06138999 -25.71819038 137.06138999 -27 136 C-27.07258946 133.81360547 -27.08373783 131.62499611 -27.0625 129.4375 C-27.05347656 128.23996094 -27.04445313 127.04242188 -27.03515625 125.80859375 C-27.02355469 124.88175781 -27.01195312 123.95492187 -27 123 C-27.65145996 123.37584229 -28.30291992 123.75168457 -28.97412109 124.13891602 C-30.95784234 125.28337058 -32.9415666 126.42781993 -34.92529297 127.57226562 C-37.24985887 128.91337399 -39.57440635 130.25451422 -41.89892578 131.59570312 C-47.38243539 134.75949129 -52.86606744 137.92306547 -58.35067749 141.08494568 C-60.08100688 142.08249722 -61.81125569 143.08018852 -63.54150391 144.07788086 C-65.69989383 145.32242486 -67.85841403 146.56674296 -70.01708984 147.81079102 C-71.01949707 148.38885498 -72.0219043 148.96691895 -73.0546875 149.5625 C-74.51986816 150.40167969 -74.51986816 150.40167969 -76.01464844 151.2578125 C-78.09770076 152.47343741 -80.16233501 153.72093749 -82.21191406 154.9921875 C-83.25831055 155.63414062 -84.30470703 156.27609375 -85.3828125 156.9375 C-86.31754395 157.52402344 -87.25227539 158.11054688 -88.21533203 158.71484375 C-91.40215458 160.18559896 -93.52850608 160.33457218 -97 160 C-99.89552031 157.99490166 -101.07648649 155.13041092 -102.5625 152 C-103.9221152 149.15370275 -105.24415423 146.63376866 -107 144 C-106.9375 141.03125 -106.9375 141.03125 -106 138 C-103.9375 136.15625 -103.9375 136.15625 -101 134.5 C-100.4423999 134.17797607 -99.8847998 133.85595215 -99.31030273 133.52416992 C-97.21916739 132.3263985 -95.11024494 131.16377353 -93 130 C-91.11528208 128.94508763 -89.23121476 127.88901238 -87.34765625 126.83203125 C-84.17658452 125.05478763 -81.00421907 123.28007381 -77.82763672 121.51269531 C-70.367407 117.3563612 -62.97320592 113.10124244 -55.625 108.75 C-54.69824463 108.20126221 -53.77148926 107.65252441 -52.81665039 107.0871582 C-49.49811849 105.11368117 -46.21323968 103.14215979 -43 101 C-43 100.34 -43 99.68 -43 99 C-45.39243522 97.31455193 -45.39243522 97.31455193 -48.5 95.578125 C-49.07892502 95.24140274 -49.65785004 94.90468048 -50.25431824 94.55775452 C-52.16560881 93.44821164 -54.08274179 92.3491933 -56 91.25 C-57.32114336 90.48535118 -58.64185968 89.71996407 -59.9621582 88.95385742 C-62.65967942 87.38987986 -65.35938768 85.82978781 -68.06103516 84.27294922 C-73.78248991 80.97445246 -79.48415367 77.64218876 -85.1875 74.3125 C-86.60772461 73.48637207 -86.60772461 73.48637207 -88.05664062 72.64355469 C-105.52380778 62.47619222 -105.52380778 62.47619222 -107 61 C-106.666374 55.4849579 -105.19864775 52.12789569 -102.0625 47.625 C-100.99708984 46.06652344 -100.99708984 46.06652344 -99.91015625 44.4765625 C-97.72338516 41.64136236 -96.97002082 41.14807171 -93.4921875 40.6171875 C-88.34403929 41.18152589 -84.57605687 43.57944541 -80.125 46.125 C-79.17189941 46.65762451 -78.21879883 47.19024902 -77.23681641 47.73901367 C-67.97796132 52.94062611 -58.80190227 58.29129713 -49.6484375 63.67578125 C-48.7315918 64.21283691 -47.81474609 64.74989258 -46.87011719 65.30322266 C-44.82545514 66.51200126 -42.79062726 67.73748024 -40.76269531 68.97412109 C-39.69889648 69.61559082 -38.63509766 70.25706055 -37.5390625 70.91796875 C-36.57436035 71.50731201 -35.6096582 72.09665527 -34.61572266 72.70385742 C-31.88918938 74.29599951 -31.88918938 74.29599951 -28 74 C-27.93941406 73.37351562 -27.87882812 72.74703125 -27.81640625 72.1015625 C-27.69072266 70.87566406 -27.69072266 70.87566406 -27.5625 69.625 C-27.44068359 68.40683594 -27.44068359 68.40683594 -27.31640625 67.1640625 C-27 65 -27 65 -26 63 C-25.89029139 61.11183702 -25.84355889 59.2198831 -25.82641602 57.32861328 C-25.81292618 56.14042999 -25.79943634 54.9522467 -25.78553772 53.72805786 C-25.77509933 52.43850189 -25.76466095 51.14894592 -25.75390625 49.8203125 C-25.72940424 47.80450095 -25.704891 45.78868945 -25.67970943 43.77288628 C-25.61888488 38.79089706 -25.56827175 33.80881472 -25.52319336 28.82666016 C-25.49136444 25.36182706 -25.45007802 21.89721012 -25.40299797 18.43255234 C-25.37922641 16.47172105 -25.3662439 14.51076858 -25.35340881 12.54983521 C-25.33676682 11.3553476 -25.32012482 10.16085999 -25.30297852 8.93017578 C-25.29267105 7.87919708 -25.28236359 6.82821838 -25.27174377 5.74539185 C-25.00042928 3.00433693 -24.40886102 1.33985531 -23 -1 C-19.91772291 -1.22655901 -16.8342984 -1.42803465 -13.75 -1.625 C-12.87730469 -1.68945312 -12.00460938 -1.75390625 -11.10546875 -1.8203125 C-9.83896484 -1.89765625 -9.83896484 -1.89765625 -8.546875 -1.9765625 C-7.77182617 -2.02893066 -6.99677734 -2.08129883 -6.19824219 -2.13525391 C-4 -2 -4 -2 0 0 Z " fill="#48B748" transform="translate(209,302)"/>
</svg>
